<svg id="Calque_1" data-name="Calque 1" xmlns="http://www.w3.org/2000/svg" viewBox="0 0 556.11 307.92"><defs><style>.cls-1{fill:#042b68;}.cls-2{fill:#81817e;}.cls-3{fill:#80807e;}.cls-4{fill:#7e7f7e;}.cls-5{fill:#7f807e;}.cls-6{fill:#7f7f7e;}.cls-7{fill:#7e7e7e;}.cls-8{fill:#7d7e7e;}.cls-9{fill:#7d7e7d;}.cls-10{fill:#7e7e7d;}.cls-11{fill:#82827e;}.cls-12{fill:#6f757b;}.cls-13{fill:#052d65;}.cls-14{fill:#7c7e7d;}.cls-15{fill:#787a7c;}.cls-16{fill:#797b7d;}.cls-17{fill:#777a7c;}.cls-18{fill:#74787c;}.cls-19{fill:#052c65;}.cls-20{fill:#052c68;}.cls-21{fill:#062c68;}.cls-22{fill:#052b68;}.cls-23{fill:#fefefe;}.cls-24{fill:#fdfdfd;}.cls-25{fill:#fdfefe;}.cls-26{fill:#fdfdfe;}.cls-27{fill:#fdfefd;}.cls-28{fill:#fcfcfc;}.cls-29{fill:#002560;}.cls-30{fill:#002162;}.cls-31{fill:#fafbfb;}.cls-32{fill:#01205a;}.cls-33{fill:#03235f;}.cls-34{fill:#00235f;}.cls-35{fill:#02245f;}.cls-36{fill:#10336b;}.cls-37{fill:#123169;}.cls-38{fill:#08235e;}.cls-39{fill:#022460;}.cls-40{fill:#0e2f67;}.cls-41{fill:#001d5d;}.cls-42{fill:#00235c;}.cls-43{fill:#03215e;}.cls-44{fill:#1a3971;}.cls-45{fill:#01215d;}.cls-46{fill:#12356d;}.cls-47{fill:#15366c;}.cls-48{fill:#021e5d;}.cls-49{fill:#1a396e;}.cls-50{fill:#062d65;}.cls-51{fill:#012562;}.cls-52{fill:#0d2e66;}</style></defs><path class="cls-1" d="M278.05,307.9q-138.39,0-276.8,0c-1,0-1.25-.23-1.25-1.24Q0,154,0,1.25C0,.23.23,0,1.25,0Q278.06,0,554.86,0c1,0,1.25.23,1.25,1.25q0,152.72,0,305.43c0,1-.23,1.24-1.25,1.24Q416.45,307.89,278.05,307.9Z" transform="translate(0 0)"/><path class="cls-1" d="M269.37,202.56H125.48c-2.58,0-2.73-.15-2.73-2.79V109.92c0-2.45.2-2.65,2.6-2.65h307c2.4,0,2.6.2,2.6,2.65v89.85c0,2.64-.15,2.79-2.74,2.79H271.81c.05-.63.53-.65,1-.67s1,0,1.5,0q78.56,0,157.13,0c.72,0,1.56.35,2.13-.46a2.78,2.78,0,0,0,.21-1q0-37.65,0-75.3V110.6a4.59,4.59,0,0,0-.24-2,.82.82,0,0,0-.9-.64h-1.22q-152.57,0-305.12,0c-.72,0-1.69-.49-2.1.65a3.79,3.79,0,0,0-.22,1.6q0,45.09,0,90.18a2.43,2.43,0,0,0,.22,1,1,1,0,0,0,1,.48h1.49q70.35,0,140.7,0C268.1,201.9,269,201.47,269.37,202.56Z" transform="translate(0 0)"/><path class="cls-1" d="M269.37,202.56c-.56-.47-1.22-.26-1.83-.26l-142,0c-.72,0-1.72.44-2-.8a1.7,1.7,0,0,1,1.26-.4H431.56c.88,0,1.83-.27,2.61.39-.07.63-.48.82-1,.81H273.64c-.61,0-1.28-.21-1.83.26h-.87c1.34,2,.12,4.19.77,6.27.82-.61,2-.87,2.09-2.24,0-.35.39-.46.72-.5a3,3,0,0,1,.28,2.55c-.1.34-1.11.57-.07,1,.5.23.48.83.48,1.34,0,1.49,0,3,0,4.48,0,1.74,0,1.79,1.74,2.41a.94.94,0,0,1,.53.38c.23.06.61-.1.61.32a.49.49,0,0,1-.31.38c-1.92.6-4.45-1.74-4.18-3.78a26.92,26.92,0,0,0,.11-3.24c0-1.25-1.32-1.34-1.9-2.24-.43.62-.21,1.21-.26,1.75-.17,2.18.34,4.39-.27,6.55-.49-.46-.4-1.07-.4-1.65,0-3.48,0-6.95,0-10.43a2.32,2.32,0,0,0-.27-1.58,2.32,2.32,0,0,0-.27,1.58c0,3.48,0,7,0,10.43a2.07,2.07,0,0,1-.39,1.65c-1,.29-.81-.52-.81-1,0-3-.05-6.05,0-9.07C269.14,206.15,268.85,204.33,269.37,202.56Z" transform="translate(0 0)"/><path class="cls-1" d="M420.87,211.61c-.08-2.1,1.35-2.94,2.76-3.71,1.13-.61,4.17.83,4.42,2,.15.7-.46,1.06-.87,1.4s-.72-.11-.93-.46a1.46,1.46,0,0,0-1.49-.73c-.64.05-1.32,0-1.42.91s.5,1,1.08,1.13a6.24,6.24,0,0,1,3.44,1.63,2.7,2.7,0,0,1,0,3.79,5.3,5.3,0,0,1-4.21,1.36c-.8-.09-1.3-.9-1.95-1.37-.95-.68-1.76-1-2.68.07-1.3,1.56-3.22,1.14-4.92,1.35-.17,0-.39-.2-.55-.35-.62-.59-1.2-1.22-1.84-1.79-.89-.81-1.72-1.59-1.17-3a2.26,2.26,0,0,0,0-1.21c-.39-1.77.81-2.65,2-3.54a10.2,10.2,0,0,1,1.63-1,3.23,3.23,0,0,1,3.93.56A12.68,12.68,0,0,1,420.87,211.61Z" transform="translate(0 0)"/><path class="cls-1" d="M340.81,208.82c-.81.16-.57.82-.57,1.31,0,3.53,0,7.05,0,10.58a2.4,2.4,0,0,1-.26,1.55v-9.84c0-1,0-2,0-3,0-.46-.22-.9.26-1.21a1.35,1.35,0,0,1,1.65,0c.66.58,1.06.43,1.73,0a3.42,3.42,0,0,1,4.17.56,9.25,9.25,0,0,1,2.51,2.77c.33.69,1,.8,1.39-.1a6.54,6.54,0,0,1,4.41-3.64,3,3,0,0,1,2.2.4c1.69.84,3.45,1.65,3.64,3.86a15.36,15.36,0,0,1,0,3.52c-.19,1.32-1.62,1.71-2.44,2.56-1.21,1.26-2.95.82-4.42.86-.77,0-1.61-1-2.33-1.66s-1.58-.82-1.29-2c.07-.3-.28-.54-.66-.51a.59.59,0,0,0-.58.63c0,1.39-.87,1.86-2,2.5a6.29,6.29,0,0,1-3.58,1c-.55,0-1,.15-1.39-.4s-.79-.25-.82.33a14.21,14.21,0,0,0,0,2.44c.12.93-.6,1.35-1,2a.46.46,0,0,1-.72,0c-.26-.26-.08-.48.14-.67a11.18,11.18,0,0,0,.26-3.36,14.88,14.88,0,0,1,0-1.49c.14-1.22.53-1.43,1.58-.8a4.11,4.11,0,0,0,4.07.57,4.4,4.4,0,0,0,2.54-5,3.88,3.88,0,0,0-3.64-3.37c-.18,0-.36-.07-.54-.09a1.63,1.63,0,0,0-1.26.1,3.79,3.79,0,0,0-1.05.56c-1.35,1-1.35,1-1.85-.55A2.48,2.48,0,0,0,340.81,208.82Z" transform="translate(0 0)"/><path class="cls-2" d="M206.92,210.73c.38,0,.79-.2,1.07.25a4.83,4.83,0,0,1-1.41,3,1.25,1.25,0,0,0,0,1.87c.54.66,1.36,1.08,1.64,1.94-.28.42-.71.21-1.08.27-1.34-1.53-2.41-1.26-4.1-.11-2.61,1.76-5.62.61-6.57-2.6a4,4,0,0,1,1.85-4.36c1-.53,1-.94.31-1.71a4.18,4.18,0,0,1-.12-4.54c.29-.38.72-.32,1.07-.51a.66.66,0,0,0,.6-.22,3.06,3.06,0,0,1,3.91.93,3.21,3.21,0,0,1-.49,4.39c-1.58,1.51-1.59,1.52-.08,3.07.41.44.54,1.33,1.3,1.22s.45-1,.91-1.41S206.26,211,206.92,210.73Z" transform="translate(0 0)"/><path class="cls-1" d="M275.88,206.36a.89.89,0,0,1,.27.73c-.11,1.12.49,1.27,1.41,1.12s2,.61,3,.11c.24-.11.41.27.43.56a.51.51,0,0,1-.71,0c-.51.36-.33.9-.34,1.37,0,2.17,0,4.33,0,6.5,0,1.42-.16,1.51-1.62,1a3.62,3.62,0,0,0-.93,0,1.78,1.78,0,0,1-2.19-1.92c0-1.62,0-3.24,0-4.86a1.4,1.4,0,0,1,1.57-1.64c-.42-.21-.9-.22-1.13-.66A2.45,2.45,0,0,1,275.88,206.36Z" transform="translate(0 0)"/><path class="cls-3" d="M303.82,208.89v10a4.09,4.09,0,0,1-4,4.09c-1.72,0-3.31-.11-4.41-1.65-.08-.23-.29-.47,0-.7s.69.18,1,.25c1.15.34,2.21,1,3.51.63,2-.52,2.62-1.42,2.37-3.62a9.89,9.89,0,0,1-3.45.76,5.16,5.16,0,0,1-4.55-4.36c-.18-2.57.65-4.59,3.13-5.69.47-.05.92-.21,1.38-.29a1.7,1.7,0,0,1,.39,0c.45.06.87.23,1.32.27a7.34,7.34,0,0,1,1.88.76c.37-.09.34-.61.72-.68S303.7,208.59,303.82,208.89Z" transform="translate(0 0)"/><path class="cls-1" d="M169.72,211l.18.21c.43.57.89,1.64,1.29,1.61.73,0,.43-1.11.69-1.71,1-2.14,4.22-3.73,6.31-3a4.7,4.7,0,0,1,1.87,1.46c.57.65-.14,1-.45,1.49-.46.67-.55,0-.82-.19a5.08,5.08,0,0,0-4.28-.08c-1.48,1-1.23,4.8.37,5.62a1.17,1.17,0,0,0,.9.11,2.44,2.44,0,0,1,2,.06c.38.21.67-.08,1-.32s.58-.82,1.12-.42.94.64,1,1.24-.74.55-1,.87c-1.19,1.28-2.79.79-4.21,1.09a.62.62,0,0,1-.73-.21c-.36-.7-1.07-.94-1.67-1.31-.93-.57-1.71-1.2-1.52-2.46,0-.36,0-.84-.49-.81s-.28.57-.3.89c0,.76,0,1.53-.08,2.29,0,.36-.29.74-.69.7s-.29-.48-.33-.78V211Z" transform="translate(0 0)"/><path class="cls-4" d="M340.81,208.82c.88.05.62.81.83,1.4.7-.53,1.23-1.28,2.12-1.42.43-.31,1,0,1.42-.25.74.37,1.6.22,2.34.65a5.09,5.09,0,0,1,1.6,7,4.65,4.65,0,0,1-6.57,1.19c-.26-.17-.5-.36-1-.75,0,1.72,0,3.22,0,4.72,0,.54.1,1.13-.68,1.25a1.53,1.53,0,0,1-.3-1.15V210A1.64,1.64,0,0,1,340.81,208.82Z" transform="translate(0 0)"/><path class="cls-5" d="M328.88,222.61a1.51,1.51,0,0,1-.3-1.14V210a1.62,1.62,0,0,1,.29-1.15c1.32.46,2.45-.32,3.68-.54a3.83,3.83,0,0,1,4.12,1.65h0c2.35,1.6,2.16,6.39-.67,7.84-1.69.86-3.22,1.25-4.94.21-.65-.39-1-.06-1,.69,0,1,0,1.9,0,2.84C330,222.18,329.94,222.94,328.88,222.61Z" transform="translate(0 0)"/><path class="cls-1" d="M256,210.67c.52.1.46.35.13.6a.64.64,0,0,1-1-.25,1.34,1.34,0,0,0-1.49-.87c-.74,0-1,.38-1.13,1.06a.8.8,0,0,0,.91,1c1.76-.22,2.66.93,3.7,2s1.11,1.85.06,2.72-2.24,2.3-4.16,2c-1.27-.21-2.06-1.09-3-1.69-.35-.22-.17-.93.23-1.33a1,1,0,0,1,1.58.07c1.05,1.05,2.06.05,3.08.08.36,0,.45-.43.34-.75a1.1,1.1,0,0,0-1-.73,5.06,5.06,0,0,1-3.72-2.15,2.47,2.47,0,0,1,.16-3c1-1.23,2.05-2.15,3.66-1.58a13.31,13.31,0,0,1,2.63,1.6.38.38,0,0,1,.07.65c-.06,0-.3-.13-.46-.21-1,.11-1.61-1-2.66-.75a8,8,0,0,0-1.45.18,1.92,1.92,0,0,0-1.35,1.71,1.85,1.85,0,0,0,1.11,1.72,15,15,0,0,0,2.16.77c1.48.55,2.09,1.41,1.77,2.58a2.58,2.58,0,0,1-3,1.65,3.4,3.4,0,0,1-1.4-.45,3.36,3.36,0,0,0,3.11.29,2.14,2.14,0,0,0,1.43-2.07,1.92,1.92,0,0,0-1.45-1.88c-.71-.28-1.48-.39-2.18-.7-.88-.4-1.57-1-1.41-2.07a2,2,0,0,1,2-1.68C254.76,209,255.47,209.39,256,210.67Z" transform="translate(0 0)"/><path class="cls-1" d="M318.73,203.37c3.83-.19,7.67,3.29,7.76,6.41.07,2.17.08,4.56-1.42,6.28a9.74,9.74,0,0,1-6.47,3.36c-2.8.22-7.77-4.22-7.9-6.55C310.34,206.75,314,203.06,318.73,203.37Z" transform="translate(0 0)"/><path class="cls-6" d="M365.79,209.09l.24,0a2.3,2.3,0,0,1,2.24-.85c1.43.16,1.44.16,1.56-1.33a.92.92,0,0,1,.22-.6.72.72,0,0,1,1.12.4c.07.71-.35,1.5.28,2.14.55-.51,1.21-.31,1.8-.21s.71.51.39,1a.17.17,0,0,0-.05.15.67.67,0,0,1-.72.5c-1.29-.07-1.48.7-1.42,1.74a17.51,17.51,0,0,1,0,2.71c-.16,1.34.2,2.25,1.64,2.5.27,0,.55.07.55.43s-.4.42-.6.63a2.23,2.23,0,0,1-3.19-2.06c-.06-1.44,0-2.89,0-4.33,0-.83-.06-1.45-1.14-1.63-1.91-.31-2.31-.26-2.84.84-.23.48-.21,1.07-.67,1.44-.42,1.46-.09,3-.21,4.41,0,.37.19,1-.39,1s-.45-.56-.45-.91c0-2.74,0-5.48.07-8.21.33-.35.64-.23.9.08A.5.5,0,0,0,365.79,209.09Z" transform="translate(0 0)"/><path class="cls-3" d="M222.93,203.9a16.94,16.94,0,0,1,2.47.92c.5.28,1.3.54,1,1.45-.39.52-.68.13-1-.09a10.27,10.27,0,0,0-3-1.12c-1.59-.44-4.61,1.11-5.44,2.56a7,7,0,0,0-.85,5.14,5.83,5.83,0,0,0,6.71,4.37,10.21,10.21,0,0,0,3.09-1.21l.76-.27c.67.3.55.73.16,1.17-2,2.24-6.86,2.72-8.77.64l-.83-.58c-1.83-.86-2.45-2.6-2.72-4.34a7.37,7.37,0,0,1,3.3-7.79l3.48-.88A2.65,2.65,0,0,1,222.93,203.9Z" transform="translate(0 0)"/><path class="cls-1" d="M373.64,209.62c0-.59-.28-.79-.83-.77s-.9,0-1.36,0v-2c.28.8.53,1.53,1.59,1.49.74,0,1.3,1.09,2.28.12.66-.66,1.52,0,1.56,1a46.85,46.85,0,0,0,.15,5.68c.13.82.33,1.56,1.44,1.1a.5.5,0,0,1,.27,0c.84.13,2,1,2.26-.53.16-.87.67-1.67.36-2.73a14.47,14.47,0,0,1-.13-3.5c0-.59.16-1.16.76-1.29a1.1,1.1,0,0,1,1.41.7l-.58,0c-.51,1.59-.17,3.22-.25,4.83a4.16,4.16,0,0,1-1.46,3.36,3,3,0,0,1-3.25.62,3.1,3.1,0,0,1-1.91-2.87c-.07-1.35,0-2.71,0-4.06,0,1.2,0,2.39,0,3.59,0,3,2.08,4.32,4.76,3.06a1.14,1.14,0,0,1,1-.15,2,2,0,0,1-1.66,1.81c-1.7.41-4.06-.94-4.93-2.54a1.53,1.53,0,0,1-.19-.89c0-1.49,0-3,.08-4.47C375.1,210,374.74,209.52,373.64,209.62Z" transform="translate(0 0)"/><path class="cls-1" d="M182.75,213.7c1.26.55,2.58.17,3.87.25a12.82,12.82,0,0,1,2.81.28c-1.73,0-3.47,0-5.2,0-.47,0-1.09-.25-1.35.32s.16.88.47,1.19.77,1.14,1.55.77a1.84,1.84,0,0,1,1.79-.08c.45.23.73-.09,1-.47a1.48,1.48,0,0,1,1.57-.49c.82.13,1.13.64.53,1.33s-1.28,1.73-2.13,2a5.21,5.21,0,0,1-3.46-.09,7.2,7.2,0,0,1-3.58-3.53c-.48-.93-.15-2.22.12-3.27a6.08,6.08,0,0,1,4.19-4.1c1.64-.6,2.9.69,4.07,1.6a3.51,3.51,0,0,1,1.26,3.93c-.33-.51.06-1.18-.43-1.57-.47-.06-.68-.42-.87-.78-.87-1.64-2.32-2-4-1.8a3.51,3.51,0,0,0-3,2.43,4.45,4.45,0,0,0,2.85,6.14,4.28,4.28,0,0,0,3.45-.71,5,5,0,0,1-2.38.81,4,4,0,0,1-2.64-.87,3.92,3.92,0,0,1-1.4-2.26C181.64,213.8,181.83,213.59,182.75,213.7Z" transform="translate(0 0)"/><path class="cls-3" d="M182.75,213.7c-.8-.14-.63.37-.55.83a3.66,3.66,0,0,0,5.74,2.22,5.37,5.37,0,0,0,.51-.44c.26-.24.52-.62.88-.18s-.08.65-.32.89a4.63,4.63,0,0,1-7-.7,5,5,0,0,1-.09-5.63,4.25,4.25,0,0,1,4.69-1.91c1.72.3,2.57,1.54,3.19,3,.05,1.86.05,1.85-1.84,1.86Z" transform="translate(0 0)"/><path class="cls-5" d="M234.6,208.88a5.68,5.68,0,0,1,2.69,2.17c.69.22.55.87.68,1.36a4.81,4.81,0,0,1-2.25,5.37,4.7,4.7,0,0,1-4.95.34,5,5,0,0,1-2.91-5.44c.18-1.27.45-2.71,1.94-3.31a16.77,16.77,0,0,1,3.11-.82C233.43,208.88,234.11,208.4,234.6,208.88Z" transform="translate(0 0)"/><path class="cls-5" d="M155.12,208.55c1.43.29,2.87.55,3.48,2.16a28.52,28.52,0,0,1,.13,4,3.78,3.78,0,0,0,.11,1.46,4.9,4.9,0,0,1,0,.54c-.07.45.34,1.11-.35,1.29s-.16-.88-.82-1a4.41,4.41,0,0,1-3.1,1.23,3,3,0,0,1-3-2.28c-.24-1.43.47-2.48,2-3.08a8.54,8.54,0,0,1,3.21-.39c.91,0,1.07-.47.93-1.22-.28-1.51-2.06-2.18-3.87-1.56-.52.18-1.19,1.15-1.57.36s.79-.85,1.3-1.21a.39.39,0,0,0,.1-.08C154.13,208.48,154.69,208.84,155.12,208.55Z" transform="translate(0 0)"/><path class="cls-5" d="M134.62,205.25a40.24,40.24,0,0,0-6.21-.15c-.5,0-.74.27-.74.77,0,1.26,0,2.53,0,3.79,0,.7.41.8,1,.8,1.63,0,3.26,0,4.88,0,.34,0,.85-.11.85.41s-.51.4-.84.4c-1.49,0-3,.07-4.48,0-1,0-1.47.23-1.4,1.35.1,1.44,0,2.89,0,4.34,0,.37.18,1-.4,1s-.45-.56-.45-.92q0-6.37,0-12.75c.56-.45,1.22-.21,1.82-.2,2.1.06,4.22-.24,6.31.15l0,0A.63.63,0,0,1,134.62,205.25Z" transform="translate(0 0)"/><path class="cls-7" d="M163.16,209.87c.29-.48.8-.68,1.22-1,2.3-1.26,4.7-.25,5,2.13,0,2,.07,4,.08,6.06,0,.36.16.94-.49.89-.5,0-.34-.55-.36-.88-.14-1.87.26-3.76-.24-5.62a.55.55,0,0,1-.33-.21,2.4,2.4,0,0,0-4.33.06c-.16.26-.21.6-.57.7-.57,1.53-.13,3.12-.29,4.68,0,.46.33,1.3-.5,1.27s-.44-.86-.45-1.33c-.06-2.34,0-4.69-.09-7,0-.67.24-.75.74-.75C163.1,209,162.43,209.82,163.16,209.87Z" transform="translate(0 0)"/><path class="cls-7" d="M285.63,212.28c-.5,1.53-.1,3.11-.24,4.66,0,.36.19,1-.37,1-.72,0-.45-.63-.47-1-.14-2.46.23-4.92-.22-7.37-.08,0-.11-.08-.08-.13s0-.07.07-.07l.29-.52c1.31.63,2.37-.33,3.54-.58,1.75-.36,4.49,1.5,4,3.8,0,1.67,0,3.34,0,5,0,.38.13.92-.49.92s-.48-.54-.49-.92c0-1.49,0-3,0-4.46a2.34,2.34,0,0,0-.27-1.44c-.65-.39-.86-1.31-1.9-1.29a2.89,2.89,0,0,0-2.7,1.41C286.05,211.6,286,212,285.63,212.28Z" transform="translate(0 0)"/><path class="cls-8" d="M387.72,212.26c-.51,1.54-.11,3.12-.24,4.67,0,.37.18,1-.37,1-.72,0-.46-.62-.48-1-.14-2.36.23-4.74-.21-7.1-.46-.84,0-1.37.71-1.08a2.69,2.69,0,0,0,2.39-.26,3.21,3.21,0,0,1,3.58.72,3.08,3.08,0,0,1,1.15,3.4c0,1.48,0,3-.05,4.45,0,.38.13.92-.49.92s-.48-.54-.48-.92c0-1.48,0-3,0-4.45a2.29,2.29,0,0,0-.27-1.43c-.63-.75-1.23-1.48-2.41-1.3-.94.14-1.73.33-2,1.39A1.38,1.38,0,0,1,387.72,212.26Z" transform="translate(0 0)"/><path class="cls-4" d="M241.66,212c-.55,1.59-.13,3.23-.28,4.84,0,.39.24,1.08-.43,1.07s-.39-.7-.42-1.1c-.13-2.25.22-4.52-.19-6.76-.62-.22-.5-.67-.28-1.08a.71.71,0,0,1,1-.33c.8.53,1.46.25,2.24-.09a3.52,3.52,0,0,1,4.73,2.1c.92,2.17.57,4.49.36,6.76,0,.13-.16.2-.28.27-.75.59-1,.29-1-.54,0-1.43,0-2.86,0-4.29a2.83,2.83,0,0,0-.27-1.69c-1.77-2.11-3.47-1.9-4.87.6A.6.6,0,0,1,241.66,212Z" transform="translate(0 0)"/><path class="cls-9" d="M381.71,217.2a11.05,11.05,0,0,1-1.28.76,3.31,3.31,0,0,1-4.84-2.66c-.17-1.89-.07-3.8-.07-5.69,0-.32,0-.7.45-.67s.4.42.4.73c0,1.49,0,3,0,4.47,0,2.05.93,3.25,2.46,3.3a3.27,3.27,0,0,0,3.22-3.19c.09-1.4,0-2.8.05-4.2,0-.55-.08-1.14.71-1.23.44.56.26,1.22.27,1.83,0,2.13,0,4.26,0,6.38,0,.33.19.81-.3.92s-.48-.35-.55-.7C382.15,216.66,381.93,216.87,381.71,217.2Z" transform="translate(0 0)"/><path class="cls-1" d="M297.61,208.8a4.85,4.85,0,1,0,4.35,8.56c.28-.19.44-.59.87-.55a4.4,4.4,0,0,1-1.56,4.55,4.35,4.35,0,0,1-4.8-.52c.54-.44,1,.06,1.35.24,1.21.56,2.28-.11,3.36-.34.82-.18.64-1.27.87-2,.06-.21-.45-.45-.76-.19-1.11,1-2.42-.06-3.63.37-.35.12-1-.88-1.61-1.26-2.14-1.38-2.29-3.43-1.83-5.6.52-2.43,2.38-3.6,4.54-4.39a1.6,1.6,0,0,1,1.29.14,3.43,3.43,0,0,0,2.8.46c.43-.17.92-.1,1,.57l-.69-.07c-.58.15.2,1.15-.69,1.1l-1.86-1.13c-.44-.28-1,0-1.42-.24l-.06,0-.07,0C298.59,208.82,298,208.49,297.61,208.8Z" transform="translate(0 0)"/><path class="cls-10" d="M266.67,209.06c0,2.61,0,5.22,0,7.83,0,.37.24.92-.29,1.05s-.45-.47-.58-.81-.37-.14-.53.07c-.8,1.39-2.15,1.53-3.49,1.33a3.54,3.54,0,0,1-2.88-2.68,2.44,2.44,0,0,1-.1-.81c0-1.61,0-3.23,0-4.85,0-.47-.16-1,.36-1.35l.63,0c.48,1,.12,2,.21,3a21.39,21.39,0,0,0,.13,3.3,1.85,1.85,0,0,0,1.59,2.15,2.1,2.1,0,0,0,1.48,0,3,3,0,0,0,1.6-1.3c0-.84.57-1.6.43-2.47a12.09,12.09,0,0,0,.08-4.2C265.63,208.41,266.08,208.32,266.67,209.06Z" transform="translate(0 0)"/><path class="cls-6" d="M142.44,210.06a5,5,0,0,1,2.66-1.37,3.16,3.16,0,0,1,3.7,2.74,34.81,34.81,0,0,1,.2,5.68c0,.4,0,.92-.59.85s-.38-.54-.38-.87c0-1.58,0-3.16,0-4.74,0-1.26-.4-2.36-1.77-2.72a2.9,2.9,0,0,0-3.47,1.68c-.83,1.63-.34,3.38-.5,5.07-.05.53.32,1.49-.35,1.5-.86,0-.45-1-.48-1.51-.1-2.07.1-4.15-.12-6.22,0-.41-.33-1,.24-1.2C142.33,208.73,142.12,209.56,142.44,210.06Z" transform="translate(0 0)"/><path class="cls-1" d="M226,215.92a6.12,6.12,0,0,1-6.9,1,6.45,6.45,0,0,1-3.34-6.56c.73-5,5.66-7.17,9.88-4.37.26.18.49.4.85.3-.07.54-.32,1.2-.85.56-.91-1.09-2.34-.71-3.35-1.48-.55-.42-1.08.52-1.73.51-2.07,0-3.17,1.28-3.73,3-.49,1.52-.93,3.13.3,4.61.64.76.34,2.14,1.54,2.55a8.22,8.22,0,0,0,4.28.69C224,216.54,224.86,215.85,226,215.92Z" transform="translate(0 0)"/><path class="cls-1" d="M394.25,212.6a1.38,1.38,0,0,1-.06-.26c-.12-3.92-3.87-4.74-6.51-2.33-.43-.23-.06-1.2-.85-1.08-.49.08-.32.57-.41.89q0,3.59,0,7.19c0,.34.11.84-.36.9s-.68-.46-.67-.85c0-2.52-.3-5.05.23-7.56.23-1.09.82-1.49,1.82-1.18a2.19,2.19,0,0,0,2.15-.35,1.86,1.86,0,0,1,1.57-.21,5.12,5.12,0,0,1,3.7,4.83c0,.81,0,1.63,0,2.44a7,7,0,0,1-.28,2.3c0-1.06,0-2.12,0-3.18C394.52,213.62,394.69,213.05,394.25,212.6Z" transform="translate(0 0)"/><path class="cls-6" d="M256,210.67a3.08,3.08,0,0,0-2.9-1.08,1.61,1.61,0,0,0-1.53,1.31,1.43,1.43,0,0,0,1.1,1.65c.72.26,1.47.43,2.19.68a2.32,2.32,0,0,1,1.82,2.38,2.49,2.49,0,0,1-1.84,2.41,4,4,0,0,1-4-.83c-.24-.18-.55-.45-.3-.79s.62-.14.9.12a2.89,2.89,0,0,0,3.12.7,1.7,1.7,0,0,0,1.28-1.58,1.56,1.56,0,0,0-1.21-1.59c-.77-.28-1.56-.47-2.32-.76a2.21,2.21,0,0,1-1.6-2.26,2.32,2.32,0,0,1,1.89-2.2,3.83,3.83,0,0,1,4,1.08C256.59,210.33,256.22,210.45,256,210.67Z" transform="translate(0 0)"/><path class="cls-1" d="M365.18,212.54c.3-2.59,2.08-3.66,4.54-2.75.55.2.41.65.42,1,0,1.5,0,3,0,4.48,0,2.26.65,2.91,2.88,3,.38.12.82.39.18.62-1.77.66-3.84-1.13-3.69-3,.1-1.26,0-2.53,0-3.8,0-.58-.07-1.27-.72-1.24-.81,0-1.51-1.09-2.35-.19a1.88,1.88,0,0,0-.5,2c.59,1.55.2,3.13.26,4.69,0,.33-.09.8-.55.8s-.47-.47-.48-.83C365.2,215.71,365.19,214.13,365.18,212.54Z" transform="translate(0 0)"/><path class="cls-1" d="M199.63,204.2c-1.69,1.36-1.92,3.32-.48,5.23.61.79.5,1.07-.32,1.57a3.87,3.87,0,0,0-1.35,5.81c1.27,1.77,4.16,2.05,6.1.62.58-.43,1-1.49,1.58-1.31.73.22,1.26,1.1,1.87,1.69.06.07.11.15.16.22l.81.46c-1.13.33-1.56-.57-2.15-1.13s-.78-.69-1.3-.09a4.3,4.3,0,0,1-3.94,1.56c-.68-.08-1.42.68-2-.13-1-1.35-2.8-2.27-2.61-4.3a4.51,4.51,0,0,1,2.14-3.64c1.06-.59.83-.89.15-1.49-1-.89-.68-4.44.44-5.1C199,204,199.32,204.2,199.63,204.2Z" transform="translate(0 0)"/><path class="cls-1" d="M328.88,222.61c.79-.11.68-.71.69-1.24,0-1.49,0-3,0-4.46,0,0,.05-.06.15-.17a5.2,5.2,0,0,0,4,1.53,4.88,4.88,0,0,0,3.55-7.31c-.19-.35-.41-.69-.62-1,1.6.64,2.48,3.18,2.07,4.87-.53,2.22-2.3,3.17-4,4a3.29,3.29,0,0,1-3.37-.24c-.8-.65-.91-.14-.93.5,0,.81,0,1.63,0,2.44a2.46,2.46,0,0,1-.85,1.77.59.59,0,0,1-.86,0C328.49,223,328.67,222.8,328.88,222.61Z" transform="translate(0 0)"/><path class="cls-1" d="M248.15,217.71c-.05-1.89,0-3.8-.18-5.68-.34-3.33-3.2-4.45-5.89-2.4l-.46.38c-.46-.28-.16-1.46-1.13-1.07-.62.25-.33.73-.15,1.14v7.57H240c0-1.37,0-2.74,0-4.11a6.68,6.68,0,0,0-.39-2.77,2.17,2.17,0,0,1,.61-2.35,1.2,1.2,0,0,1,1.81.06c.42.41.88,0,1.22-.24a2.18,2.18,0,0,1,2.73,0c1.93,1.22,3.15,2.76,3,5.17-.08,1.17,0,2.36,0,3.53C249,217.36,249.16,218.24,248.15,217.71Z" transform="translate(0 0)"/><path class="cls-8" d="M275.88,208.8l1.62.07c.33,0,.68,0,.67.48s-.39.44-.7.46a5,5,0,0,1-1,0c-.76-.11-.93.26-.92.93,0,1.62,0,3.25,0,4.87s.34,1.81,1.87,1.73c.43,0,.69.05.85.44l-.86.53c-2.21-.11-2.72-.64-2.73-2.89q0-2.35,0-4.71c0-.57-.08-1-.81-.91-.39,0-1.05.22-1-.48s.68-.36,1.08-.45l.53-.1a4.77,4.77,0,0,0,.13-1.84c0-.72.35-.86.95-.52h0C276,207.15,275.48,208,275.88,208.8Z" transform="translate(0 0)"/><path class="cls-9" d="M405.65,217.76l-.84.53a2.16,2.16,0,0,1-2.94-1.55,17,17,0,0,1-.27-4.67c0-.85-.07-1.48-1-1.91s-.74-1.31.69-2a2.65,2.65,0,0,0,.54-1.22c.14-.66.52-.9,1.15-.49.14.79-.29,1.64.28,2.38.46-.43,1-.24,1.55-.27s.94.14,1,.68-.38.89-.88,1c-1.67.48-1.68.47-1.68,2.2,0,1,0,2,0,3a1.3,1.3,0,0,0,1.34,1.51C405.09,217,405.7,216.93,405.65,217.76Z" transform="translate(0 0)"/><path class="cls-1" d="M401.87,208.76l-.53.09c-.4.09-1-.2-1.09.45s.62.52,1,.48c.72-.06.83.31.83.89q0,2.43,0,4.86c0,2.13.53,2.65,2.72,2.76.2.06.57.08.59.18.06.32-.22.44-.5.48a3.13,3.13,0,0,1-3.12-1.64,7,7,0,0,1-1-4.23,3.69,3.69,0,0,0-.72-2.9c-.53-.68-.8-1.71.43-2.22a.94.94,0,0,0,.58-1,.83.83,0,0,1,.81-.9A5.48,5.48,0,0,1,401.87,208.76Z" transform="translate(0 0)"/><path class="cls-1" d="M229.8,209.37a5.43,5.43,0,0,0-1.62,4.8,4.83,4.83,0,1,0,9.45-2c-.09-.39-.22-.77-.34-1.16.66-.86.84-.12.94.33a11.3,11.3,0,0,1-.26,4.77,2.05,2.05,0,0,1-1.17,1.41c-.69.34-1.45.52-1.85,1.27-.13.25-.45.26-.73.2s-.66-.24-.92-.16c-2.16.68-3.34-.9-4.59-2.07s-1.12-2.8-1.29-4.3C227.31,211.48,228.9,209.52,229.8,209.37Z" transform="translate(0 0)"/><path class="cls-1" d="M206.92,210.73c-1.85,3.89-1.84,3.88-4.77.79-.64-.67-.83-1.11.16-1.57a4,4,0,0,0,1-.7,3,3,0,0,0,1-3.4,3,3,0,0,0-3-1.9c-.36,0-.72,0-1.08,0-.15-.14-.21-.34,0-.45a4.22,4.22,0,0,1,3.78.7c.65.56,1.54,3,1.17,3.59a5.9,5.9,0,0,1-1.68,1.91c-1,.58-.94,1.46-.13,1.92s.64,1.9,1.5,1.38a4.56,4.56,0,0,0,1.31-1.94c.27-.75.69-1.12,1.53-.85Z" transform="translate(0 0)"/><path class="cls-1" d="M405.65,217.76c-.2-.62-.66-.41-1.11-.37A1.27,1.27,0,0,1,403,216c0-1.8,0-3.6,0-5.41,0-.67.28-.88.91-.8a5,5,0,0,0,.95,0c.31,0,.68,0,.7-.45s-.33-.48-.66-.49l-1.62-.06v-2.08c0,1.57.81,1.76,2.08,1.35a1,1,0,0,1,.79,1.8c-.52.31-.84.94-1.61.83s-1,.33-1,1,0,1.53,0,2.3c0,2.11,0,2.12,2.12,2.61.42.1.82.2.81.72S406.05,217.93,405.65,217.76Z" transform="translate(0 0)"/><path class="cls-11" d="M270.93,218l-.75,0a10.41,10.41,0,0,1-.12-2.95c0-3.42,0-6.85,0-10.28v-1c0-.37.13-.6.54-.6s.53.25.54.62v3.92c0,3,0,6,0,9.07C271.12,217.24,271.28,217.67,270.93,218Z" transform="translate(0 0)"/><path class="cls-1" d="M336.67,209.93A5.77,5.77,0,0,0,332,208.8a4,4,0,0,0-2.31,1.55c-.36-.57.14-1.5-.85-1.53-.81.16-.57.82-.58,1.31,0,3.62,0,7.23,0,10.85v1.3H328V209.7c0-1.4.41-1.79,1.82-1.46a3.6,3.6,0,0,0,2.34-.28A3.36,3.36,0,0,1,336.67,209.93Z" transform="translate(0 0)"/><path class="cls-1" d="M295.43,221.29a6.85,6.85,0,0,0,2.79,1.32c2.86.48,4.49-.61,5.6-3.76.46-.44.29-1,.29-1.54,0-2.67,0-5.34,0-8,0,0,.05-.07.19-.24,0,3.44,0,6.74,0,10.05,0,1.46-1.05,2.06-1.78,3-1.45,2-3.4.77-5.06,1.11A2.48,2.48,0,0,1,295.43,221.29Z" transform="translate(0 0)"/><path class="cls-12" d="M398.25,208.84q0,4.18.08,8.35c0,.87-.34,1.08-1.05.53-.45-.29-.44-.75-.44-1.2,0-2.15,0-4.3,0-6.46C396.87,208.86,397.15,208.65,398.25,208.84Z" transform="translate(0 0)"/><path class="cls-1" d="M292.15,212.05c-1.09-3.73-3.35-4.45-6.61-2-.31-.39-.11-1.26-.93-1.2.3-.51.33-.59.71-.44a2.15,2.15,0,0,0,1.69-.19,4,4,0,0,1,5.32,2.3c.92,2.36,0,4.76.48,7.11l-.37,0c0-1.35,0-2.7,0-4C292.43,213.07,292.6,212.49,292.15,212.05Z" transform="translate(0 0)"/><path class="cls-1" d="M265.58,213.75a5,5,0,0,1-.79,2.19c0-2.33-.09-4.67,0-7,.05-1,1-.74,1.73-.68s.73.45.72,1.11c-.08,2.74,0,5.48-.36,8.23,0-2.27,0-4.55,0-6.82,0-.57.35-1.22-.23-1.72-.41-.16-.85-.44-1.09.23A17.52,17.52,0,0,1,265.58,213.75Z" transform="translate(0 0)"/><path class="cls-1" d="M217.85,204.75a1.82,1.82,0,0,1-.25.48c-3.72,3.73-3.84,7.77-.33,11.65-1.12.29-1.47-.7-1.85-1.31-.67-1.07-1.48-2.14-1.2-3.58a6.41,6.41,0,0,0,0-1.75A6,6,0,0,1,217.85,204.75Z" transform="translate(0 0)"/><path class="cls-1" d="M284.32,209.35a.28.28,0,0,1,0,.2c0,2.48,0,4.95,0,7.43,0,.32.16.83-.35.86s-.59-.45-.62-.78a44.21,44.21,0,0,1,0-7C283.36,209.61,283.59,209,284.32,209.35Z" transform="translate(0 0)"/><path class="cls-1" d="M398.25,208.84c-.95-.08-.95.57-.95,1.23q0,3.83,0,7.65c-.59.5-.83.17-.83-.41,0-2.73,0-5.47,0-8.21a1,1,0,0,1,.75-1c.68-.24,1.09.18,1.41.72Z" transform="translate(0 0)"/><path class="cls-1" d="M218.1,217.46c2.65,1.2,5.29,1.35,7.82-.28.48-.31,1.36-.6.79-1.53.58-.3.86.17,1,.53s-.21.8-.59.92a4.69,4.69,0,0,0-1.7,1.29,1.77,1.77,0,0,1-1.81.63,1,1,0,0,0-1,.22c-.14.11-.37.27-.48.22-1.38-.6-3.19-.22-4.16-1.77C218,217.65,218.06,217.54,218.1,217.46Z" transform="translate(0 0)"/><path class="cls-1" d="M163.17,212c.46-1.67,1.35-2.42,2.89-2.43a2.08,2.08,0,0,1,2.34,1.88v6.21h-.31c0-1.19-.07-2.39,0-3.57a7.84,7.84,0,0,0-.6-3.26c-.32-.91-1.06-.74-1.7-.54a3.36,3.36,0,0,0-2.33,3.39,18.43,18.43,0,0,1-.31,4Z" transform="translate(0 0)"/><path class="cls-13" d="M270.93,218q0-6.82,0-13.66c0-.33.12-.84-.37-.87s-.47.54-.47.9q0,6.83.05,13.65h-.27V204.62c0-.14,0-.27,0-.41,0-.49-.07-1.08.68-1.08s.67.59.67,1.08q0,5.63,0,11.25V218Z" transform="translate(0 0)"/><path class="cls-1" d="M373.08,217.22c-1.46.31-1.92,0-1.94-1.46s.06-3,0-4.43c-.07-1.2.24-1.79,1.54-1.53a3.72,3.72,0,0,0,.94,0c0,.62-.31.88-.89,1-.77.1-1,.6-1,1.34a10.73,10.73,0,0,1,0,1.88c-.19,1.57.09,2.73,2,2.76a1.21,1.21,0,0,1,.69.37c.23.22.43.56.08.8s-.49,0-.57-.34C373.79,217,373.56,216.8,373.08,217.22Z" transform="translate(0 0)"/><path class="cls-1" d="M387.72,212.26c.42-1.8,1.37-2.67,2.95-2.7a2,2,0,0,1,2.27,1.61v6.48h-.31c0-1.78,0-3.55,0-5.33s-.75-2.35-2.35-2.14c-.67.08-.91.49-1.32,1.12-1.31,2-.76,4.25-1.24,6.36Z" transform="translate(0 0)"/><path class="cls-1" d="M241.66,212c.43-1.57,1.26-2.36,2.63-2.46s2.25.23,2.56,1.62v6.47h-.29c0-1.74,0-3.48,0-5.23s-.81-2.53-2.65-2.26a1.53,1.53,0,0,0-1.39,1.28,16.56,16.56,0,0,0-.5,6.11c0,.05-.08.13-.36.52Z" transform="translate(0 0)"/><path class="cls-1" d="M285.63,212.28c.47-2,2-3.11,3.75-2.65a1.75,1.75,0,0,1,1.48,1.52v6.2h-.32c0-1.31,0-2.61,0-3.92a4.48,4.48,0,0,0-.41-2.08,1.86,1.86,0,0,0-3.24-.45,5,5,0,0,0-1,3.17c0,1.13,0,2.25,0,3.38,0,.07-.08.13-.28.42Z" transform="translate(0 0)"/><path class="cls-5" d="M408.31,208.85c0,2.79.05,5.58.07,8.37,0,.29.07.69-.37.74s-.47-.34-.47-.65c.06-2.83-.15-5.66.11-8.49C407.88,208.61,408.1,208.57,408.31,208.85Z" transform="translate(0 0)"/><path class="cls-14" d="M137.94,213.54c0,1.26,0,2.52,0,3.78,0,.31,0,.68-.47.63s-.37-.34-.37-.61c0-2.56,0-5.13,0-7.69,0-.32,0-.7.43-.72s.43.38.43.69Z" transform="translate(0 0)"/><path class="cls-1" d="M259.05,215.32c1.15,3.24,3.11,3.83,6.2,1.88.37.4.48.77-.12,1.06-2.64,1.27-4.91.63-6.42-1.78-.07-.11-.23-.22-.23-.33.21-2.44-.32-4.92.3-7.35a38.54,38.54,0,0,1,.14,4.8A4,4,0,0,0,259.05,215.32Z" transform="translate(0 0)"/><path class="cls-9" d="M280.3,208.84l.71,0c0,2.76,0,5.51,0,8.27,0,.33.1.82-.45.81s-.41-.42-.4-.73C280.25,214.44,280.06,211.63,280.3,208.84Z" transform="translate(0 0)"/><path class="cls-1" d="M208.27,217.76c-2.88-2.52-2.88-2.52-.94-5.79.2-.34.44-.66.66-1,.38-.34.7-.33.53.25a5.77,5.77,0,0,1-1.55,2.92c-.78.66-.56,1.07,0,1.64s1.18,1.23,1.75,1.87c.07.08.21.37-.13.35C208.48,218,208.38,217.85,208.27,217.76Z" transform="translate(0 0)"/><path class="cls-1" d="M370.11,206.47c0,.26,0,.53,0,.8,0,1.67-.15,1.84-1.76,1.49a5.12,5.12,0,0,0-2.34.29c.39-1.47,1.54-1.47,2.68-1.26.73.12.86-.11.82-.75-.06-1.31.22-1.46,1.65-.95C370.9,206.43,370.34,206,370.11,206.47Z" transform="translate(0 0)"/><path class="cls-1" d="M169.41,211c-1-2.38-2.9-2.5-5-2.13a2.42,2.42,0,0,1,2.09-1.24,4.73,4.73,0,0,1,3.25,3.36Z" transform="translate(0 0)"/><path class="cls-1" d="M365.79,209.09c-.36.51-.7,1.07-1-.05,0-.12-.39-.15-.59-.22-.5.36-.34.89-.34,1.37a70.89,70.89,0,0,1-.28,7.42c0-2.1,0-4.2,0-6.3a2.89,2.89,0,0,0-.21-1.72.94.94,0,0,1,.26-1.41c.47-.37.92-.14,1.32.23S365.51,208.87,365.79,209.09Z" transform="translate(0 0)"/><path class="cls-1" d="M408.31,208.85l-.66,0c-.51.35-.35.89-.35,1.36a71,71,0,0,1-.28,7.43v-4.54c0-1.35,0-2.71,0-4.06,0-.41.16-.74.61-.72S408.59,208.08,408.31,208.85Z" transform="translate(0 0)"/><path class="cls-1" d="M397.23,205l-.44.9c-.53-.48-.35-.94-.07-1.4a.91.91,0,0,1,1.3-.27c.56.27,1.16.61,1.18,1.31,0,.51-.48.55-.91.53A1.86,1.86,0,0,0,397.23,205Z" transform="translate(0 0)"/><path class="cls-1" d="M281.53,209.19v8.45h-.14v-8.4Z" transform="translate(0 0)"/><path class="cls-1" d="M398.78,208.91v8.73h-.09V208.8Z" transform="translate(0 0)"/><ellipse class="cls-1" cx="408.78" cy="213.69" rx="0.09" ry="5.97"/><path class="cls-1" d="M383.58,208.91v8.73h-.1V208.8Z" transform="translate(0 0)"/><path class="cls-1" d="M280.74,204.47c.6.08,1.11.37,1,1a1.34,1.34,0,0,1-1.21,1.12c-.42.07-.89,0-1-.44s-.41-1.19.48-1.41c.17.17.2.6.46.51S280.55,204.71,280.74,204.47Z" transform="translate(0 0)"/><path class="cls-13" d="M135,204.22l-8.13.05a.86.86,0,0,1,.82-.35h6.6A.87.87,0,0,1,135,204.22Z" transform="translate(0 0)"/><path class="cls-15" d="M280.74,204.47c.18.42.79.7.43,1.28a.74.74,0,0,1-1.06.23c-.62-.33-.39-.79-.1-1.23Z" transform="translate(0 0)"/><path class="cls-16" d="M408.62,205.77c-.5.61-1,.66-1.55,0-.18-1.27.05-1.46,1.29-1v0C408.8,205,409.05,205.29,408.62,205.77Z" transform="translate(0 0)"/><path class="cls-13" d="M259.05,215.32c-.58-1.29-.16-2.64-.26-4-.06-.85,0-1.71,0-2.56l.37,0C258.91,211,259.11,213.16,259.05,215.32Z" transform="translate(0 0)"/><path class="cls-17" d="M137.5,206.09a.61.61,0,0,1-.65-.7c0-.34.09-.63.53-.63a.67.67,0,0,1,.76.6C138.18,205.79,137.91,206,137.5,206.09Z" transform="translate(0 0)"/><path class="cls-13" d="M260.12,215.09c-.43-1.49-.1-3-.21-4.54,0-.58-.09-1.16-.13-1.74.57.44.34,1.07.34,1.61C260.15,212,260.12,213.54,260.12,215.09Z" transform="translate(0 0)"/><path class="cls-18" d="M397.23,205c.36-.2.72-.41,1.1,0s.14.74,0,1.1C397.4,206.24,397.14,205.8,397.23,205Z" transform="translate(0 0)"/><path class="cls-19" d="M158.84,216.2c-.41-1.81,0-3.67-.24-5.49C159.15,212.52,158.75,214.37,158.84,216.2Z" transform="translate(0 0)"/><path class="cls-1" d="M408.36,204.77c-.76-.06-1.43,0-1.29,1-.44-.51-.56-1.12,0-1.5C407.51,204.05,408.18,204,408.36,204.77Z" transform="translate(0 0)"/><path class="cls-13" d="M401.87,208.76c0-.89,0-1.78,0-2.67.39,0,.82-.1,1.08.34-.66-.14-.86.18-.87.79S402.25,208.29,401.87,208.76Z" transform="translate(0 0)"/><path class="cls-13" d="M275.61,206.39c-.62-.07-.89.19-.89.82s.17,1.07-.19,1.54c0-.89,0-1.77,0-2.66C274.91,206.11,275.33,206,275.61,206.39Z" transform="translate(0 0)"/><path class="cls-1" d="M408.62,205.77a1.48,1.48,0,0,0-.27-1c.54,0,.86.3.8.86C409.12,206,408.89,206,408.62,205.77Z" transform="translate(0 0)"/><path class="cls-1" d="M295.84,219.53c.06.07.24.18.25.31,0,.28-.2.34-.42.34s-.33-.12-.28-.33A.41.41,0,0,1,295.84,219.53Z" transform="translate(0 0)"/><path class="cls-13" d="M275.88,208.8c-.58-.74-.11-1.62-.31-2.41l.31,0Z" transform="translate(0 0)"/><path class="cls-13" d="M234.6,208.88l-1.68-.33C233.49,208.61,234.13,208.29,234.6,208.88Z" transform="translate(0 0)"/><path class="cls-19" d="M163.16,209.87c-.86,0-.21-.8-.58-1.05C163.06,209,162.82,209.6,163.16,209.87Z" transform="translate(0 0)"/><path class="cls-13" d="M222.93,203.9l-1.6,0A1.34,1.34,0,0,1,222.93,203.9Z" transform="translate(0 0)"/><path class="cls-13" d="M370.11,206.47c.24-.49.68-.35,1.07-.38v.57A1,1,0,0,0,370.11,206.47Z" transform="translate(0 0)"/><path class="cls-13" d="M263.19,217.24a1.33,1.33,0,0,1-1.48,0Z" transform="translate(0 0)"/><path class="cls-19" d="M155.12,208.55a3.13,3.13,0,0,1-1.42.27C154.11,208.38,154.64,208.57,155.12,208.55Z" transform="translate(0 0)"/><path class="cls-13" d="M134.62,205.25a1,1,0,0,0,.31-1.06C135.36,204.71,135.41,205.1,134.62,205.25Z" transform="translate(0 0)"/><path class="cls-13" d="M434.17,108.35v92.31a1.16,1.16,0,0,1-1.21.68c-.32,0-.64,0-.95,0h-151a5.88,5.88,0,0,1-1.62-.07c.06-.94.82-.83,1.4-.86,1.26-.08,2.53,0,3.8,0,7,0,14,0,21,0,1.51,0,3.05.11,4.57.18a3.46,3.46,0,0,0,2.34-.47,1.14,1.14,0,0,1,1.18-.08,6.54,6.54,0,0,0,3.06.4H430c3,0,3,0,3-3v-85c0-3,0-3-2.91-3H127.59c-2.92,0-2.92,0-2.92,3v85.1c0,2.85,0,2.86,2.87,2.86q29.65,0,59.32,0c.85,0,2-.42,2.45.82a2.63,2.63,0,0,1-1.33.12H125.46c-.71,0-1.49.18-1.9-.67V108.35a1.59,1.59,0,0,1,1.25-.41c.32,0,.64,0,1,0H432C432.72,108,433.53,107.73,434.17,108.35Z" transform="translate(0 0)"/><path class="cls-1" d="M434.17,108.35H123.56a.84.84,0,0,1,.92-.8h1.22q153.17,0,306.34,0C432.79,107.56,433.86,107.05,434.17,108.35Z" transform="translate(0 0)"/><path class="cls-19" d="M279.41,201.2H431.87a3,3,0,0,0,2.3-.54v.81H123.56v-.81a3,3,0,0,0,2.17.55h63.54a1.56,1.56,0,0,1,1.33-.55H192q42.39,0,84.78,0C277.64,200.65,278.66,200.35,279.41,201.2Z" transform="translate(0 0)"/><path class="cls-5" d="M415.51,208.55c.71.41,1.58.27,2.28.73a4.21,4.21,0,0,1,1.58,1.82c.91,2,.55,2.55-1.59,2.55-1.62,0-3.25,0-4.88,0-.82,0-1,.26-.79,1.05a3.66,3.66,0,0,0,5.52,2.17,7.71,7.71,0,0,0,.84-.67c.22-.19.43-.38.7-.14s0,.55-.15.79c-1.5,1.83-4.76,1.9-6.59.19-2-1.91-2.09-7.32,1.66-8.25C414.53,208.51,415.07,208.82,415.51,208.55Z" transform="translate(0 0)"/><path class="cls-6" d="M424.74,208.66a3.45,3.45,0,0,1,2.26.76c.25.25.83.47.38,1s-.64.06-.9-.21a2.64,2.64,0,0,0-2.54-.53,1.35,1.35,0,0,0-1.22,1.25,1.39,1.39,0,0,0,.92,1.62c.72.25,1.47.44,2.19.68a2.37,2.37,0,0,1,1.93,2.45,2.57,2.57,0,0,1-2.13,2.47,4,4,0,0,1-3.68-.85c-.26-.2-.68-.46-.36-.87s.62-.09.9.15a3,3,0,0,0,3.26.62,1.64,1.64,0,0,0,1.11-1.55,1.5,1.5,0,0,0-1.11-1.52c-.63-.25-1.29-.41-1.93-.63-1.57-.54-2.29-1.51-2.06-2.74A2.84,2.84,0,0,1,424.74,208.66Z" transform="translate(0 0)"/><path class="cls-13" d="M415.51,208.55a3,3,0,0,1-1.42.23C414.51,208.4,415,208.57,415.51,208.55Z" transform="translate(0 0)"/><path class="cls-3" d="M361.42,213.45a4.84,4.84,0,1,1-4.9-4.79A4.61,4.61,0,0,1,361.42,213.45Z" transform="translate(0 0)"/><path class="cls-13" d="M345.18,208.55a3.14,3.14,0,0,1-1.42.25C344.18,208.39,344.7,208.57,345.18,208.55Z" transform="translate(0 0)"/><path class="cls-1" d="M200.84,217.5a3,3,0,0,1-3.18-2.71,4,4,0,0,1,2.52-3.66.69.69,0,0,1,.71.27c1.06,1.11,2.1,2.24,3.17,3.33a.68.68,0,0,1,0,1.06A4,4,0,0,1,200.84,217.5Z" transform="translate(0 0)"/><path class="cls-20" d="M201.32,204.75a2.24,2.24,0,0,1,2.28,2c.06,1-1.73,3-2.72,3-.62,0-1.75-1.76-1.78-2.79A2.34,2.34,0,0,1,201.32,204.75Z" transform="translate(0 0)"/><path class="cls-1" d="M299.21,209.56a3.81,3.81,0,0,1,3.8,3.92,3.92,3.92,0,0,1-3.8,4,3.81,3.81,0,0,1-3.76-4A3.68,3.68,0,0,1,299.21,209.56Z" transform="translate(0 0)"/><path class="cls-13" d="M302.44,209.92c.43-.24.19-.91.69-1.1,0,.35-.06.7-.13,1.05C302.88,210.48,302.65,210.19,302.44,209.92Z" transform="translate(0 0)"/><path class="cls-13" d="M297.61,208.8c.41-.41.93-.23,1.42-.24A2.89,2.89,0,0,1,297.61,208.8Z" transform="translate(0 0)"/><path class="cls-13" d="M299.16,208.55c.49,0,1-.16,1.42.24A3.16,3.16,0,0,1,299.16,208.55Z" transform="translate(0 0)"/><path class="cls-5" d="M176.37,218.28a4.33,4.33,0,0,1-3.93-2.75,4.88,4.88,0,0,1,.78-5.34,4.61,4.61,0,0,1,5-1.29,4.85,4.85,0,0,1,1.18.64c.28.18.54.42.27.77s-.53.1-.81-.06c-2-1.09-3.79-.87-5,.6a4.35,4.35,0,0,0,0,5.17,3.8,3.8,0,0,0,5,.83c.3-.15.61-.58.9-.07s-.21.64-.49.82A4.78,4.78,0,0,1,176.37,218.28Z" transform="translate(0 0)"/><path class="cls-1" d="M345.31,209.56a3.65,3.65,0,0,1,3.64,4,3.79,3.79,0,0,1-3.72,3.88,3.86,3.86,0,0,1-3.71-4A3.63,3.63,0,0,1,345.31,209.56Z" transform="translate(0 0)"/><path class="cls-1" d="M337,213.49a3.78,3.78,0,0,1-3.74,4,3.86,3.86,0,0,1-3.72-4,3.73,3.73,0,1,1,7.46,0Z" transform="translate(0 0)"/><path class="cls-2" d="M318.59,218.34a7.21,7.21,0,1,1,.16-14.42,7.21,7.21,0,0,1-.16,14.42Z" transform="translate(0 0)"/><path class="cls-21" d="M185.51,212.83c-.72,0-1.44,0-2.16,0-1.25,0-1.41-.31-.82-1.44a3.25,3.25,0,0,1,3.46-1.82,3,3,0,0,1,2.74,2.06c.33.81.28,1.29-.79,1.22C187.14,212.78,186.32,212.83,185.51,212.83Z" transform="translate(0 0)"/><path class="cls-1" d="M232.9,209.56a3.63,3.63,0,0,1,3.95,3.82,3.79,3.79,0,0,1-3.91,4.07,3.91,3.91,0,0,1-3.95-4A3.8,3.8,0,0,1,232.9,209.56Z" transform="translate(0 0)"/><path class="cls-22" d="M156,213.37c1.91-.05,2.23.43,1.61,2.09a3,3,0,0,1-4,1.77,1.78,1.78,0,0,1-.31-3.22A4.71,4.71,0,0,1,156,213.37Z" transform="translate(0 0)"/><path class="cls-1" d="M265.58,213.75v-4.46A11.54,11.54,0,0,1,265.58,213.75Z" transform="translate(0 0)"/><path class="cls-13" d="M279.41,201.2H189.27c-.51-.45-1.12-.26-1.69-.26H126.5c-2.32,0-2.39-.08-2.39-2.34V111.18c0-2.18.1-2.29,2.31-2.29H431.28c2.28,0,2.35.08,2.35,2.39v87.27c0,2.31-.07,2.38-2.35,2.38H315.63c-.74,0-1.57.23-2.1-.59-.06-.09-.3-.17-.35-.13-1.66,1.53-3.67.65-5.49.68-7.23.12-14.46.05-21.7.05-1.72,0-3.44,0-5.16,0C280.35,200.94,279.83,200.8,279.41,201.2Z" transform="translate(0 0)"/><path class="cls-21" d="M415.33,212.83c-.81,0-1.62,0-2.43,0s-.95-.27-.72-1a3.37,3.37,0,0,1,3-2.28,3.19,3.19,0,0,1,3.36,2c.35.83.36,1.4-.81,1.32C417,212.78,416.14,212.83,415.33,212.83Z" transform="translate(0 0)"/><path class="cls-1" d="M356.56,209.56a3.73,3.73,0,0,1,4,3.83,3.92,3.92,0,0,1-4,4.06,3.84,3.84,0,0,1-3.89-4A3.65,3.65,0,0,1,356.56,209.56Z" transform="translate(0 0)"/><path class="cls-1" d="M318.63,217.51a6.17,6.17,0,0,1-6.32-6.37,6.33,6.33,0,1,1,12.66,0A6.18,6.18,0,0,1,318.63,217.51Z" transform="translate(0 0)"/><path class="cls-23" d="M137.16,174.9a9.43,9.43,0,0,0,1.4-2.42v0a39.44,39.44,0,0,0,3-5.15h0c2.42-3.56,4.38-7.4,6.6-11.08.55-.92,1.05-1.87,1.57-2.81a.73.73,0,0,1,.48-.8,16.11,16.11,0,0,0,1.72-3,.28.28,0,0,1,.17-.3c2.13-3.36,4.12-6.8,6-10.31v0a3.34,3.34,0,0,0,.82-1.38v0a20.3,20.3,0,0,0,1.89-3.29c0-.22,0-.41.29-.49a6.62,6.62,0,0,0,1.13-1.94.4.4,0,0,1,.25-.46c.49-.37.73-.2,1,.33a16.88,16.88,0,0,0,1.11,1.81.42.42,0,0,1,.29.48,85.62,85.62,0,0,0,4.3,7.42h0c1.79,3.32,3.68,6.59,5.7,9.78a.41.41,0,0,1,.25.46c3.14,5.43,6.26,10.87,9.41,16.29q7,12,14,24c.36.62.45,1-.49.93-.13,0-.27,0-.4,0H126.69l2.45-4.19q3.83-6.57,7.64-13.13a7.34,7.34,0,0,0,.39-.85Z" transform="translate(0 0)"/><path class="cls-24" d="M232.45,190.34c.74,1,1.81.56,2.76.65.52,0,1.14-.13,1.09.75s-.67.58-1.1.58q-4.95,0-9.9,0c-.42,0-1.06.28-1.11-.57s.56-.7,1.09-.76c1-.11,2.23.41,2.87-.9-.12-6.1,0-12.21-.08-18.31a7.2,7.2,0,0,0-.25-3.16L222.12,185c-.73,2.09-1.44,4.18-2.16,6.28-.17.48-.17,1.07-1,1.08s-.84-.54-1-1q-4.06-10.94-8.11-21.86c-.21-.57-.44-1.13-.66-1.68-.18.07-.26.08-.26.1,0,6.51,0,13,.06,19.52,0,2.26,1,3.12,3.35,3.51.57.09.94.2.89.88s-.59.54-1,.54q-4,0-8,0c-.4,0-.95.21-1-.53s.27-.8.86-.91c2.65-.5,3.33-1.3,3.34-4,0-6.06,0-12.12,0-18.17,0-.53.1-1.11-.52-1.42h0c-.82-.69-1.81-.34-2.72-.42-.43,0-.95.11-1-.6s.51-.7,1-.7c2.21,0,4.43.05,6.64,0a1.46,1.46,0,0,1,1.65,1.16q3.41,9.28,6.89,18.54a2,2,0,0,0,.67,1.17c.64-1.87,1.27-3.67,1.89-5.47,1.61-4.7,3.25-9.39,4.82-14.1a1.57,1.57,0,0,1,1.82-1.3c2.21.09,4.42,0,6.64,0,.46,0,1.05-.18,1.05.65s-.6.6-1.06.65c-.87.08-1.81-.24-2.59.42a7.62,7.62,0,0,0-.23,1.59C232.45,176,232.42,183.17,232.45,190.34Z" transform="translate(0 0)"/><path class="cls-25" d="M368.19,190.34c.34.63,1,.6,1.54.63s.87.11.86.76-.41.6-.83.6h-6.92c-.48,0-.77-.12-.77-.68s.33-.62.79-.69c1.89-.27,2-.42,2-2.3,0-2.49,0-5,0-7.46,0-2.23-.87-3.54-2.42-3.94-1.78-.46-3.35.36-4.43,2.31a4.77,4.77,0,0,0-.74,2.3c0,2.53,0,5.06,0,7.6,0,1.2.81,1.5,1.82,1.51.52,0,1,0,1,.75s-.55.59-1,.59h-6.64c-.42,0-.94.15-1-.59s.46-.75,1-.76c1.29,0,1.88-.62,1.84-1.94-.1-2.94.18-5.88-.17-8.81a3.11,3.11,0,0,0-2.33-3,3.61,3.61,0,0,0-3.91,1.54,5.28,5.28,0,0,0-1,2.34,54.43,54.43,0,0,0-.15,8.66c0,1,.86,1.15,1.66,1.2.5,0,1,0,1,.74s-.65.61-1.09.61q-3.12,0-6.24,0c-.47,0-1.16.27-1.15-.67s.58-.67,1.05-.64a1.47,1.47,0,0,0,1.56-1,19.86,19.86,0,0,0,.13-4.29c0-2.48.14-5-.08-7.44-.31-.6-.46-1.32-1.41-1.31-.61,0-.77-.5-.79-1.05s.49-.65.93-.67c1.17-.07,2.5-.51,3.48-.09s.52,2.08,1,3.34c1.48-1.86,3-3.43,5.45-3.49s4,1.41,4.74,3.78c.73-.77,1.35-1.47,2-2.12a5.36,5.36,0,0,1,5.88-1.31c2,.74,2.79,2.57,2.91,4.52.18,2.93.1,5.88.15,8.82,0,.56-.19,1.18.32,1.65Z" transform="translate(0 0)"/><path class="cls-24" d="M210.68,139.56c-.49,3.81-3.32,5.22-6.48,6.28-.56.27-1.2,0-1.77.22l-.06-.05-.06.05a23,23,0,0,1-5,.14c-.86,0-1.2.2-1.16,1.13.12,2.7-.11,5.41.13,8.12.08.94.83,1,1.48,1,.81.06,1.62,0,2.44,0,.45,0,.78.07.8.64s-.26.68-.74.68H188.77c-.44,0-.8,0-.8-.63s.41-.66.9-.7c1-.07,2,.28,2.88-.33a.35.35,0,0,1,.25-.25c.48-.44.28-1,.28-1.53,0-6.28,0-12.57,0-18.85,0-2.09-.32-2.42-2.42-2.46h-1c-.45,0-.93.08-.95-.63s.41-.69.9-.69c1.08,0,2.17,0,3.25,0,4.2.08,8.41-.23,12.59.26h0c2.67.8,4.92,2.09,5.69,5a18.79,18.79,0,0,1,.32,2.27c.09.07.12.12.08.18S210.72,139.56,210.68,139.56Z" transform="translate(0 0)"/><path class="cls-23" d="M315.86,137.15c.06,1.31.13,2.61.17,3.93,0,.36.24.86-.39,1a.86.86,0,0,1-1.1-.71,16.62,16.62,0,0,0-1.84-4.21c-1.84-2.94-4.45-4.49-8-4s-5.54,2.68-6.41,6a22.74,22.74,0,0,0-.21,11.41c1.06,4.33,4.07,6.7,8.35,6.7a8.54,8.54,0,0,0,8.63-6.67c.08-.3.15-.61.22-.92.14-.64.64-.56,1.08-.49.6.09.29.55.25.85a10,10,0,0,1-8.78,8.53A13.12,13.12,0,0,1,293,149c-1.74-6.82,2.06-14.46,8.34-16.66A11.86,11.86,0,0,1,312,133.59c.84.53,1.25.43,1.57-.47a9.7,9.7,0,0,1,.51-1,.88.88,0,0,1,1-.46c.51.07.45.48.47.83.09,1.54.16,3.07.24,4.61Z" transform="translate(0 0)"/><path class="cls-24" d="M345.11,144.26c-.21-.69-.8-.92-1.39-1.16s-1.12.15-1.57-.33c-.18-.83.07-1.24,1-1.22a19.79,19.79,0,0,0,3.35-.16c1.07-.15,1.69.13,1.83,1.25.77.31,0,1.2.59,1.58a14.68,14.68,0,0,1,2.48-2.18.43.43,0,0,1,.51-.25c5.26-1.62,8.79,1.71,9.79,5.57,1.25,4.79-1.17,9.59-5.5,10.8-2.95.82-5.42,0-7.54-2.71,0,2.5-.09,4.68.05,6.86.07,1.07,1.15,1.08,2,1.16.43,0,1.09-.28,1.11.56s-.7.65-1.18.65c-2.71.06-5.41.08-8.12.11-.62-.12-.59-.59-.53-1,.09-.6.59-.39,1-.43a5.43,5.43,0,0,0,1.45-.1l.7-.63a1.46,1.46,0,0,0,.13-.92q0-8.25,0-16.51A1.32,1.32,0,0,0,345.11,144.26Z" transform="translate(0 0)"/><path class="cls-24" d="M318,196.28l-.36.53c0,.33-.15.49-.47.51-2.79,2.21-6.07,2.34-9.41,2.2h0l-2.78-.8a.48.48,0,0,1-.48-.27c-.23-.21-.48-.4-.71-.62a2.68,2.68,0,0,1,.58-4.67c.57-.31,1.21-.51,1.85-.78-4.1-2.52-4.13-4.65-.13-6.85.06-.36-.27-.43-.47-.58a5.4,5.4,0,0,1,1.05-9.35,7.9,7.9,0,0,1,7.45.2,1.13,1.13,0,0,0,1.62-.19,3.88,3.88,0,0,1,2.14-1.1,2,2,0,0,1,2.44,1.59,1.49,1.49,0,0,1-.87,1.8c-.78.31-1.3-.12-1.64-.8-.26-.53-.4-1.16-1.25-.68s-.5.94-.15,1.53a5.06,5.06,0,0,1-1.61,7,8.25,8.25,0,0,1-4.84,1.49,27,27,0,0,0-3.25.15c-.89.09-1.56.55-1.52,1.57s.78,1.39,1.65,1.42c1.45.06,2.9,0,4.35,0a24.51,24.51,0,0,1,3,.13c3.81.55,5,2.33,4.1,6C318.17,196,318.16,196.17,318,196.28Z" transform="translate(0 0)"/><path class="cls-24" d="M244.6,141c3.72.92,4.91,2.48,4.93,6.44,0,2.35,0,4.7,0,7.05,0,1.59.34,1.91,1.88,2,.5,0,1.18-.19,1.13.72s-.78.57-1.22.58c-2.26,0-4.53,0-6.79,0-.46,0-1.05.18-1-.64s.58-.64,1-.68c1.62-.13,2-.47,2-2.11,0-2.49,0-5-.09-7.46s-1.26-3.67-3.19-3.9a4.37,4.37,0,0,0-4.81,3.07,64,64,0,0,0-.27,8.07,5.26,5.26,0,0,0,.32,2c.47.5,1.09.34,1.65.36s.75.15.75.7-.34.63-.78.63h-7.42c-.39,0-.83.07-.85-.56s.26-.78.81-.76c.82,0,1.64,0,2-1a25.15,25.15,0,0,0,.12-4.83,60.56,60.56,0,0,0-.09-6.6,2.07,2.07,0,0,0-2.26-1.65c-.37,0-.72,0-.74-.54s.34-.64.79-.66c.85,0,1.71-.07,2.56-.13,2.36-.16,2.34-.16,2.68,2.15,0,.3-.26.87.41.93,0,0,.06-.07.08-.11l0-.13h0a7.72,7.72,0,0,1,6.42-3Z" transform="translate(0 0)"/><path class="cls-26" d="M276.66,189.9c.19,1.12,1.08,1,1.87,1.09.53,0,1,0,1,.75s-.53.59-.95.59h-6.91c-.41,0-.94.17-1-.56s.39-.75.94-.8c1.71-.14,2-.47,2-2.18,0-2.61,0-5.23-.11-7.85-.11-2.14-1.11-3.4-2.69-3.78a4.26,4.26,0,0,0-4.73,2.1,4.63,4.63,0,0,0-.69,1.6,35.28,35.28,0,0,0-.12,9c.25.09.28.28.23.51.42.75,1.16.56,1.81.6.48,0,.76.15.76.7s-.31.66-.78.65H260c-.44,0-.82,0-.81-.62s.24-.66.73-.73c2.27-.3,2.27-.32,2.27-2.59,0-3,0-6.06,0-9.09,0-2-.4-2.44-2.37-2.75-.44-.07-.79-.1-.77-.68s.43-.6.84-.63l.95-.05c1.17-.05,2.52-.5,3.47-.06s.41,2.12,1,3.36a11.49,11.49,0,0,1,1.95-2.13c3.25-2.62,7.71-1.43,9,2.41.06.16.13.32.2.47.44.35.21.84.22,1.25C276.63,183.63,276.43,186.77,276.66,189.9Z" transform="translate(0 0)"/><path class="cls-24" d="M397.48,189.65c0,1.25.91,1.26,1.78,1.33.53,0,1.14-.08,1.07.79s-.7.54-1.13.55q-3.39,0-6.78,0c-.42,0-.94.15-1-.59s.44-.72,1-.76c1.73-.13,2-.44,2-2.17,0-3.17,0-6.33,0-9.5,0-2-.43-2.47-2.36-2.77-.43-.06-.8-.06-.78-.66s.4-.62.82-.64l2.31-.12c2.55-.16,2.55-.16,2.82,2.4,0,.26.06.51.07.64.65-.54,1.32-1.11,2-1.66a6.12,6.12,0,0,1,6.48-1c2.11.84,2.84,2.75,2.95,4.81.15,2.75.07,5.51.09,8.27,0,2.07.12,2.23,2.16,2.42.57.05.82.19.8.79s-.46.56-.86.56h-7.19c-.41,0-.82,0-.84-.58s.29-.72.83-.77c1.94-.21,2.14-.45,2.14-2.34,0-2.39.06-4.79-.05-7.18-.14-2.88-1.4-4.34-3.59-4.4a4.88,4.88,0,0,0-4.74,4.35,7.33,7.33,0,0,0,0,.94A55.57,55.57,0,0,0,397.48,189.65Z" transform="translate(0 0)"/><path class="cls-27" d="M409.49,150c0,1.45,0,2.9,0,4.34.05,2.08.66,2.57,2.65,2.09a.73.73,0,0,1,1,.46c.26.49-.21.63-.48.81a3.93,3.93,0,0,1-5.75-1.16c-.5-.87-.77-.79-1.44-.2a8.49,8.49,0,0,1-8.88,1.59c-2.81-.94-3.41-4-1.28-6.06,1.83-1.77,4.2-2.42,6.58-3a31.21,31.21,0,0,1,3.48-.59c.69-.07.89-.35.9-1,0-1.68,0-3.32-1.77-4.2a6.06,6.06,0,0,0-5.6.19.84.84,0,0,0-.3,1.44c.67.85,1.05,1.79.06,2.63a2.22,2.22,0,0,1-3.28-2.93,5.5,5.5,0,0,1,2.88-2.37,11.64,11.64,0,0,1,8.22-.26,4.08,4.08,0,0,1,3,4.3C409.5,147.36,409.49,148.67,409.49,150Z" transform="translate(0 0)"/><path class="cls-24" d="M338.62,156.44a.8.8,0,0,1,1.19.48c.19.54-.34.66-.65.85a3.86,3.86,0,0,1-5.61-1.29c-.48-.82-.73-.76-1.34-.2a8.55,8.55,0,0,1-8.88,1.66c-2.89-.93-3.53-4-1.32-6.13,1.8-1.72,4.13-2.38,6.47-2.93a34,34,0,0,1,3.61-.61c.62-.08.85-.3.86-.93,0-1.66.1-3.34-1.68-4.25a6.08,6.08,0,0,0-5.61.1.88.88,0,0,0-.36,1.53c.69.86,1,1.79,0,2.62a2.19,2.19,0,0,1-2.78,0,2.06,2.06,0,0,1-.6-2.78,5.38,5.38,0,0,1,3.14-2.65,11.86,11.86,0,0,1,7.6-.38,4.28,4.28,0,0,1,3.49,4.66c0,2.48,0,5,0,7.46a3.08,3.08,0,0,0,.22,1.72A2.07,2.07,0,0,0,338.62,156.44Z" transform="translate(0 0)"/><path class="cls-24" d="M284.66,192.47c-3.7-1.9-2.94-5.81-.08-7.58a17.76,17.76,0,0,1,7.39-2.54c1.1-.13,1.41-.48,1.5-1.65.35-4.18-3.55-5.38-6.5-3.89-.83.42-1.16,1-.54,1.83a1.84,1.84,0,0,1-2.37,2.8,2.16,2.16,0,0,1-.91-2.61,4.34,4.34,0,0,1,2.05-2.61,8.88,8.88,0,0,1,8.81-.59,4.13,4.13,0,0,1,2.42,4.08c0,2.76,0,5.52,0,8.28a7.86,7.86,0,0,0,.14,1.75c.25,1,.87,1.61,2,1.14.45-.19.79-.4,1.11.18s-.15.82-.49,1.07a3.41,3.41,0,0,1-5.16-1.26c-.47-.94-.76-.88-1.36-.2-1.9,2.1-4.4,2.29-7,2.09C285.3,192.76,284.9,192.9,284.66,192.47Z" transform="translate(0 0)"/><path class="cls-24" d="M249.82,190.62l-1.2,1a.43.43,0,0,1-.44.3,9.35,9.35,0,0,1-4.75.83c-2.17-.17-3.72-1.21-4.2-2.85a4.29,4.29,0,0,1,2-4.81,15.66,15.66,0,0,1,7.45-2.71c1.43-.16,1.84-.67,1.77-2.11-.14-2.88-1.77-4.38-4.65-4.06a5.75,5.75,0,0,0-1.92.61c-.76.37-1.12.9-.53,1.73s.89,1.83,0,2.68a1.8,1.8,0,0,1-2.38.14,2.21,2.21,0,0,1-.74-2.89,5.31,5.31,0,0,1,2.93-2.88,9.66,9.66,0,0,1,7.15-.33,4.33,4.33,0,0,1,3.08,4.32c0,2.75,0,5.51,0,8.27a10.85,10.85,0,0,0,.09,1.62c.24,1.3,1,1.76,2.23,1.29.47-.17.72-.21,1,.25s0,.73-.36,1a4.47,4.47,0,0,1-3.48.7h0a4.52,4.52,0,0,1-2.07-2.2c-.12-.32-.28-.74-.69-.2A.3.3,0,0,1,249.82,190.62Z" transform="translate(0 0)"/><path class="cls-26" d="M218.08,141.27a10.31,10.31,0,0,1,6.47.25.47.47,0,0,1,.49.26l1.71,1.3h0a9.9,9.9,0,0,1,2.18,8.48,8,8,0,0,1-15.82-.28,11.28,11.28,0,0,1,1.14-6.83.83.83,0,0,1,.56-.76l.51-.6a1.12,1.12,0,0,1,.85-.74l.85-.58A.83.83,0,0,1,218.08,141.27Z" transform="translate(0 0)"/><path class="cls-24" d="M331.66,184c-1.72,0-3.43,0-5.15,0-.64,0-.94.18-.81.85a5.06,5.06,0,0,1,.05.68c.3,3.08,1.66,5,3.93,5.58,2.47.62,4.69-.41,6.42-3,.28-.41.4-1.1,1.18-.65s.11,1-.1,1.3a7.84,7.84,0,0,1-8.78,3.84,8.16,8.16,0,0,1-6-7.48,9.81,9.81,0,0,1,2.32-7.82c4.05-4.4,10.66-2.86,12.49,2.88,1.1,3.46.87,3.8-2.65,3.8Z" transform="translate(0 0)"/><path class="cls-24" d="M383.07,192.73c-3.33.39-6.16-.4-8.2-3.29-3.44-4.9-1.11-12.92,4.3-14.33,6.13-1.6,9.53,3.47,9.47,8.28,0,.82-.66.59-1.1.59-3.21,0-6.42.05-9.62,0-1.05,0-1.42.28-1.18,1.3.07.3.08.62.13.94.32,2.38,1.38,4.22,3.84,4.88,2.3.62,4.54-.34,6.11-2.52a7.87,7.87,0,0,0,.59-.91c.24-.45.54-.34.9-.18s.35.52.16.87a13.3,13.3,0,0,1-2.45,3,1.27,1.27,0,0,1-1.28.8l-1.68.56Z" transform="translate(0 0)"/><path class="cls-28" d="M423.27,156.42c.61.43,1.31.22,2,.24.5,0,.76.17.73.72s-.28.6-.7.6h-8.95c-.42,0-.68-.12-.7-.6s.23-.72.73-.7a7.48,7.48,0,0,0,.82,0c1.64-.06,2-.47,2-2.16q0-9.15,0-18.3c0-2.1-.51-2.62-2.62-2.73h-.68c-.45,0-.64-.22-.65-.67s.24-.63.66-.64c2-.08,4-.18,6-.24.95,0,.62.72.62,1.18,0,6,0,12,0,18,0,1.27,0,2.54,0,3.8,0,.39-.12.83.26,1.14A.58.58,0,0,1,423.27,156.42Z" transform="translate(0 0)"/><path class="cls-24" d="M270.16,154.69c0-.73-.07-1.45-.09-2.17,0-.34-.19-.78.33-.9a.84.84,0,0,1,1.06.59,14.11,14.11,0,0,0,.81,1.71,5.83,5.83,0,0,0,7,2.83,3,3,0,0,0,2.34-2.67c0-1.2-.76-2-2.34-2.4-1.8-.43-3.63-.75-5.41-1.26a4.32,4.32,0,0,1-3.51-4.27,5,5,0,0,1,3.53-4.77,6.52,6.52,0,0,1,5.52.47c.68.39,1.09.46,1.56-.21a.87.87,0,0,1,.9-.48c.56.13.39.65.43,1q.21,1.89.33,3.78c0,.36.27.87-.35,1s-.91-.16-1.11-.71c-.86-2.39-2.44-3.87-5.1-3.95a4.68,4.68,0,0,0-1.86.28,2.66,2.66,0,0,0-2,2.49c0,1.23.81,1.84,1.84,2.25a22.81,22.81,0,0,0,3.83.86c.66.14,1.34.23,2,.41,2.32.62,3.63,2,3.81,4a5,5,0,0,1-3.19,5,7.42,7.42,0,0,1-6.91-.44c-.64-.38-1.05-.58-1.53.16-.29.44-.68,1-1.31.75s-.36-.94-.42-1.43c-.09-.67-.08-1.36-.11-2Z" transform="translate(0 0)"/><path class="cls-24" d="M384.19,154.1a2,2,0,0,0,1.31,2.26,2.72,2.72,0,0,0,2.81-.6,5.65,5.65,0,0,0,1.37-2.5c.28-.44-.16-1,.33-1.44l-.06.06a.93.93,0,0,1,1.3,0c-.09.62-.13,1.26-.26,1.87a5.54,5.54,0,0,1-8,4,3.83,3.83,0,0,1-2.24-3.84c0-3.11-.05-6.22,0-9.33,0-1.1-.32-1.38-1.37-1.36-.59,0-1.59.62-1.79-.5s.91-.72,1.41-1,1.11-.4,1.44-.95a.49.49,0,0,1,.48-.53,7.07,7.07,0,0,0,1.61-3.77c.12-.54-.24-1.44.79-1.4,1.2,0,.57,1,.64,1.55.18,1.63-.22,3.3.21,4.93,1.58,0,3.15,0,4.72,0,.63,0,1.13.11,1.12,1s-.5.91-1.14.93c-1.56,0-3.13-.09-4.69,0v0a22.76,22.76,0,0,0-.13,4.67A48.54,48.54,0,0,0,384.19,154.1Z" transform="translate(0 0)"/><path class="cls-24" d="M424.09,191.61a6.53,6.53,0,0,1-2.65.94c-3.14.2-4.89-1.36-4.92-4.52s0-6.51,0-9.76c0-1.05-.32-1.41-1.32-1.26-.31,0-.63,0-1,0s-.71-.09-.72-.59.06-.71.51-.83c3.06-.87,3.76-3.35,4.12-6.06.07-.51-.07-1.19.79-1.13s.53.72.54,1.15c0,1.58.05,3.17,0,4.75,0,.77.24,1,1,1,1.18,0,2.36,0,3.53,0,.67,0,1,.16,1,.91s-.32.83-.92.81c-1.17,0-2.35,0-3.52,0-.73,0-1.07.15-1.06,1,.05,3.35,0,6.7.05,10,0,1.68.75,2.6,2,2.81a2.71,2.71,0,0,0,2.85-2,12.93,12.93,0,0,0,.47-1.83c.09-.48,0-1.11.76-1s.45.79.39,1.19c-.12.89-.37,1.76-.56,2.63h0l-.88,1.33A.46.46,0,0,1,424.09,191.61Z" transform="translate(0 0)"/><path class="cls-24" d="M258.82,135a.8.8,0,0,1,1-.46c.5.14.36.57.37.9,0,1.58,0,3.17,0,4.75,0,.81.21,1.13,1.06,1.08,1.13-.06,2.26,0,3.39,0,.6,0,1.17-.11,1.16.84s-.57.76-1.1.76c-1.18,0-2.35,0-3.53,0-.79,0-1,.28-1,1,0,3.12,0,6.23,0,9.35,0,1.81.77,2.87,2.06,3.07s2.62-.79,3.11-2.47a12.53,12.53,0,0,0,.31-1.73c.07-.45.34-.59.76-.56s.48.32.46.67c-.15,3.22-2,6-5.71,5.78a3.91,3.91,0,0,1-4-4.17c-.05-3.2-.06-6.41,0-9.62,0-1.07-.26-1.52-1.35-1.34a3.66,3.66,0,0,1-.81,0c-.34,0-.76.1-.83-.45a.73.73,0,0,1,.58-.9c3-.88,3.84-3.26,4-6.05C258.61,135.33,258.63,135.18,258.82,135Z" transform="translate(0 0)"/><path class="cls-24" d="M372.13,148.72c0,2,0,4.07,0,6.11,0,1.5.32,1.8,1.84,1.84.36,0,.72,0,1.09,0s.59.29.59.7-.14.59-.55.59h-9.23c-.49,0-.59-.29-.59-.71s.18-.58.57-.58H366c2.87-.34,2.87-.34,2.87-3.2,0-2.57,0-5.15,0-7.73,0-2.18-.53-2.71-2.71-2.8h-.68c-.45,0-.65-.19-.64-.65a.58.58,0,0,1,.65-.66l6-.16c.82,0,.68.54.68,1Z" transform="translate(0 0)"/><path class="cls-29" d="M127,193.39h71.71v.14H127Z" transform="translate(0 0)"/><path class="cls-30" d="M232.45,190.34c-.46-.38-.32-.91-.32-1.38q0-10,0-20c0-.6-.16-1.29.52-1.7l1.24.08c-1.23.36-1.19,1-1.19,1.71q0,10.35,0,20.68C232.75,190,232.82,190.26,232.45,190.34Z" transform="translate(0 0)"/><path class="cls-31" d="M368.5,132.33a3.31,3.31,0,0,1,2.39-.31.76.76,0,0,1,.73.54c.6.94.76,1.86-.21,2.65a2.13,2.13,0,0,1-2.85.07c-1.05-.79-.92-1.75-.3-2.74A.26.26,0,0,1,368.5,132.33Z" transform="translate(0 0)"/><path class="cls-32" d="M227.82,168.62a1.13,1.13,0,0,1,.31-.87c.33.06.23.33.23.52q0,10.33,0,20.66c0,.39.11.82-.2,1.16-.48-.42-.32-1-.32-1.52q0-8.12,0-16.22A16,16,0,0,1,227.82,168.62Z" transform="translate(0 0)"/><path class="cls-33" d="M423.27,156.42a.45.45,0,0,1-.49-.34v-24H423v21.84c0,2.12,0,2.12,2.13,2.2a.54.54,0,0,1,.5.28Z" transform="translate(0 0)"/><path class="cls-34" d="M192,155.9c0,.17-.09.24-.25.25h-3.47v-.29h1.59c1.81,0,1.84,0,1.84-1.79q0-9.07,0-18.15v-1.34H192Z" transform="translate(0 0)"/><path class="cls-35" d="M238.45,156.12a.83.83,0,0,1-.56-.84,52.78,52.78,0,0,1,.16-8.34,4.2,4.2,0,0,1,.35-.86c.59.63,0,1.27,0,1.91,0,2.29,0,4.58,0,6.86,0,1.5,1.33.78,2.43,1.27Z" transform="translate(0 0)"/><path class="cls-34" d="M206.92,167.81a1.26,1.26,0,0,1,.26,1v18.31a.42.42,0,0,1-.26.38v-19.7Z" transform="translate(0 0)"/><path class="cls-1" d="M423.53,136.44v17.95h-.14V136.48Z" transform="translate(0 0)"/><path class="cls-36" d="M345.11,144.26c.33.33.24.76.24,1.15q0,8.09,0,16.19c0,.34.11.73-.23,1Q345.11,153.42,345.11,144.26Z" transform="translate(0 0)"/><path class="cls-37" d="M384.24,143.38a26.14,26.14,0,0,1,4.68-.15c.56,0,1.05.05,1.05-.81s-.53-.74-1.07-.78c-1.55-.09-3.12.23-4.67-.17l.23-.07a.49.49,0,0,1,.3-.19H388c2.17,0,2.21,0,2.19,2.18a29.2,29.2,0,0,1-5.37.06Z" transform="translate(0 0)"/><path class="cls-38" d="M338.62,156.44c-1.17.56-1.94.28-2.23-1V144.88h.31v4.85c0,1.22.06,2.44,0,3.65C336.59,154.9,336.75,156.19,338.62,156.44Z" transform="translate(0 0)"/><ellipse class="cls-39" cx="195.79" cy="131.3" rx="10.58" ry="0.09"/><path class="cls-40" d="M196.3,155.45c-.4-2.91-.07-5.83-.18-8.75,0-.68.47-.63.93-.63h5.26c-.91.61-1.93.27-2.89.28-3.08.06-3.08,0-3.08,3.17C196.33,151.49,196.31,153.47,196.3,155.45Z" transform="translate(0 0)"/><path class="cls-41" d="M188.4,158.1h12.14v.12H188.28Z" transform="translate(0 0)"/><path class="cls-42" d="M368.19,190.34c-.08-3.86.24-7.73-.27-12a5.16,5.16,0,0,1,.55,2.27q0,4.6.06,9.21a.39.39,0,0,1-.34.47Z" transform="translate(0 0)"/><path class="cls-43" d="M224.73,192.6h11.13v.13H224.7Z" transform="translate(0 0)"/><path class="cls-44" d="M343.53,178.27a80.57,80.57,0,0,1,0,11.73C343.5,186.09,343.51,182.18,343.53,178.27Z" transform="translate(0 0)"/><path class="cls-45" d="M260.68,134.78c0,1.57,0,3.14,0,4.7,0,.88.28,1.23,1.17,1.19a12.3,12.3,0,0,1,3.36.25h-4a.67.67,0,0,1-.75-.75v-5.39Z" transform="translate(0 0)"/><path class="cls-46" d="M234.64,144.1a10.34,10.34,0,0,1,.19,3.46c0,2.24,0,4.47,0,6.71,0,.42.18.9-.22,1.26Z" transform="translate(0 0)"/><path class="cls-1" d="M384.76,141.21l-.3.19c-.53-1.86-.08-3.73,0-5.61a11.71,11.71,0,0,1,.28,4.25C384.68,140.44,384.52,140.82,384.76,141.21Z" transform="translate(0 0)"/><path class="cls-43" d="M213,192.81h-9.66v-.14H213Z" transform="translate(0 0)"/><path class="cls-47" d="M276.66,189.9a34.48,34.48,0,0,1-.16-5.66,41.78,41.78,0,0,0-.17-5c.44.25.38.69.38,1.08C276.7,183.51,276.68,186.71,276.66,189.9Z" transform="translate(0 0)"/><path class="cls-37" d="M384.19,154.1a64.79,64.79,0,0,1,0-10.7Q384.2,148.74,384.19,154.1Z" transform="translate(0 0)"/><path class="cls-41" d="M232,158.11h8.44v.13h-8.44Z" transform="translate(0 0)"/><ellipse class="cls-41" cx="248.02" cy="158.17" rx="5.76" ry="0.07"/><path class="cls-48" d="M265.49,190.38a.43.43,0,0,1-.23-.51v-7.28h.31c0,1.9.05,3.81,0,5.72C265.51,189,266,189.71,265.49,190.38Z" transform="translate(0 0)"/><path class="cls-1" d="M352.55,192.58h7.09v.12h-7.09Z" transform="translate(0 0)"/><path class="cls-49" d="M397.48,189.65a40.45,40.45,0,0,1,0-7.3Z" transform="translate(0 0)"/><path class="cls-1" d="M348.93,144.22c-.19.44-.42.48-.5,0a11.42,11.42,0,0,1-.09-1.55c.35-.88.52,0,.76.08s.6.3.22.66A1.13,1.13,0,0,0,348.93,144.22Z" transform="translate(0 0)"/><path class="cls-13" d="M384.82,143.44l5.37-.06A12.63,12.63,0,0,1,384.82,143.44Z" transform="translate(0 0)"/><path class="cls-1" d="M286.16,193.15h3.19v.14h-3.2Z" transform="translate(0 0)"/><path class="cls-36" d="M344.42,163.23c-.39.3-.86.19-1.3.25s-.78-.2-.95.28a.76.76,0,0,0,.38,1c-.75,0-.72-.53-.66-1s.5-.56.92-.56Z" transform="translate(0 0)"/><path class="cls-1" d="M384.74,192.18l1.28-.8c.57.55-.06.7-.33.77S385.05,193.05,384.74,192.18Z" transform="translate(0 0)"/><path class="cls-1" d="M252.83,192.74c.67.66,1.55.1,2.66.54a24.74,24.74,0,0,1-2.64,0c-.48-.06-.5-.34,0-.51Z" transform="translate(0 0)"/><path class="cls-1" d="M401.16,140.74h2.71v.09h-2.71Z" transform="translate(0 0)"/><path class="cls-1" d="M284.66,192.47l1,.29c-.46.78-1,.13-1.44,0C284.12,192.74,284.48,192.55,284.66,192.47Z" transform="translate(0 0)"/><path class="cls-1" d="M218.08,141.27l-1.05.51c-.5-.45,0-.57.25-.77C217.67,140.67,217.9,140.89,218.08,141.27Z" transform="translate(0 0)"/><path class="cls-1" d="M150.19,152.65a1.33,1.33,0,0,1-.48.8c-.55-.44,0-.79.1-1.17,0-.11.16-.27.27-.14S150.16,152.48,150.19,152.65Z" transform="translate(0 0)"/><path class="cls-1" d="M368.5,132.33l-.24.21c-.4-.64-.19-.86,1-1C369,131.83,368.53,131.88,368.5,132.33Z" transform="translate(0 0)"/><path class="cls-1" d="M214.82,143.7a1.33,1.33,0,0,1-.56.76c-.3-.06-.56-.19-.27-.51S214.38,143.22,214.82,143.7Z" transform="translate(0 0)"/><path class="cls-1" d="M311.29,200h-2.18v-.14h2.22Z" transform="translate(0 0)"/><path class="cls-1" d="M234.41,140.88h-1.85A2.25,2.25,0,0,1,234.41,140.88Z" transform="translate(0 0)"/><path class="cls-1" d="M231.92,143.13c.54-.4.91-.27,1.44-.26A1,1,0,0,1,231.92,143.13Z" transform="translate(0 0)"/><path class="cls-1" d="M175.08,151.82l-.25-.46-.08-.91C175,150.87,175.64,151.21,175.08,151.82Z" transform="translate(0 0)"/><path class="cls-1" d="M162.44,131.53a.46.46,0,0,1-.25.46c-.2,0-.47.18-.54-.13s.21-.46.42-.61S162.37,131.36,162.44,131.53Z" transform="translate(0 0)"/><path class="cls-1" d="M382.79,134.59c.45-.41.78-.56,1.25-.11C383.67,134.79,383.3,134.69,382.79,134.59Z" transform="translate(0 0)"/><path class="cls-1" d="M381,140.16a.68.68,0,0,1-.48.53c-.22-.08-.63-.09-.39-.46S380.66,139.77,381,140.16Z" transform="translate(0 0)"/><path class="cls-1" d="M225,141.78a.51.51,0,0,1-.49-.26c.36-.36.82-.52,1.06,0C225.76,141.8,225.25,141.69,225,141.78Z" transform="translate(0 0)"/><path class="cls-1" d="M317.12,197.32l.47-.51c.47.33.26.63-.07.84S317.17,197.53,317.12,197.32Z" transform="translate(0 0)"/><path class="cls-1" d="M375,156.35h-1.26l0-.18,1.33-.09Z" transform="translate(0 0)"/><path class="cls-13" d="M385.31,154.8c.18,0,.38,0,.4.26s-.11.37-.3.33a.61.61,0,0,1-.39-.31C384.93,154.85,385.13,154.81,385.31,154.8Z" transform="translate(0 0)"/><path class="cls-13" d="M388.23,155.13c.1-.55.19-1,.3-1.63C388.76,154.33,388.76,154.33,388.23,155.13Z" transform="translate(0 0)"/><path class="cls-13" d="M384.85,152.28c.26.4.49.71.21,1.16C384.53,153.15,384.81,152.74,384.85,152.28Z" transform="translate(0 0)"/><path class="cls-1" d="M216.18,142.36a1.8,1.8,0,0,1-.85.74C215.24,142.43,215.42,142.07,216.18,142.36Z" transform="translate(0 0)"/><path class="cls-1" d="M248.18,192l.44-.3c.22.07.62.09.29.44S248.31,192.58,248.18,192Z" transform="translate(0 0)"/><path class="cls-1" d="M258.82,135l0,.46a3.41,3.41,0,0,1-.41.24.7.7,0,0,1,.19-1C258.75,134.6,258.76,134.91,258.82,135Z" transform="translate(0 0)"/><path class="cls-1" d="M164.82,134.15l-.29-.48c.06-.13,0-.45.26-.29a1.18,1.18,0,0,1,.45.73C165.26,134.32,165,134.17,164.82,134.15Z" transform="translate(0 0)"/><path class="cls-1" d="M371.62,132.56l-.73-.54a.39.39,0,0,1,.65-.07C371.73,132.12,372,132.31,371.62,132.56Z" transform="translate(0 0)"/><path class="cls-1" d="M394.75,147.08a2.16,2.16,0,0,1-.15-1.46C395,146,394.77,146.4,394.75,147.08Z" transform="translate(0 0)"/><path class="cls-1" d="M161.06,133.93l-.29.49c-.27-.24-.38-.55-.08-.78S161,133.75,161.06,133.93Z" transform="translate(0 0)"/><path class="cls-1" d="M383.06,192.74c.28.13.7-.14.87.29,0,0-.07.15-.14.18-.46.19-.6-.13-.72-.48Z" transform="translate(0 0)"/><path class="cls-1" d="M424.09,191.61a.78.78,0,0,1,.51-.49c.21.15.32.35.14.56S424.28,191.89,424.09,191.61Z" transform="translate(0 0)"/><path class="cls-1" d="M246.49,193.12a2.27,2.27,0,0,1-1.48.14C245.4,192.9,245.78,193.1,246.49,193.12Z" transform="translate(0 0)"/><path class="cls-1" d="M304.47,198.45l.48.27c-.23.26-.54.46-.8.18S304.3,198.56,304.47,198.45Z" transform="translate(0 0)"/><path class="cls-1" d="M238.19,144a.69.69,0,0,1-.1-1c.39.39,0,.72.09,1Z" transform="translate(0 0)"/><path class="cls-1" d="M351.92,141.79a.53.53,0,0,1-.51.25c-.12-.07-.45,0-.26-.27A.44.44,0,0,1,351.92,141.79Z" transform="translate(0 0)"/><path class="cls-1" d="M221.23,140.66c.46-.42.78-.21,1.25-.27C222,140.8,221.7,140.59,221.23,140.66Z" transform="translate(0 0)"/><path class="cls-1" d="M204.71,132c0-.26-.14-.56.3-.56.1,0,.31.13.3.17-.06.33-.37.32-.62.39Z" transform="translate(0 0)"/><path class="cls-40" d="M202.43,146.06a3.69,3.69,0,0,1,1.77-.22C203.66,146.27,203,146.05,202.43,146.06Z" transform="translate(0 0)"/><path class="cls-1" d="M382.2,136a1,1,0,0,1,0-1A1,1,0,0,1,382.2,136Z" transform="translate(0 0)"/><path class="cls-36" d="M342.15,142.77c.52.11,1.11-.07,1.57.33C343.19,143,342.58,143.33,342.15,142.77Z" transform="translate(0 0)"/><path class="cls-1" d="M244.6,141c.39-.37.84-.38,1.61-.12l-1.61.12Z" transform="translate(0 0)"/><path class="cls-1" d="M307.71,199.52c-.09.24-.14.52-.49.51-.14,0-.26-.1-.18-.25s.44-.19.68-.26Z" transform="translate(0 0)"/><path class="cls-1" d="M425.48,189.79c.25-.07.53-.18.49.26,0,.11-.13.3-.2.3-.42,0-.22-.36-.29-.56Z" transform="translate(0 0)"/><path class="cls-1" d="M231.38,142.1l-.27.22c-.07-.1-.19-.2-.19-.3s.09-.35.3-.28S231.32,142,231.38,142.1Z" transform="translate(0 0)"/><path class="cls-1" d="M226.75,143.08c0-.23.09-.46.4-.38.07,0,.17.14.16.18-.08.31-.35.18-.55.21Z" transform="translate(0 0)"/><path class="cls-1" d="M169.12,141.57l-.09-1c.52.42.4.73.1,1.06Z" transform="translate(0 0)"/><path class="cls-1" d="M210.68,139.56l0-.26c.2-.05.43-.19.52.12,0,.11,0,.31,0,.36C210.94,140,210.87,139.6,210.68,139.56Z" transform="translate(0 0)"/><path class="cls-1" d="M158.08,139.05c-.17,0-.46.24-.46-.16,0-.13.23-.38.27-.36.25.09.13.35.18.54Z" transform="translate(0 0)"/><path class="cls-1" d="M158.89,137.69c-.27-.06-.54-.13-.5-.49,0,0,.07-.1.09-.1.36.05.34.36.4.61Z" transform="translate(0 0)"/><path class="cls-1" d="M137.17,174.88c-.2,0-.45.21-.51-.16a.27.27,0,0,1,.11-.21c.33-.08.33.19.39.39Z" transform="translate(0 0)"/><path class="cls-1" d="M243.75,193.31a3.94,3.94,0,0,1-.6,0c-.11,0-.1-.16,0-.17a4,4,0,0,1,.6,0Z" transform="translate(0 0)"/><path class="cls-1" d="M152.08,149.36l-.17.3a.44.44,0,0,1,0-.76C152.16,148.8,152,149.2,152.08,149.36Z" transform="translate(0 0)"/><path class="cls-1" d="M426.42,157c.22.14.21.36.21.58,0,0-.19.05-.21,0A.47.47,0,0,1,426.42,157Z" transform="translate(0 0)"/><path class="cls-1" d="M380.91,193.18c-.2.23-.44.14-.68.08C380.43,192.94,380.66,193,380.91,193.18Z" transform="translate(0 0)"/><path class="cls-1" d="M381.57,193.1h.92C382.32,193.47,382.07,193.33,381.57,193.1Z" transform="translate(0 0)"/><path class="cls-1" d="M318.93,193.9a.67.67,0,0,1,0,.78C318.76,194.38,318.7,194.15,318.93,193.9Z" transform="translate(0 0)"/><path class="cls-13" d="M391.25,151.89H390A.74.74,0,0,1,391.25,151.89Z" transform="translate(0 0)"/><path class="cls-1" d="M416.29,131.76a1.43,1.43,0,0,1-.35.06s-.08-.2-.06-.2a1.85,1.85,0,0,1,.33-.12Z" transform="translate(0 0)"/><path class="cls-13" d="M390,151.82l-.33,1.44C389.71,152.76,389.45,152.19,390,151.82Z" transform="translate(0 0)"/><path class="cls-1" d="M141.54,167.35c-.28-.28-.44-.57,0-1v1Z" transform="translate(0 0)"/><path class="cls-1" d="M249.82,190.62l.28-.27c.23.2.27.44,0,.57S249.85,190.77,249.82,190.62Z" transform="translate(0 0)"/><path class="cls-34" d="M206.92,167.81l-1.07-.5,1.09-.06h0v.56Z" transform="translate(0 0)"/><path class="cls-1" d="M138.56,172.48c-.21,0-.49.13-.61,0s.06-.32.21-.37c.33-.14.32.16.39.35Z" transform="translate(0 0)"/><path class="cls-13" d="M388.4,155.15a3.17,3.17,0,0,1-.57.25s-.18-.18-.17-.26.21-.24.39-.18A2.78,2.78,0,0,1,388.4,155.15Z" transform="translate(0 0)"/><path class="cls-1" d="M318,196.28l.28-.51a.55.55,0,0,1,0,.71Z" transform="translate(0 0)"/><path class="cls-13" d="M176.59,165.4q-2.76,4.89-5.53,9.79-3.69,6.48-7.42,12.95c-.28.49-.52,1.54-1.27.23q-6.44-11.31-12.94-22.6a2.35,2.35,0,0,1-.14-.37c.15-1,.92-.84,1.58-.85h24.27C175.79,164.55,176.46,164.52,176.59,165.4Z" transform="translate(0 0)"/><path class="cls-13" d="M162.91,149.94c2,0,4,0,6,0,.8,0,1.13.1.59.94-2,3.2-4,6.42-6,9.65-.41.66-.67.73-1.1,0q-3-4.85-6-9.66c-.52-.83-.22-1,.6-1C158.94,150,160.93,149.94,162.91,149.94Z" transform="translate(0 0)"/><path class="cls-13" d="M179.84,190l-6.85-11c.34-.49.73-.33,1.06-.33,3.88,0,7.76,0,11.64,0,.91,0,1.43,0,.71,1.11-2,3.14-4,6.34-6,9.52C180.3,189.42,180.12,189.61,179.84,190Z" transform="translate(0 0)"/><path class="cls-13" d="M146,178.54c1.94,0,3.88,0,5.82,0,.81,0,1.26,0,.65,1q-3,4.72-6,9.52c-.4.65-.63.95-1.16.09q-3-4.86-6-9.65c-.53-.83-.25-1,.57-1C141.92,178.56,144,178.54,146,178.54Z" transform="translate(0 0)"/><path class="cls-13" d="M162.87,137.09l6.2,10.65c.43.73.06.81-.57.81-3.75,0-7.5,0-11.25,0-.56,0-1.07,0-.6-.78C158.68,144.3,160.69,140.83,162.87,137.09Z" transform="translate(0 0)"/><path class="cls-13" d="M146,177.1c-1.8,0-3.61,0-5.42,0-.84,0-.93-.27-.53-.95q2.79-4.72,5.55-9.46c.35-.61.63-.69,1,0q2.73,4.76,5.5,9.5c.41.71.26,1-.55.94C149.73,177.08,147.88,177.1,146,177.1Z" transform="translate(0 0)"/><path class="cls-13" d="M179.76,177.14c-1.81,0-3.62,0-5.43,0-.75,0-1-.16-.58-.92q2.73-4.68,5.42-9.39c.35-.6.6-.71,1,0,1.84,3.17,3.7,6.32,5.55,9.48.37.63.22.87-.53.86C183.37,177.12,181.57,177.14,179.76,177.14Z" transform="translate(0 0)"/><path class="cls-50" d="M172,190c-1.71,0-3.43,0-5.14,0-.73,0-.9-.22-.52-.86q2.53-4.39,5-8.79c.28-.49.54-.55.86,0,1.82,3,3.66,5.9,5.48,8.85.45.72,0,.83-.59.83Z" transform="translate(0 0)"/><path class="cls-13" d="M154.92,161.4c-1.71,0-3.43,0-5.15,0-.78,0-1-.2-.57-.93q2.55-4.32,5.07-8.66c.34-.58.61-.72,1,0q2.73,4.44,5.52,8.86c.41.65.13.77-.47.77h-5.43Z" transform="translate(0 0)"/><path class="cls-13" d="M170.78,161.41c-1.72,0-3.43,0-5.15,0-.72,0-1.07-.09-.56-.89q2.67-4.23,5.29-8.51c.39-.61.69-.92,1.18,0,1.63,2.87,3.3,5.71,5,8.55.44.76.16.92-.59.91C174.22,161.39,172.5,161.41,170.78,161.41Z" transform="translate(0 0)"/><path class="cls-13" d="M147.61,189.9,154,179.56l5.51,9.59c.27.47.24.76-.4.76Z" transform="translate(0 0)"/><path class="cls-50" d="M138.11,190c-1.67,0-3.35,0-5,0-.79,0-1-.22-.57-.94q2.46-4.14,4.86-8.31c.51-.88.8-.55,1.19.08q2.53,4.08,5.11,8.15c.46.72.38,1-.55,1C141.46,190,139.78,190,138.11,190Z" transform="translate(0 0)"/><path class="cls-50" d="M187.54,190c-1.58,0-3.16,0-4.74,0-.88,0-1.21-.11-.64-1,1.73-2.7,3.42-5.43,5.1-8.15.39-.65.66-.78,1.09,0q2.35,4.11,4.78,8.18c.45.75.32,1-.58,1C190.88,190,189.21,190,187.54,190Z" transform="translate(0 0)"/><path class="cls-51" d="M176.59,165.4a2.06,2.06,0,0,0-1.59-.59q-12.06,0-24.13,0a2,2,0,0,0-1.58.59c-.27-.25-.59-.55-.44-.91s.64-.21,1-.21h26.27c.33,0,.8-.2,1,.22S176.86,165.16,176.59,165.4Z" transform="translate(0 0)"/><path class="cls-13" d="M202.79,133.33a4,4,0,0,1,3.56,3.95c.14,2.36.45,4.85-2,6.4a12.85,12.85,0,0,0-1.2.53,1,1,0,0,1-1,.28c-1.75.23-3.5,0-5.26.1-.42,0-.68-.13-.68-.6,0-3.11,0-6.22,0-9.33a5.84,5.84,0,0,1,.34-1.16l.23-.2A24.5,24.5,0,0,1,202.79,133.33Z" transform="translate(0 0)"/><path class="cls-52" d="M196.57,133.5c-.45,3.23-.13,6.47-.24,9.71,0,.91.25,1.3,1.22,1.26,1.53-.05,3.06,0,4.59,0-1.8.51-3.65.21-5.48.28-.5,0-.54-.36-.54-.75,0-3.14,0-6.28,0-9.43A1.26,1.26,0,0,1,196.57,133.5Z" transform="translate(0 0)"/><path class="cls-52" d="M202.79,133.33l-6,0A10.36,10.36,0,0,1,202.79,133.33Z" transform="translate(0 0)"/><path class="cls-52" d="M203.11,144.21a1.39,1.39,0,0,1,1.2-.53A1.4,1.4,0,0,1,203.11,144.21Z" transform="translate(0 0)"/><path class="cls-13" d="M358.29,149.78a11.58,11.58,0,0,1-.6,4c-.76,2-2,3-3.84,3.09a4.62,4.62,0,0,1-4.52-2.87,10.64,10.64,0,0,1,.1-8.18,4.66,4.66,0,0,1,4.63-2.91c1.84.16,3.15,1.38,3.81,3.53A12,12,0,0,1,358.29,149.78Z" transform="translate(0 0)"/><path class="cls-13" d="M313.92,180.76c-.06,2.78-1.42,4.52-3.58,4.58s-3.69-1.7-3.79-4.52,1.26-4.71,3.43-4.83C312.37,175.85,314,177.81,313.92,180.76Z" transform="translate(0 0)"/><path class="cls-13" d="M310.55,198.42a9.6,9.6,0,0,1-3.83-.7,2.36,2.36,0,0,1-.3-4.32,6.1,6.1,0,0,1,2.94-.93,16.4,16.4,0,0,1,4.2.05c1.66.25,2.73,1.09,2.82,2.3.11,1.52-.95,2.25-2.11,2.84a4.83,4.83,0,0,1-1.28.43C312.14,198.24,311.28,198.32,310.55,198.42Z" transform="translate(0 0)"/><path class="cls-13" d="M406.23,151.16c-.05,3.29-1.9,5.48-5,5.88-1.61.22-2.79-.31-3.31-1.48a3.51,3.51,0,0,1,1.11-4.13,10.93,10.93,0,0,1,4.38-1.67c.31-.06.62-.13.93-.18C406.63,149.16,406.18,149.21,406.23,151.16Z" transform="translate(0 0)"/><path class="cls-50" d="M332.94,151.12c0,3.24-1.85,5.47-4.8,5.9-1.82.27-3.09-.32-3.58-1.67a3.47,3.47,0,0,1,1.5-4.12,8.6,8.6,0,0,1,2.61-1.11c.83-.2,1.66-.4,2.5-.55C333,149.24,333,149.25,332.94,151.12Z" transform="translate(0 0)"/><path class="cls-50" d="M293.42,185.24c0,2.49-.81,4.51-3.11,5.71-1.64.86-3.36.62-4.2-.52a3.84,3.84,0,0,1,.54-4.72c1.77-1.57,4-1.9,6.26-2.27.46-.07.51.24.51.58S293.42,184.83,293.42,185.24Z" transform="translate(0 0)"/><path class="cls-50" d="M250.38,185.31c0,3-1.37,5.14-3.68,5.86-1.74.56-3,.25-3.77-.89a3.86,3.86,0,0,1,.4-4.32c1.79-1.84,4.22-2.11,6.58-2.51.35-.06.47.19.47.5S250.38,184.85,250.38,185.31Z" transform="translate(0 0)"/><path class="cls-13" d="M225.74,149a14.25,14.25,0,0,1-.59,4.82,4.38,4.38,0,0,1-4.1,3.2,4.17,4.17,0,0,1-4.05-3,14,14,0,0,1,0-8.81,4.23,4.23,0,0,1,4.15-3.12,4.41,4.41,0,0,1,4.14,3.33A12,12,0,0,1,225.74,149Z" transform="translate(0 0)"/><path class="cls-50" d="M329.53,182.65c-.95,0-1.9-.06-2.84,0s-1.07-.3-1-1.1a7.83,7.83,0,0,1,1.3-3.93,3.71,3.71,0,0,1,6.28,0,5,5,0,0,1,1,3.31c0,1.14-.54,1.76-1.75,1.71C331.52,182.62,330.52,182.65,329.53,182.65Z" transform="translate(0 0)"/><path class="cls-50" d="M380.65,182.65a22.1,22.1,0,0,0-2.7,0c-1.2.14-1.36-.41-1.21-1.4a7.73,7.73,0,0,1,1.3-3.66,3.72,3.72,0,0,1,6.29,0,4.9,4.9,0,0,1,1,2.9c0,1.63-.42,2.07-2.07,2.09Z" transform="translate(0 0)"/></svg>