<?xml version="1.0" encoding="utf-8"?>
<!-- Generator: Adobe Illustrator 26.0.0, SVG Export Plug-In . SVG Version: 6.00 Build 0)  -->
<svg version="1.1" id="Calque_1" xmlns="http://www.w3.org/2000/svg" xmlns:xlink="http://www.w3.org/1999/xlink" x="0px" y="0px"
	 viewBox="0 0 621.5 228.9" style="enable-background:new 0 0 621.5 228.9;" xml:space="preserve">
<style type="text/css">
	.st0{fill:#7C7D81;}
	.st1{fill:none;}
	.st2{enable-background:new    ;}
	.st3{stroke:#000000;stroke-miterlimit:10;}
	.st4{font-family:'TimesNewRomanPS-BoldMT';}
	.st5{font-size:70px;}
	.st6{fill:#04005A;stroke:#000000;stroke-miterlimit:10;}
</style>
<g>
	<path class="st0" d="M6.6,209.2c0.7-0.8,1.2-1.7,1.6-2.7c0.4-0.9,0.9-1.8,1.5-2.7c0.5-0.8,0.8-1.6,1.4-2.4c0.6-0.8,1-1.8,1.5-2.7
		s0.9-1.8,1.4-2.6c0.8-1.2,1.5-2.4,2.2-3.7c0.7-1.5,1.6-2.9,2.4-4.3c0.7-1.2,1.4-2.4,2.1-3.5c0.1-0.2,0.3-0.4,0.3-0.6
		c0.2-1,0.9-1.7,1.4-2.6c0.5-0.8,0.9-1.7,1.4-2.5c0.7-1.1,1.2-2.3,1.8-3.4c1.1-1.8,2-3.7,3.2-5.4c0.2-0.4,0.4-0.8,0.6-1.2
		c0.4-1,0.9-1.8,1.5-2.7c0.5-0.9,1.1-1.8,1.6-2.6c0.7-1.2,1.4-2.5,2.1-3.8c0.5-1,1-1.9,1.6-2.9c0.5-0.8,0.9-1.6,1.3-2.4
		c0.8-1.4,1.6-2.9,2.3-4.3c0.8-1.3,1.6-2.7,2.3-4c0.4-0.8,0.7-1.8,1.3-2.5s0.9-1.6,1.3-2.4c0.7-1.1,1.4-2.3,2.1-3.4
		c0.1-0.2,0.2-0.5,0.3-0.7c0.5-0.9,0.9-1.8,1.5-2.7c0.5-0.9,1.1-1.8,1.6-2.8c0.5-0.9,1-1.8,1.4-2.7c0.5-0.9,1.1-1.7,1.6-2.6
		c0.5-0.8,0.9-1.6,1.3-2.4c1.1-2,2-4.1,3.3-5.9c0.6-0.8,1-1.8,1.5-2.7c0.9-1.8,1.9-3.5,3-5.2c0.7-1.1,1.2-2.3,1.9-3.3
		c0.4-1.8,1.7-3.2,2.5-4.8s1.7-3.2,2.6-4.8c0.7-1.2,1.5-2.3,2-3.5c0.4-0.9,1.2-1.6,1.4-2.7c0.5-0.5,0.6-1.1,1-1.7
		c1.1-1.7,1.9-3.5,3.1-5.2c0.1-0.1,0.2-0.3,0.2-0.5c0.1-1,0.9-1.7,1.3-2.5c0.4-0.7,0.8-1.4,1.2-2.1c0.5-0.9,1.1-1.8,1.6-2.6
		c0.1-0.2,0.2-0.5,0.3-0.7c0.5-0.9,0.9-1.8,1.5-2.7c0.5-0.8,0.8-1.6,1.4-2.4c0.9-1.2,1.4-2.6,2.1-3.9c0.5-0.9,1.1-1.7,1.5-2.6
		s0.9-1.8,1.6-2.6c0.2-0.2,0.3-0.6,0.4-0.9c0.6-1.4,1.4-2.6,2.1-3.9c0.4-0.7,0.7-1.4,1.1-2.1c0.5-0.8,0.9-1.5,1.2-2.4
		c0.2-0.6,0.6-1.1,0.9-1.7c1-1.7,2-3.4,3-5.1c0.1-0.2,0.1-0.5,0.3-0.7c0.4-0.7,0.7-1.5,1.1-2.1c0.7-0.9,1-2,1.7-3
		c0.6-0.8,1-1.8,1.5-2.7s0.9-1.8,1.4-2.6c0.8-1.1,1.5-2.3,2.1-3.5c0.7-1.2,1.3-2.5,2-3.7c0.5-0.9,1.1-1.8,1.6-2.8s1.2-1.7,1.4-2.8
		c0.1-0.6,0.6-1.1,1-1.7c0.7-1.1,1.2-2.2,1.9-3.2c0.5-0.7,1-1.4,1.3-2.2c0.2-0.6,0.6-1.2,0.9-1.8s0.7-1.2,1.1-1.9
		c0.1-0.1,0.1-0.3,0.1-0.4c0.2,0,0.3,0,0.5,0c0,0.1,0,0.3,0.1,0.4c0.6,0.8,0.9,1.8,1.5,2.5c0.1,0.1,0.2,0.3,0.3,0.5
		c0.2,1,0.9,1.7,1.4,2.6c0.4,0.7,0.7,1.4,1.1,2.1c0.6,1,1.3,2,1.8,3c0.3,0.6,0.6,1.1,0.9,1.7c0.9,1.5,1.7,3.1,2.6,4.5
		c0.5,0.7,0.8,1.6,1.2,2.4c0.7,1.3,1.3,2.5,2.1,3.8c0.2,0.4,0.5,0.8,0.7,1.2s0.4,0.8,0.7,1.2c0.8,1.3,1.4,2.7,2.2,4
		c0.9,1.3,1.5,2.7,2.4,4c0.3,0.5,0.5,1.2,0.8,1.7c0.9,1.4,1.6,3,2.6,4.4c0.2,1,1.2,1.6,1.2,2.6c0.5,0.5,0.6,1.1,1,1.7
		c1,1.7,2,3.4,3,5.1c0.1,0.2,0.1,0.5,0.3,0.7c0.5,0.9,1,1.8,1.5,2.7c0.5,0.8,1,1.6,1.5,2.4c0.2,0.4,0.4,0.8,0.6,1.1
		c0.4,0.6,0.7,1.3,1,1.9c0.4,0.9,1.1,1.7,1.6,2.6c0.4,0.6,0.7,1.3,1.1,1.9c0.7,1.2,1.3,2.5,2,3.8c0.3,0.5,0.6,1,1,1.5
		c0.8,1.3,1.4,2.8,2.4,4c0,0,0,0.1,0.1,0.2c0.7,1.7,1.7,3.2,2.6,4.8c0.6,1,1.1,2,1.7,2.9c0.2,0.3,0.2,0.7,0.4,1
		c0.4,0.7,0.7,1.5,1.1,2.1c0.7,1,1.2,2.1,1.9,3.1c0.3,0.4,0.5,0.9,0.8,1.3c0.5,0.8,0.7,1.7,1.3,2.5s0.9,1.6,1.4,2.5s1,1.7,1.5,2.5
		c0.7,1.3,1.4,2.7,2.2,4c0.9,1.3,1.4,2.8,2.4,4c0.1,0.1,0.2,0.3,0.2,0.5c0.1,1,0.9,1.7,1.3,2.5c0.4,0.7,0.8,1.4,1.2,2.1
		c0.5,0.9,1,1.9,1.7,2.7c0.1,0.1,0.1,0.3,0.2,0.4c0.3,1.1,1.1,2.1,1.6,3.1c0.6,1,1.2,2,1.8,3c0.4,0.7,0.9,1.5,1.2,2.3
		s0.8,1.5,1.3,2.3c0.8,1.4,1.8,2.8,2.5,4.3s1.6,2.8,2.4,4.2c0.6,1.1,1.4,2.2,1.9,3.4c0.7,1.5,1.6,2.9,2.4,4.4
		c0.6,1.2,1.3,2.4,2.1,3.5c0.1,0.1,0.2,0.3,0.2,0.5c0,0.6,0.4,1,0.7,1.4c0.7,1,1.2,2.2,1.8,3.2c0.8,1.2,1.4,2.6,2.1,3.9
		c1,1.8,1.9,3.6,3.1,5.3c0.3,0.4,0.4,0.9,0.6,1.3c1,1.8,2,3.6,3.1,5.3c0.7,1.1,1.3,2.4,1.9,3.6c0.7,1.4,1.6,2.8,2.4,4.1
		c0.5,0.9,1.1,1.8,1.4,2.8c0.3,0.8,0.8,1.6,1.3,2.3s0.8,1.5,1.3,2.3c0.5,0.9,1.2,1.7,1.6,2.6c0.3,0.8,0.8,1.4,1.1,2.1
		c0.4,1,1,1.8,1.6,2.8s1.1,2.1,1.8,3c0.1,1,0.8,1.7,1.2,2.5s1,1.5,1.4,2.4c0.5,1.1,1.4,1.9,1.5,3.1c0.7,0.7,0.8,1.7,1.5,2.4
		c-0.1,0.1-0.1,0.1-0.1,0.2s-0.1,0-0.1,0c-74.1,0-148.1,0-222.2,0C6.6,209.6,6.6,209.4,6.6,209.2z M118,197.2c0.8-1.4,1.5-2.7,2.3-4
		c0.2-0.4,0.5-0.8,0.8-1.3c0.2-0.3,0.2-0.8,0.4-1.1c0.9-1.3,1.6-2.8,2.4-4.1c0.4-0.7,0.8-1.4,1.2-2.2c0.4-0.7,0.8-1.5,1.2-2.2
		c0.4-0.7,0.7-1.4,1.1-2.1c0.6-0.9,1.1-1.8,1.6-2.7c0.4-0.7,0.8-1.4,1.1-2.1c0.1-0.2,0.2-0.3,0.3-0.5c0.7-1.2,1.5-2.5,2.2-3.7
		c0.8-1.2,1.3-2.6,2-3.9c0.8-1.3,1.6-2.6,2.2-4c0.4-0.8,1.1-1.4,1.4-2.2c0.3-0.9,0.8-1.6,1.2-2.4c0.5-1,1-1.9,1.6-2.9
		c0.4-0.7,0.8-1.5,1.3-2.2c-0.1-0.6,0.5-0.9,0.7-1.4s0.4-1,0.7-1.4c0.7-1.2,1.6-2.4,2.2-3.7c0.9-1.7,1.7-3.4,2.7-5
		c0.6-0.9,0.9-2,1.5-2.9c0.7-0.9,0.9-2,1.6-2.9c0.6-0.7,0.8-1.7,1.3-2.5c0.8-1.3,1.6-2.6,2.2-4c0.2-0.5,0.4-1,0.7-1.4
		c1.1-1.4,1.7-3,2.6-4.4c0.4-0.7,1-1.4,1.1-2.2c0.7-0.6,0.8-1.5,1.4-2.1c0.4-0.4,0.5-1.1,0.8-1.8c-29.2,0-58.4,0-87.5,0
		c0,0-0.1,0-0.1,0.1c0,0,0,0.1-0.1,0.2c0.3,0.5,0.6,0.9,0.8,1.4c0.5,0.8,0.9,1.6,1.4,2.4c-0.1,0.6,0.5,0.9,0.7,1.4s0.4,1,0.7,1.4
		c0.5,0.9,1.1,1.8,1.6,2.8c0.5,1,1.2,1.9,1.6,2.9c0.5,1.1,1.1,2.1,1.8,3c0.6,0.9,0.9,1.9,1.5,2.8c0.6,0.9,1,2,1.5,2.9
		c0.8,1.4,1.6,2.9,2.4,4.2c0.9,1.5,1.5,3.2,2.6,4.7c0.6,0.9,1,1.9,1.6,2.8c0.4,0.6,0.8,1.4,1.1,2.1c0.2,0.4,0.2,0.8,0.4,1.1
		c0.7,0.9,1.1,1.9,1.7,2.8c0.5,0.7,0.8,1.6,1.2,2.3c1,1.5,1.7,3.2,2.6,4.8c0.4,0.7,0.8,1.4,1.2,2c0.5,0.8,1.1,1.6,1.4,2.5
		c0.3,1,1,1.9,1.4,2.8c0.4,0.9,1.1,1.8,1.5,2.7s1,1.7,1.4,2.6c0.5,1.2,1.2,2.3,1.9,3.4c0.5,0.8,0.9,1.6,1.4,2.4
		c0.5,0.8,1.1,1.6,1.3,2.5c0.1,0.2,0.2,0.4,0.3,0.6c0.9,1.3,1.7,2.7,2.4,4.1c0.4,0.8,1.1,1.5,1.2,2.4
		C116,193.6,116.9,195.4,118,197.2z M191.8,163.6c-14.4,0-28.7,0-43.1,0c0.1,0.2,0.1,0.3,0.2,0.5c0.7,1.2,1.4,2.5,2.3,3.7
		c0.4,0.5,0.4,1.2,0.9,1.7c0.7,0.9,1.3,1.8,1.8,2.8c0.9,1.6,1.9,3.1,2.8,4.7c0.5,1,1.2,2,1.8,3c0.7,1.1,1.5,2.2,2,3.4
		c0.6,0.4,0.6,1.2,1,1.8c1,1.5,1.9,3.1,2.9,4.6c0.6,0.9,1.1,1.8,1.6,2.8c0.4,0.7,0.9,1.4,1.3,2.1c0.8,1.5,1.8,2.9,2.7,4.4
		c0.3,0.5,0.4,0.5,0.7,0c0.7-1.1,1.4-2.2,2.1-3.3c1-1.5,1.9-3.1,2.8-4.7c0.8-1.3,1.5-2.6,2.3-3.9c0.4-0.6,0.8-1.2,1.1-1.8
		c0.4-0.6,0.8-1.3,1.1-2c0.7-1.2,1.5-2.5,2.2-3.7c0.6-0.9,1.4-1.8,1.8-2.8c0.3-0.8,0.8-1.5,1.2-2.3c0.6-1.1,1.5-2.1,2.1-3.2
		c0.6-1.1,1.3-2.1,1.8-3.3c0.3-0.8,1-1.5,1.5-2.3C191,165.1,191.5,164.4,191.8,163.6z M117.7,108.2c0.3-0.4,0.8-0.6,0.8-0.9
		c0.1-0.7,0.8-1,0.8-1.6c0.8-1,1.4-2.2,2.1-3.3c0.7-1.1,1.5-2.1,1.9-3.4c0.9-1,1.4-2.3,2.2-3.5c0.8-1.2,1.5-2.5,2.2-3.7
		c0.4-0.7,0.7-1.4,1.1-2.1c0.7-1.1,1.4-2.1,2-3.2s1.3-2.1,1.9-3.2c0.6-1.3,1.5-2.4,2.2-3.6c0.7-1.1,1.4-2.1,2-3.2
		c0.4-0.8,0.8-1.5,1.3-2.3c0.5-0.7,0.9-1.5,1.4-2.3c-0.2,0-0.3-0.1-0.4-0.1c-14.2,0-28.4,0-42.6,0c0,0-0.1,0-0.1,0.1
		c0,0,0,0.1-0.1,0.1c0.1,0.3,0.3,0.6,0.5,0.9c0.7,1.1,1.4,2.2,2,3.4c0.3,0.7,0.8,1.4,1.3,2c0.7,1.1,1.4,2.2,2.1,3.4
		c0.6,0.9,1.1,1.8,1.6,2.8c0.7,1.3,1.5,2.4,2.2,3.7c0.7,1.3,1.6,2.5,2.2,3.8c0.6,1.4,1.6,2.6,2.4,3.9s1.6,2.5,2.3,3.8
		c0.1,0.3,0.2,0.6,0.4,0.8c1.1,1.4,1.9,3,2.8,4.4c0.3,0.5,0.7,0.9,0.8,1.5C117.1,107.2,117.5,107.6,117.7,108.2z M44.2,163.5
		c0.1,0.4,0.2,0.7,0.3,1c0.6,1,1.3,2,1.9,3c0.2,0.2,0.4,0.4,0.4,0.7c0.1,0.8,0.6,1.3,1,1.9c0.7,1.1,1.3,2.1,2,3.2
		c0.6,1.1,1.5,2,1.8,3.3c0.9,1,1.4,2.3,2.1,3.4c0.9,1.4,1.9,2.9,2.7,4.4c0.1,0.2,0.1,0.5,0.3,0.7c1.3,1.8,2.4,3.9,3.7,5.8
		c0.4,0.6,0.6,1.2,0.9,1.8c1,1.5,1.9,3.1,2.9,4.6c0.4,0.7,0.7,1.5,1.4,2c0.5-0.8,0.9-1.4,1.3-2.1c0.7-1.2,1.4-2.3,2.2-3.5
		c0.6-0.9,1.2-1.8,1.6-2.7s1-1.6,1.5-2.4c0.5-1,1-2,1.7-2.8c1.2-1.7,1.9-3.7,3.3-5.3c0.6-1.5,1.9-2.6,2.3-4.2c0.9-1.3,1.7-2.6,2.5-4
		c0.4-0.7,0.8-1.3,1.2-1.9c0.4-0.7,0.8-1.4,1.2-2.1c0.7-1.1,1.3-2.3,2-3.3c0.3-0.5,0.5-1,0.8-1.4C72.8,163.5,58.6,163.5,44.2,163.5z
		 M137.8,67.1c-0.3-0.7-0.5-1.3-0.9-1.9c-0.8-1.2-1.5-2.4-2.1-3.6c-1.3-2.5-2.8-4.9-4.1-7.4c-0.3-0.5-0.4-1.1-0.7-1.5
		c-0.7-0.9-1-2-1.7-2.8c-0.7-0.9-0.9-2-1.7-2.8c-0.3-0.4-0.6-0.8-0.7-1.3c-0.3-1.2-1.2-2.2-1.7-3.3c-0.7-1.3-1.5-2.6-2.2-4
		c-0.1-0.3-0.2-0.6-0.4-0.8c-0.8-1.4-1.5-2.7-2.3-4c-0.4-0.8-0.9-1.5-1.4-2.4c-0.4,0.8-0.8,1.6-1.2,2.2c-0.7,1-1.1,2.2-1.9,3.1
		c-0.3,0.4-0.6,0.9-0.8,1.4c-0.3,1.2-1.1,2.1-1.7,3.2c-0.7,1.3-1.6,2.5-2.2,3.8c-1,2-2.1,4-3.4,5.9c-0.4,0.7-0.9,1.4-1.2,2.2
		c-0.3,0.8-0.7,1.6-1.2,2.3c-0.9,1.3-1.5,2.8-2.4,4.1c-0.5,0.7-0.7,1.6-1.2,2.3c-0.8,1.1-1.3,2.4-2.1,3.5c-0.4,0.5-0.5,1.1-0.8,1.8
		C111.1,67.1,124.4,67.1,137.8,67.1z M46.8,158.6c13,0,25.9,0,38.9,0c0-0.5-0.4-1.6-0.7-2c-1.1-1.4-1.7-3.1-2.6-4.6
		c-0.6-0.9-1-1.9-1.6-2.9c-0.7-1-1.3-2.1-1.8-3.3c-0.4-0.9-0.9-1.8-1.4-2.7c-0.5-0.7-0.9-1.5-1.3-2.2c-0.5-0.9-1.1-1.8-1.5-2.8
		c-0.4-0.8-0.8-1.6-1.2-2.3c-0.8-1.5-1.7-3-2.6-4.5c-0.4-0.8-0.7-1.7-1.2-2.4c-1.1-1.7-2-3.5-3.1-5.3c-0.2,0.1-0.4-0.1-0.6,0.2
		c-0.3,0.8-0.7,1.6-1.2,2.3c-1,1.5-1.9,3.1-2.7,4.7c0,0.1,0,0.2-0.1,0.2c-0.8,1.1-1.4,2.3-2.1,3.5c-0.8,1.3-1.6,2.6-2.2,4.1
		c-0.6,1.2-1.3,2.4-2,3.5c-0.8,1.4-1.6,2.8-2.4,4.1c-0.2,0.2-0.2,0.6-0.4,0.8c-0.8,1.1-1.4,2.4-2.2,3.6c-0.8,1.2-1.3,2.6-2.1,3.9
		c-0.5,0.8-0.8,1.6-1.3,2.4C47.1,157.4,46.6,157.9,46.8,158.6z M169.5,123.7c-0.2,0.3-0.3,0.5-0.4,0.6c-0.5,1.1-1.2,2.2-1.8,3.3
		c-0.5,1-1.2,1.9-1.6,3c-0.1,0.2-0.1,0.5-0.3,0.7c-0.7,0.8-1,1.8-1.6,2.6c-0.5,0.7-0.7,1.7-1.3,2.4c-1,1.3-1.4,2.8-2.3,4.1
		c-0.6,0.9-1.1,1.9-1.6,2.8c-0.4,0.6-0.6,1.3-1.1,1.9c-0.1,1.2-1.1,2-1.5,3c-0.3,0.7-0.7,1.3-1.1,2c-0.6,1-1.1,1.9-1.6,2.9
		c-0.1,0.3-0.2,0.6-0.4,0.8c-0.5,0.9-1,1.7-1.5,2.5c-0.4,0.7-0.8,1.5-1.2,2.2c13,0,25.9,0,38.9,0c-0.6-1-1.1-2-1.7-3
		c-0.4-0.8-1.2-1.5-1.3-2.5c0-0.2-0.1-0.4-0.2-0.5c-0.9-1.2-1.5-2.7-2.4-4c-0.5-0.8-1.1-1.7-1.5-2.5c-0.4-0.9-0.9-1.9-1.5-2.7
		c-0.6-0.9-0.9-2-1.6-2.9c-0.5-0.6-0.9-1.4-1.2-2.2c-0.3-0.9-0.8-1.6-1.2-2.3c-0.7-1.2-1.4-2.4-2.1-3.6c-0.3-0.6-0.8-1.1-1-1.8
		c-0.1-0.3-0.2-0.6-0.3-0.8c-0.5-0.9-1-1.8-1.5-2.7C170.9,126.1,170.2,125,169.5,123.7z M112.5,108.5c-0.1-0.1-0.2-0.2-0.3-0.3
		c-0.4-0.9-0.8-1.7-1.3-2.5c-1-1.5-1.9-3-2.8-4.5c-0.5-0.8-1-1.6-1.3-2.5c-0.4-0.9-1.1-1.5-1.6-2.4c-0.4-0.9-1.1-1.6-1.5-2.4
		s-0.9-1.6-1.4-2.5c-0.6-1.2-1.5-2.3-2.2-3.5c-0.8-1.2-1.5-2.5-2.2-3.7c-0.6-1.1-1.1-2.2-1.8-3.2c-0.9-1.2-1.4-2.6-2.4-3.6
		c-0.2-0.2-0.2-0.5-0.2-0.7c-0.1-0.4-0.2-0.6-0.6-0.6c-0.1,0.2-0.3,0.3-0.4,0.5c-0.3,0.6-0.5,1.2-0.9,1.7c-0.8,1.3-1.6,2.7-2.3,4
		c-0.4,0.8-0.9,1.5-1.2,2.3c-0.5,1.1-1.1,2-1.7,3c-0.9,1.5-1.8,3-2.6,4.6c-0.6,1.1-1.2,2.2-1.8,3.3c-0.9,1.5-1.8,3-2.6,4.5
		c-0.6,1.3-1.4,2.5-2.1,3.7c-0.9,1.5-1.7,3.1-2.5,4.7c0,0,0,0.1,0,0.2C87.3,108.5,99.8,108.5,112.5,108.5z M123.2,108.5
		c12.6,0,25,0,37.5,0c0,0,0.1,0,0.1-0.1c0,0,0-0.1,0.1-0.2c-0.5-0.7-0.8-1.6-1.3-2.5c-0.2-0.4-0.5-0.7-0.7-1c-0.5-1-1-1.9-1.6-2.9
		c-0.5-0.7-0.8-1.4-1.2-2.2c-0.1-0.2-0.1-0.5-0.3-0.7c-1.1-1.7-2-3.5-3.1-5.3c-0.7-1.1-1.2-2.4-1.9-3.5c-0.3-0.5-0.7-1-1-1.5
		c-0.4-0.8-0.9-1.5-1.3-2.3c-0.4-0.7-1-1.5-1.3-2.3c-0.3-1-0.9-1.9-1.5-2.8c-0.9-1.6-1.8-3.2-2.8-4.8c-0.1-0.2-0.2-0.4-0.4-0.7
		c-0.2,0.2-0.3,0.3-0.4,0.4c-0.1,0.1,0,0.4,0,0.5c-0.7,1.1-1.4,2.2-2.1,3.3c-1,1.5-1.9,3.1-2.8,4.7c-0.8,1.4-1.7,2.7-2.5,4.1
		c-0.5,0.8-1.1,1.6-1.4,2.4c-0.4,1-1.1,1.9-1.7,2.8c-0.9,1.6-1.9,3.1-2.9,4.6c-0.4,0.6-0.6,1.3-1,1.9c-0.9,1.6-1.9,3.1-2.9,4.6
		c-0.3,0.5-0.8,0.9-0.9,1.4C124,107.4,123.6,107.8,123.2,108.5z M90.4,167.1c-0.5,1-1,2.1-1.6,3.1c-0.7,1.1-1.5,2.1-2.1,3.2
		c-0.6,1.1-1.5,2.1-1.8,3.4c-1.2,1.5-2.1,3.2-3.1,4.8c-0.5,0.7-0.8,1.6-1.5,2.2c0.1,0.9-0.7,1.5-1.1,2.2c-0.7,1.1-1.3,2.2-2,3.3
		c-0.8,1-1.3,2.2-2,3.3c-1.2,1.9-2.3,3.9-3.5,5.8c-0.1,0.2-0.3,0.4-0.5,0.7c12.5,0,24.8,0,37.1,0c0-0.2,0.1-0.4,0-0.5
		c-0.5-0.5-0.7-1.3-1.1-1.9c-0.6-0.9-1.1-1.8-1.6-2.8c-0.5-0.9-0.9-1.7-1.4-2.6c-1-1.9-2.2-3.7-3.2-5.6c-0.3-0.6-0.5-1.2-1-1.7
		c-0.2-1.2-1-2.1-1.5-3.1c-0.4-0.8-0.9-1.7-1.4-2.5s-1.1-1.6-1.4-2.6c0-0.1-0.1-0.3-0.2-0.4c-0.5-0.8-1.1-1.7-1.5-2.5
		c-0.5-1-1.1-1.9-1.6-2.9c-0.3-0.6-0.7-1.1-0.9-1.8C91.3,168,91.2,167.3,90.4,167.1z M164.5,199.2c-0.8-1.3-1.4-2.6-2.2-3.8
		c-1.1-1.5-1.9-3.1-2.8-4.7c-0.9-1.4-1.7-2.9-2.6-4.3c-0.5-0.8-1-1.5-1.4-2.4c-0.8-1.6-1.9-3-2.7-4.6c-0.4-0.8-1-1.5-1.5-2.3
		s-0.8-1.6-1.3-2.4c-0.9-1.4-1.8-2.7-2.6-4.1c-0.5-0.8-1.1-1.5-1.4-2.5c-0.1-0.4-0.5-0.6-0.8-1.1c-0.3,0.7-0.4,1.3-0.7,1.8
		c-0.7,1.1-1.3,2.2-1.9,3.4c-0.3,0.6-0.8,1.1-1.1,1.6c-0.5,0.8-0.7,1.7-1.3,2.4c-0.2,1.2-1.1,2.1-1.6,3.2c-0.4,0.8-0.9,1.6-1.4,2.4
		c-0.5,0.9-1,1.8-1.4,2.7c-0.6,1.2-1.3,2.4-2,3.5c-0.8,1.5-1.8,2.9-2.4,4.5c-0.1,0.2-0.1,0.4-0.3,0.5c-0.7,0.8-1,1.7-1.5,2.5
		c-0.6,1-1.1,2-1.7,2.9c-0.1,0.1-0.1,0.4-0.1,0.6C140,199.2,152.2,199.2,164.5,199.2z M41,168c-0.1,0.4-0.1,0.7-0.2,0.9
		c-0.5,0.9-0.9,1.8-1.5,2.7c-1,1.5-1.8,3-2.6,4.5c-1,1.8-2,3.6-3.1,5.3c-0.4,0.7-0.9,1.4-1.2,2.2c-0.4,1-0.9,1.9-1.4,2.8
		c-0.7,1.2-1.3,2.4-2.1,3.5c-0.3,0.5-0.6,1-0.9,1.5c-0.2,0.3-0.2,0.8-0.4,1.1c-0.7,0.9-1,2-1.7,2.8c-0.5,0.7-0.8,1.6-1.3,2.2
		c-0.4,0.5-0.6,1.2-0.9,1.8c12.1,0,24.1,0,36.1,0c-0.4-0.6-0.7-1.1-1-1.6c-0.6-1-1.3-2-1.8-3s-1.5-1.9-1.7-3.1
		c-0.9-1.5-1.9-2.9-2.7-4.4c-0.8-1.4-1.7-2.6-2.4-4c-0.6-1.2-1.4-2.3-2.1-3.4c-0.8-1.2-1.6-2.5-2.3-3.8c-0.6-1.2-1.4-2.4-2.1-3.5
		c-0.4-0.6-0.8-1.3-1.2-1.9c-0.4-0.7-0.9-1.3-1.1-2.1C41.5,168.3,41.3,168.2,41,168z M176.1,199.2c11.9,0,23.7,0,35.5,0
		c0-0.1,0-0.3-0.1-0.4c-0.6-1-1.2-2.1-1.8-3.1c-0.5-0.8-1-1.7-1.4-2.6s-0.9-1.8-1.4-2.6c-0.9-1.6-1.8-3.2-2.8-4.8
		c-0.3-0.5-0.8-1-0.9-1.7c-0.1-0.6-0.4-1-0.8-1.5s-0.6-1.1-0.9-1.6c-0.7-1.2-1.5-2.4-2.1-3.8c-0.9-1.9-2-3.6-2.9-5.3
		c-0.6-1.2-1.4-2.4-2-3.5c-0.6,1-1.3,2-1.9,3c-0.6,1-1.1,2.1-1.8,3c-0.8,1-1.1,2.2-1.8,3.1c-0.7,0.9-1.2,2-1.8,3s-1.4,2-1.9,3.1
		s-1.3,2.1-1.8,3.1c-0.6,1-1.3,2-1.9,3c-0.6,1-1.1,2.1-1.7,3.2c-0.6,1-1.4,2-1.9,3C177.3,197.1,176.5,198,176.1,199.2z"/>
</g>
<rect x="140.8" y="11" class="st1" width="255.8" height="41"/>
<text transform="matrix(1 0 0 1 153.7007 67.1001)" class="st2"><tspan x="0" y="0" class="st3 st4 st5">P</tspan><tspan x="42.8" y="0" class="st6 st4 st5">onts</tspan></text>
<text transform="matrix(1 0 0 1 189.1 134.7875)" class="st2"><tspan x="0" y="0" class="st3 st4 st5">C</tspan><tspan x="50.6" y="0" class="st6 st4 st5">apital</tspan></text>
<text transform="matrix(1 0 0 1 229.5 209.4136)" class="st2"><tspan x="0" y="0" class="st3 st4 st5">M</tspan><tspan x="66.1" y="0" class="st6 st4 st5">anagement</tspan></text>
</svg>
