<?xml version="1.0" encoding="UTF-8"?>
<svg xmlns="http://www.w3.org/2000/svg" xmlns:xlink="http://www.w3.org/1999/xlink" width="100px" height="px" viewBox="0 0 99 30" version="1.1">
<g id="surface1">
<path style=" stroke:none;fill-rule:nonzero;fill:rgb(0%,28.627451%,50.980392%);fill-opacity:1;" d="M 11.21875 19.871094 C 11.21875 21.03125 11.125 21.617188 12.863281 21.242188 L 12.863281 21.894531 C 12.585938 22.03125 12.296875 22.132812 11.996094 22.199219 C 10.464844 22.460938 9.191406 22.199219 8.960938 20.457031 L 8.699219 20.726562 C 7.585938 21.941406 6.015625 22.625 4.371094 22.609375 C 3.359375 22.6875 2.359375 22.34375 1.605469 21.65625 C 0.851562 20.96875 0.414062 20 0.390625 18.972656 C 0.390625 15.582031 3.074219 15.128906 5.84375 14.6875 C 8.179688 14.300781 8.976562 14.121094 8.976562 12.691406 C 9.078125 11.738281 8.746094 10.789062 8.074219 10.113281 C 7.402344 9.433594 6.460938 9.101562 5.515625 9.203125 C 4.039062 9.117188 2.65625 9.925781 2 11.261719 L 1.691406 11.261719 L 1.691406 9.585938 C 3.074219 8.5625 4.734375 7.992188 6.449219 7.949219 C 9.539062 7.949219 11.226562 9.597656 11.226562 12.960938 Z M 8.855469 14.957031 L 7.824219 15.164062 C 5.816406 15.550781 2.804688 15.855469 2.804688 18.566406 C 2.804688 20.4375 3.90625 21.363281 5.695312 21.363281 C 6.589844 21.273438 7.425781 20.871094 8.058594 20.230469 C 8.265625 20.019531 8.855469 19.515625 8.855469 19.304688 Z M 8.855469 14.957031 "/>
<path style=" stroke:none;fill-rule:nonzero;fill:rgb(0%,28.627451%,50.980392%);fill-opacity:1;" d="M 26.492188 22.375 C 26.050781 22.375 25.695312 22.285156 25.316406 22.285156 C 24.933594 22.285156 24.519531 22.347656 24.128906 22.375 L 24.128906 19.515625 C 23.191406 21.464844 21.210938 22.691406 19.058594 22.660156 C 15.726562 22.660156 13.164062 20.300781 13.164062 15.445312 C 13.164062 11.339844 15.605469 7.992188 19.5 7.992188 C 21.460938 8 23.253906 9.117188 24.128906 10.886719 L 24.128906 0 C 24.519531 0 24.902344 0.0859375 25.316406 0.0859375 C 25.730469 0.0859375 26.050781 0 26.492188 0 Z M 20.148438 9.179688 C 16.375 9.179688 15.753906 12.75 15.753906 15.820312 C 15.753906 18.382812 16.695312 21.535156 19.792969 21.535156 C 23.257812 21.535156 24.121094 17.605469 24.121094 14.871094 C 24.128906 12.359375 23.160156 9.179688 20.148438 9.179688 Z M 20.148438 9.179688 "/>
<path style=" stroke:none;fill-rule:nonzero;fill:rgb(0%,28.627451%,50.980392%);fill-opacity:1;" d="M 40.839844 8.714844 L 41.066406 8.238281 C 41.066406 8.238281 41.742188 8.296875 41.933594 8.296875 C 42.121094 8.296875 43.058594 8.238281 43.058594 8.238281 L 42.847656 8.59375 C 42.199219 9.789062 38.011719 19.925781 37.15625 22.183594 L 37.09375 22.347656 L 36.539062 22.285156 L 35.96875 22.347656 L 35.875 22.199219 C 33.691406 16.96875 30.792969 10.257812 29.894531 8.59375 L 29.6875 8.238281 C 29.6875 8.238281 30.75 8.296875 31.054688 8.296875 C 31.355469 8.296875 32.179688 8.238281 32.179688 8.238281 L 32.222656 8.382812 C 32.507812 9.066406 32.734375 9.683594 32.957031 10.320312 L 34.28125 13.804688 L 36.609375 19.539062 C 36.976562 18.855469 37.308594 18.152344 37.605469 17.433594 L 39.691406 12.046875 Z M 40.839844 8.714844 "/>
<path style=" stroke:none;fill-rule:nonzero;fill:rgb(0%,28.627451%,50.980392%);fill-opacity:1;" d="M 52.757812 22.285156 C 52.394531 22.285156 51.554688 22.347656 51.554688 22.347656 L 51.496094 22.183594 C 50.898438 20.59375 49.46875 16.953125 49.46875 16.953125 L 44.777344 16.953125 C 44.121094 18.695312 43.507812 20.351562 42.917969 22.128906 L 42.859375 22.3125 C 42.859375 22.3125 42.140625 22.25 41.941406 22.25 C 41.742188 22.25 40.875 22.3125 40.875 22.3125 L 47.246094 7.949219 L 47.988281 7.949219 L 54.089844 22.347656 C 54.089844 22.347656 53.0625 22.285156 52.757812 22.285156 Z M 45.394531 15.6875 L 49.027344 15.6875 L 47.125 11.390625 Z M 45.394531 15.6875 "/>
<path style=" stroke:none;fill-rule:nonzero;fill:rgb(0%,28.627451%,50.980392%);fill-opacity:1;" d="M 56.351562 8.132812 C 56.730469 8.132812 57.121094 8.21875 57.527344 8.21875 C 57.933594 8.21875 58.269531 8.15625 58.710938 8.132812 L 58.710938 10.84375 C 59.625 9.054688 61.457031 7.9375 63.453125 7.949219 C 66.917969 7.949219 68.207031 9.832031 68.207031 13.761719 L 68.207031 22.375 C 67.765625 22.375 67.410156 22.285156 67.027344 22.285156 C 66.648438 22.285156 66.234375 22.347656 65.84375 22.375 L 65.84375 14.449219 C 65.84375 11.679688 65.351562 9.5 62.570312 9.5 C 59.472656 9.5 58.710938 11.800781 58.710938 15.460938 L 58.710938 22.375 C 58.269531 22.375 57.917969 22.285156 57.527344 22.285156 C 57.136719 22.285156 56.730469 22.347656 56.351562 22.375 Z M 56.351562 8.132812 "/>
<path style=" stroke:none;fill-rule:nonzero;fill:rgb(0%,28.627451%,50.980392%);fill-opacity:1;" d="M 82.390625 11.140625 L 82.15625 11.140625 C 81.933594 10.78125 81.664062 10.453125 81.359375 10.164062 C 80.582031 9.390625 79.527344 8.960938 78.433594 8.96875 C 74.972656 8.96875 73.363281 11.949219 73.363281 15.070312 C 73.363281 18.878906 75.519531 21.589844 78.738281 21.589844 C 80.46875 21.589844 81.566406 20.789062 82.804688 19.652344 L 82.980469 19.742188 L 82.832031 21.117188 C 81.53125 22.105469 79.949219 22.648438 78.324219 22.660156 C 73.398438 22.660156 70.777344 19.4375 70.777344 15.269531 C 70.777344 10.652344 74.011719 7.992188 78.410156 7.992188 C 80.046875 7.945312 81.660156 8.371094 83.066406 9.222656 Z M 82.390625 11.140625 "/>
<path style=" stroke:none;fill-rule:nonzero;fill:rgb(0%,28.627451%,50.980392%);fill-opacity:1;" d="M 85.074219 8.132812 C 85.515625 8.132812 85.992188 8.21875 86.492188 8.21875 C 86.992188 8.21875 87.359375 8.15625 87.875 8.132812 C 89.113281 11.902344 90.582031 15.589844 92.273438 19.175781 C 93.570312 16.5 95.542969 11.332031 96.695312 8.125 C 97.015625 8.125 97.320312 8.210938 97.664062 8.210938 C 98.011719 8.210938 98.261719 8.148438 98.609375 8.125 C 95.144531 15.96875 91.945312 22.757812 89.089844 29.992188 C 88.699219 29.992188 88.40625 29.902344 88.085938 29.902344 C 87.765625 29.902344 87.410156 29.964844 87.082031 29.992188 C 88.90625 26.390625 90.265625 23.707031 91.035156 22.25 Z M 85.074219 8.132812 "/>
</g>
</svg>
