<?xml version="1.0" encoding="UTF-8"?>
<svg xmlns="http://www.w3.org/2000/svg" xmlns:xlink="http://www.w3.org/1999/xlink" width="100px" height="px" viewBox="0 0 102 17" version="1.1">
<g id="surface1">
<path style=" stroke:none;fill-rule:nonzero;fill:rgb(15.294118%,28.627451%,7.058824%);fill-opacity:1;" d="M 6.730469 0.289062 C 7.378906 0.289062 7.53125 0.375 7.785156 1.003906 C 8.246094 2.191406 8.722656 3.605469 9.144531 4.945312 C 10.300781 8.585938 11.507812 12.527344 12.476562 16.472656 C 12.5625 16.8125 12.445312 16.949219 12.136719 16.949219 L 11.136719 16.949219 C 10.828125 16.949219 10.691406 16.847656 10.625 16.539062 C 10.21875 14.910156 9.792969 13.328125 9.351562 11.746094 L 3.144531 11.746094 L 1.921875 16.558594 C 1.902344 16.8125 1.664062 17 1.410156 16.964844 L 0.355469 16.964844 C 0.0664062 16.964844 -0.0507812 16.863281 0.015625 16.523438 C 1.003906 12.578125 2.175781 8.566406 3.382812 4.929688 C 3.824219 3.585938 4.316406 2.175781 4.777344 0.984375 C 5.050781 0.339844 5.167969 0.273438 5.8125 0.273438 L 6.730469 0.273438 Z M 3.585938 10.21875 L 8.960938 10.21875 C 8.515625 8.6875 8.023438 7.039062 7.597656 5.558594 C 7.308594 4.589844 6.851562 3.160156 6.441406 1.953125 L 6.136719 1.953125 C 5.730469 3.160156 5.253906 4.574219 4.980469 5.558594 C 4.503906 7.039062 4.027344 8.671875 3.585938 10.21875 Z M 18.242188 14.652344 C 18.242188 15.316406 18.480469 15.539062 19.242188 15.539062 L 23.460938 15.539062 C 23.75 15.539062 23.851562 15.640625 23.851562 15.878906 L 23.851562 16.660156 C 23.851562 16.863281 23.75 17 23.460938 17 L 18.820312 17 C 17.1875 17 16.472656 16.355469 16.472656 14.941406 L 16.472656 0.746094 C 16.472656 0.441406 16.625 0.304688 16.882812 0.304688 L 17.816406 0.304688 C 18.019531 0.273438 18.222656 0.425781 18.257812 0.628906 C 18.257812 0.664062 18.257812 0.695312 18.257812 0.746094 Z M 33.863281 0.289062 C 34.511719 0.289062 34.664062 0.375 34.917969 1.003906 C 35.378906 2.191406 35.851562 3.605469 36.277344 4.945312 C 37.433594 8.585938 38.625 12.527344 39.609375 16.488281 C 39.695312 16.828125 39.574219 16.964844 39.269531 16.964844 L 38.265625 16.964844 C 38.027344 17 37.789062 16.828125 37.757812 16.59375 C 37.757812 16.574219 37.757812 16.574219 37.757812 16.558594 C 37.347656 14.910156 36.925781 13.328125 36.5 11.765625 L 30.277344 11.765625 L 29.035156 16.558594 C 29.019531 16.8125 28.78125 17 28.527344 16.964844 L 27.472656 16.964844 C 27.183594 16.964844 27.0625 16.863281 27.132812 16.523438 C 28.117188 12.578125 29.289062 8.566406 30.496094 4.929688 C 30.941406 3.605469 31.414062 2.175781 31.890625 0.984375 C 32.148438 0.339844 32.28125 0.273438 32.929688 0.273438 L 33.863281 0.273438 Z M 30.703125 10.21875 L 36.074219 10.21875 C 35.648438 8.6875 35.15625 7.039062 34.714844 5.558594 C 34.425781 4.574219 33.964844 3.160156 33.558594 1.9375 L 33.253906 1.9375 C 32.84375 3.144531 32.367188 4.574219 32.097656 5.558594 C 31.636719 7.039062 31.144531 8.671875 30.703125 10.21875 Z M 65.449219 16.984375 C 65.195312 16.984375 65.09375 16.898438 65.09375 16.59375 L 65.09375 1.734375 L 60.707031 1.734375 C 60.402344 1.734375 60.316406 1.582031 60.316406 1.34375 L 60.316406 0.628906 C 60.316406 0.289062 60.554688 0.289062 60.707031 0.289062 L 71.265625 0.289062 C 71.570312 0.289062 71.65625 0.425781 71.65625 0.679688 L 71.65625 1.359375 C 71.65625 1.597656 71.570312 1.75 71.265625 1.75 L 66.878906 1.75 L 66.878906 16.625 C 66.878906 16.933594 66.777344 17.015625 66.519531 17.015625 Z M 75.546875 0.867188 C 75.515625 0.613281 75.699219 0.355469 75.957031 0.324219 C 75.972656 0.324219 75.988281 0.324219 76.007812 0.324219 C 77.179688 0.117188 78.351562 0.0351562 79.542969 0.0351562 C 83.386719 0.0351562 85.511719 1.460938 85.511719 4.625 L 85.511719 5.167969 C 85.511719 7.394531 84.371094 8.960938 82.3125 9.503906 L 86.546875 16.59375 C 86.699219 16.847656 86.648438 16.984375 86.34375 16.984375 L 85 16.984375 C 84.8125 17 84.644531 16.898438 84.558594 16.746094 L 80.546875 9.824219 C 80.238281 9.84375 79.933594 9.84375 79.59375 9.84375 C 78.796875 9.84375 77.960938 9.84375 77.316406 9.824219 L 77.316406 16.539062 C 77.316406 16.847656 77.164062 16.984375 76.90625 16.984375 L 75.972656 16.984375 C 75.769531 17.015625 75.566406 16.882812 75.53125 16.660156 C 75.53125 16.625 75.53125 16.574219 75.53125 16.539062 Z M 77.332031 8.363281 C 78.011719 8.398438 78.929688 8.414062 79.882812 8.414062 C 82.46875 8.414062 83.621094 7.464844 83.621094 5.03125 L 83.621094 4.691406 C 83.621094 2.3125 82.433594 1.480469 79.578125 1.480469 C 78.949219 1.460938 78.335938 1.496094 77.722656 1.582031 C 77.382812 1.632812 77.332031 1.699219 77.332031 2.039062 Z M 96.21875 0.289062 C 96.867188 0.289062 97.019531 0.375 97.273438 1.003906 C 97.734375 2.191406 98.210938 3.605469 98.632812 4.945312 C 99.789062 8.585938 100.980469 12.527344 101.964844 16.488281 C 102.050781 16.828125 101.949219 16.964844 101.625 16.964844 L 100.621094 16.964844 C 100.386719 17 100.148438 16.828125 100.113281 16.59375 C 100.113281 16.574219 100.113281 16.574219 100.113281 16.558594 C 99.703125 14.910156 99.28125 13.328125 98.855469 11.765625 L 92.632812 11.765625 L 91.390625 16.558594 C 91.375 16.8125 91.136719 17 90.882812 16.964844 L 89.828125 16.964844 C 89.539062 16.964844 89.421875 16.863281 89.488281 16.523438 C 90.472656 12.578125 91.648438 8.566406 92.855469 4.929688 C 93.296875 3.605469 93.789062 2.175781 94.246094 0.984375 C 94.503906 0.339844 94.640625 0.273438 95.285156 0.273438 L 96.21875 0.273438 Z M 93.074219 10.21875 L 98.445312 10.21875 C 98.003906 8.6875 97.511719 7.039062 97.085938 5.574219 C 96.796875 4.589844 96.339844 3.179688 95.929688 1.953125 L 95.609375 1.953125 C 95.199219 3.160156 94.722656 4.589844 94.453125 5.574219 C 93.992188 7.039062 93.515625 8.671875 93.074219 10.21875 Z M 56.984375 1.683594 L 56.984375 1.054688 C 56.984375 0.441406 56.78125 0.289062 56.132812 0.289062 L 55.351562 0.289062 C 54.824219 0.289062 54.09375 1.054688 54.09375 1.054688 C 54.007812 1.121094 53.941406 1.207031 53.871094 1.292969 L 52.273438 3.265625 C 52.140625 3.46875 52.105469 3.722656 52.222656 3.945312 L 52.460938 4.472656 C 52.460938 4.472656 52.769531 5.101562 53.261719 4.523438 L 54.316406 3.246094 L 55.335938 1.988281 L 55.335938 15.316406 L 55.183594 15.316406 L 46.714844 0.816406 C 46.683594 0.746094 46.648438 0.695312 46.613281 0.628906 L 46.613281 0.613281 C 46.578125 0.578125 46.5625 0.542969 46.527344 0.511719 C 46.375 0.355469 46.15625 0.289062 45.949219 0.289062 L 44.4375 0.289062 C 43.792969 0.289062 43.589844 0.441406 43.589844 1.054688 L 43.589844 16.539062 C 43.589844 16.847656 43.691406 16.984375 43.945312 16.984375 L 44.878906 16.984375 C 45.136719 16.984375 45.238281 16.847656 45.238281 16.539062 L 45.238281 2.007812 L 45.425781 2.007812 L 50.574219 10.761719 L 53.957031 16.59375 C 54.109375 16.828125 54.347656 16.964844 54.636719 16.984375 L 56.285156 16.984375 C 56.796875 16.949219 56.984375 16.777344 56.984375 16.21875 Z M 56.984375 1.683594 "/>
</g>
</svg>
