<?xml version="1.0" encoding="UTF-8"?>
<svg xmlns="http://www.w3.org/2000/svg" xmlns:xlink="http://www.w3.org/1999/xlink" width="100px" height="px" viewBox="0 0 102 21" version="1.1">
<g id="surface1">
<path style=" stroke:none;fill-rule:nonzero;fill:rgb(0%,44.705882%,32.941176%);fill-opacity:1;" d="M 52.699219 10.304688 C 52.699219 9.996094 52.683594 9.6875 52.664062 9.398438 C 52.648438 9.109375 52.597656 8.800781 52.5625 8.511719 L 44.300781 8.511719 L 41.785156 12.472656 L 48.160156 12.472656 C 47.785156 13.769531 47.054688 14.878906 46.070312 15.664062 C 45.085938 16.449219 43.84375 16.929688 42.398438 16.929688 C 40.597656 16.929688 38.996094 16.175781 37.824219 14.964844 C 36.652344 13.753906 35.9375 12.097656 35.9375 10.269531 C 35.9375 8.476562 36.652344 6.835938 37.84375 5.644531 C 39.015625 4.449219 40.648438 3.695312 42.449219 3.695312 C 43.230469 3.695312 43.960938 3.816406 44.640625 4.054688 C 45.320312 4.277344 45.933594 4.617188 46.476562 5.027344 L 47.582031 3.253906 L 48.6875 1.476562 C 47.839844 0.878906 46.886719 0.402344 45.832031 0.09375 C 44.796875 -0.230469 43.65625 -0.382812 42.464844 -0.382812 C 40.867188 -0.382812 39.421875 -0.09375 38.148438 0.433594 C 36.871094 0.964844 35.734375 1.734375 34.78125 2.6875 C 32.519531 4.960938 31.875 7.265625 31.433594 9.363281 C 30.972656 11.480469 30.71875 13.410156 29.171875 14.949219 C 28.527344 15.597656 27.828125 16.089844 27.046875 16.414062 C 26.265625 16.742188 25.433594 16.910156 24.53125 16.910156 C 22.679688 16.910156 21.011719 16.144531 19.789062 14.929688 C 18.582031 13.71875 17.832031 12.0625 17.832031 10.269531 C 17.832031 8.511719 18.582031 6.871094 19.789062 5.660156 C 20.996094 4.449219 22.660156 3.679688 24.53125 3.664062 C 25.3125 3.679688 26.027344 3.796875 26.691406 4.003906 C 27.351562 4.207031 27.964844 4.53125 28.507812 4.941406 L 29.632812 3.167969 L 30.753906 1.390625 C 29.902344 0.792969 28.949219 0.332031 27.914062 0.0273438 C 26.878906 -0.28125 25.738281 -0.433594 24.546875 -0.433594 C 22.710938 -0.433594 20.996094 0.0078125 19.5 0.792969 C 18.003906 1.578125 16.726562 2.6875 15.757812 4.019531 C 15.386719 2.84375 14.601562 1.835938 13.53125 1.136719 C 12.460938 0.417969 11.101562 0.0078125 9.570312 0.0078125 L 0 0.0078125 L 0 20.566406 L 10.539062 20.566406 C 11.867188 20.566406 13.054688 20.242188 14.042969 19.695312 C 15.027344 19.148438 15.808594 18.363281 16.355469 17.441406 C 17.339844 18.53125 18.53125 19.421875 19.890625 20.035156 C 21.25 20.648438 22.761719 20.992188 24.394531 20.992188 C 26.300781 20.992188 28.050781 20.546875 29.5625 19.746094 C 31.074219 18.941406 32.351562 17.796875 33.335938 16.382812 C 34.273438 17.78125 35.546875 18.925781 37.078125 19.726562 C 38.589844 20.53125 40.375 20.992188 42.277344 20.992188 C 45.21875 20.992188 47.820312 19.796875 49.691406 17.851562 C 51.5625 15.9375 52.699219 13.257812 52.699219 10.304688 Z M 4.4375 8.339844 L 4.4375 3.851562 L 9.484375 3.851562 C 10.132812 3.851562 10.691406 4.089844 11.101562 4.480469 C 11.507812 4.875 11.765625 5.4375 11.765625 6.085938 C 11.765625 6.734375 11.507812 7.296875 11.101562 7.691406 C 10.691406 8.101562 10.113281 8.339844 9.484375 8.339844 Z M 4.4375 16.757812 L 4.4375 12.097656 L 10.488281 12.097656 C 11.167969 12.097656 11.765625 12.351562 12.207031 12.761719 C 12.648438 13.171875 12.921875 13.753906 12.921875 14.417969 C 12.921875 15.085938 12.648438 15.664062 12.207031 16.089844 C 11.765625 16.519531 11.167969 16.773438 10.488281 16.773438 L 4.4375 16.773438 Z M 4.4375 16.757812 "/>
<path style=" stroke:none;fill-rule:nonzero;fill:rgb(0%,44.705882%,32.941176%);fill-opacity:1;" d="M 62.78125 18.070312 C 62.796875 18.105469 62.796875 18.15625 62.796875 18.207031 C 62.796875 18.257812 62.816406 18.328125 62.816406 18.378906 C 62.816406 19.027344 62.59375 19.589844 62.203125 20 C 61.8125 20.410156 61.25 20.648438 60.605469 20.648438 C 59.960938 20.648438 59.363281 20.394531 58.9375 19.949219 C 58.515625 19.523438 58.257812 18.925781 58.257812 18.257812 C 58.257812 17.59375 58.53125 16.996094 58.957031 16.570312 C 59.382812 16.144531 59.976562 15.871094 60.640625 15.871094 C 60.910156 15.871094 61.164062 15.902344 61.402344 15.972656 C 61.640625 16.039062 61.863281 16.144531 62.066406 16.296875 L 61.691406 16.875 C 61.539062 16.757812 61.371094 16.671875 61.199219 16.621094 C 61.03125 16.570312 60.84375 16.535156 60.640625 16.535156 C 60.179688 16.535156 59.773438 16.722656 59.484375 17.011719 C 59.195312 17.304688 59.007812 17.730469 59.007812 18.226562 C 59.007812 18.703125 59.175781 19.128906 59.464844 19.4375 C 59.753906 19.746094 60.144531 19.933594 60.605469 19.933594 C 61.03125 19.933594 61.371094 19.796875 61.625 19.574219 C 61.878906 19.351562 62.03125 19.027344 62.101562 18.667969 L 60.554688 18.667969 L 60.960938 18.019531 Z M 70.464844 20.683594 C 71.128906 20.683594 71.722656 20.410156 72.164062 19.984375 C 72.589844 19.558594 72.863281 18.960938 72.863281 18.3125 C 72.863281 17.664062 72.589844 17.066406 72.164062 16.636719 C 71.738281 16.210938 71.128906 15.9375 70.464844 15.9375 C 69.800781 15.9375 69.207031 16.210938 68.78125 16.636719 C 68.355469 17.066406 68.085938 17.664062 68.085938 18.3125 C 68.085938 18.960938 68.355469 19.558594 68.78125 19.984375 C 69.207031 20.410156 69.800781 20.683594 70.464844 20.683594 Z M 74.578125 16.023438 L 74.578125 18.824219 C 74.578125 19.148438 74.699219 19.453125 74.902344 19.660156 C 75.105469 19.863281 75.394531 20 75.734375 20 C 76.074219 20 76.363281 19.863281 76.566406 19.660156 C 76.773438 19.453125 76.890625 19.148438 76.890625 18.824219 L 76.890625 16.023438 L 77.605469 16.023438 L 77.605469 18.824219 C 77.605469 19.351562 77.402344 19.8125 77.078125 20.15625 C 76.738281 20.480469 76.277344 20.683594 75.734375 20.683594 C 75.191406 20.683594 74.730469 20.480469 74.390625 20.15625 C 74.050781 19.832031 73.847656 19.371094 73.847656 18.824219 L 73.847656 16.023438 Z M 65.671875 16.023438 C 66.148438 16.023438 66.539062 16.175781 66.808594 16.449219 C 67.082031 16.707031 67.234375 17.082031 67.234375 17.492188 C 67.234375 17.832031 67.132812 18.125 66.964844 18.363281 C 66.792969 18.601562 66.539062 18.773438 66.214844 18.839844 L 66.757812 19.710938 L 67.304688 20.582031 L 66.453125 20.582031 L 65.941406 19.761719 L 65.433594 18.941406 L 64.566406 18.941406 L 64.566406 20.582031 L 63.835938 20.582031 L 63.835938 16.023438 Z M 80.699219 16.023438 C 81.175781 16.023438 81.566406 16.195312 81.855469 16.449219 C 82.128906 16.722656 82.28125 17.082031 82.28125 17.507812 C 82.28125 17.917969 82.128906 18.292969 81.855469 18.566406 C 81.582031 18.839844 81.175781 18.992188 80.699219 18.992188 L 79.660156 18.992188 L 79.660156 20.582031 L 78.929688 20.582031 L 78.929688 16.023438 Z M 70.464844 20 C 70.007812 20 69.597656 19.8125 69.308594 19.507812 C 69.019531 19.199219 68.832031 18.773438 68.832031 18.3125 C 68.832031 17.851562 69.019531 17.421875 69.308594 17.117188 C 69.597656 16.808594 70.023438 16.621094 70.464844 16.621094 C 70.925781 16.621094 71.332031 16.808594 71.636719 17.117188 C 71.925781 17.421875 72.113281 17.851562 72.113281 18.3125 C 72.113281 18.789062 71.925781 19.214844 71.636719 19.507812 C 71.347656 19.8125 70.941406 20 70.464844 20 Z M 80.699219 18.34375 C 80.9375 18.34375 81.140625 18.257812 81.292969 18.125 C 81.445312 17.988281 81.53125 17.78125 81.53125 17.527344 C 81.53125 17.269531 81.445312 17.082031 81.292969 16.929688 C 81.140625 16.792969 80.9375 16.707031 80.699219 16.707031 L 79.660156 16.707031 L 79.660156 18.34375 Z M 65.671875 18.277344 C 65.910156 18.277344 66.097656 18.207031 66.25 18.070312 C 66.386719 17.933594 66.46875 17.746094 66.46875 17.492188 C 66.46875 17.253906 66.386719 17.046875 66.25 16.910156 C 66.113281 16.773438 65.910156 16.6875 65.671875 16.6875 L 64.566406 16.6875 L 64.566406 18.277344 Z M 101.964844 10.082031 C 101.984375 10.117188 101.984375 10.167969 101.984375 10.21875 C 101.984375 10.269531 102 10.335938 102 10.390625 C 102 11.039062 101.777344 11.601562 101.386719 12.011719 C 100.996094 12.421875 100.4375 12.675781 99.789062 12.675781 C 99.128906 12.675781 98.550781 12.421875 98.125 11.976562 C 97.699219 11.550781 97.445312 10.953125 97.445312 10.285156 C 97.445312 9.621094 97.699219 9.023438 98.140625 8.597656 C 98.566406 8.167969 99.160156 7.894531 99.824219 7.894531 C 100.097656 7.894531 100.351562 7.929688 100.589844 8 C 100.828125 8.066406 101.046875 8.167969 101.253906 8.324219 L 100.878906 8.902344 C 100.726562 8.785156 100.554688 8.699219 100.386719 8.648438 C 100.214844 8.597656 100.027344 8.5625 99.824219 8.5625 C 99.363281 8.5625 98.957031 8.75 98.667969 9.039062 C 98.378906 9.347656 98.191406 9.773438 98.191406 10.253906 C 98.191406 10.730469 98.363281 11.15625 98.652344 11.464844 C 98.941406 11.773438 99.332031 11.960938 99.789062 11.960938 C 100.214844 11.960938 100.554688 11.824219 100.808594 11.601562 C 101.066406 11.378906 101.21875 11.054688 101.285156 10.695312 L 99.738281 10.695312 L 99.941406 10.371094 L 100.148438 10.046875 Z M 78.488281 8.03125 L 78.488281 10.832031 C 78.488281 11.15625 78.609375 11.464844 78.8125 11.667969 C 79.015625 11.875 79.304688 12.011719 79.644531 12.011719 C 79.984375 12.011719 80.273438 11.875 80.476562 11.667969 C 80.683594 11.464844 80.800781 11.15625 80.800781 10.832031 L 80.800781 8.03125 L 81.515625 8.03125 L 81.515625 10.832031 C 81.515625 11.363281 81.3125 11.824219 80.988281 12.164062 C 80.648438 12.488281 80.1875 12.695312 79.644531 12.695312 C 79.101562 12.695312 78.640625 12.488281 78.300781 12.164062 C 77.960938 11.839844 77.757812 11.378906 77.757812 10.832031 L 77.757812 8.03125 Z M 75.105469 12.695312 C 75.617188 12.695312 76.007812 12.539062 76.277344 12.300781 C 76.550781 12.046875 76.703125 11.703125 76.703125 11.3125 C 76.703125 10.882812 76.535156 10.59375 76.277344 10.40625 C 76.023438 10.203125 75.683594 10.097656 75.328125 9.980469 C 75.039062 9.894531 74.78125 9.824219 74.613281 9.707031 C 74.441406 9.605469 74.339844 9.46875 74.339844 9.246094 C 74.339844 9.058594 74.410156 8.902344 74.527344 8.785156 C 74.664062 8.664062 74.851562 8.597656 75.121094 8.597656 C 75.292969 8.597656 75.464844 8.628906 75.632812 8.683594 C 75.804688 8.734375 75.972656 8.816406 76.144531 8.9375 L 76.328125 8.648438 L 76.515625 8.355469 C 76.328125 8.222656 76.125 8.117188 75.90625 8.050781 C 75.667969 7.980469 75.429688 7.929688 75.15625 7.929688 C 74.679688 7.929688 74.289062 8.066406 74.035156 8.304688 C 73.78125 8.546875 73.628906 8.886719 73.628906 9.277344 C 73.628906 9.722656 73.796875 9.996094 74.050781 10.183594 C 74.308594 10.371094 74.648438 10.492188 75.003906 10.59375 C 75.292969 10.679688 75.546875 10.765625 75.71875 10.867188 C 75.886719 10.96875 75.988281 11.105469 75.988281 11.328125 C 75.988281 11.515625 75.921875 11.6875 75.769531 11.804688 C 75.632812 11.925781 75.410156 11.992188 75.121094 11.992188 C 74.886719 11.992188 74.679688 11.941406 74.476562 11.875 C 74.273438 11.789062 74.070312 11.6875 73.882812 11.566406 L 73.695312 11.855469 L 73.507812 12.148438 C 73.695312 12.285156 73.914062 12.421875 74.1875 12.523438 C 74.441406 12.625 74.75 12.695312 75.105469 12.695312 Z M 65.195312 12.695312 C 65.859375 12.695312 66.453125 12.421875 66.894531 11.992188 C 67.320312 11.566406 67.59375 10.96875 67.59375 10.320312 C 67.59375 9.671875 67.320312 9.074219 66.894531 8.628906 C 66.453125 8.203125 65.859375 7.929688 65.195312 7.929688 C 64.53125 7.929688 63.9375 8.203125 63.511719 8.628906 C 63.085938 9.058594 62.816406 9.65625 62.816406 10.320312 C 62.816406 10.96875 63.085938 11.566406 63.511719 11.992188 C 63.9375 12.421875 64.53125 12.695312 65.195312 12.695312 Z M 58.242188 10.320312 C 58.242188 10.988281 58.515625 11.585938 58.9375 12.011719 C 59.382812 12.4375 59.976562 12.710938 60.65625 12.710938 C 60.980469 12.710938 61.25 12.660156 61.507812 12.574219 C 61.761719 12.488281 61.964844 12.371094 62.1875 12.199219 L 62 11.910156 L 61.8125 11.617188 C 61.640625 11.753906 61.453125 11.855469 61.269531 11.925781 C 61.082031 11.992188 60.859375 12.027344 60.640625 12.027344 C 60.195312 12.027344 59.789062 11.839844 59.5 11.53125 C 59.210938 11.226562 59.023438 10.796875 59.023438 10.320312 C 59.023438 9.84375 59.195312 9.414062 59.5 9.109375 C 59.789062 8.800781 60.195312 8.613281 60.640625 8.613281 C 60.878906 8.613281 61.082031 8.648438 61.269531 8.714844 C 61.453125 8.785156 61.640625 8.886719 61.8125 9.023438 L 62 8.734375 L 62.1875 8.441406 C 61.980469 8.289062 61.761719 8.152344 61.507812 8.066406 C 61.25 7.980469 60.980469 7.929688 60.65625 7.929688 C 59.976562 7.929688 59.382812 8.1875 58.9375 8.628906 C 58.515625 9.058594 58.242188 9.65625 58.242188 10.320312 Z M 91.070312 12.589844 L 90.339844 12.589844 L 90.339844 8.03125 L 91.070312 8.03125 Z M 93.382812 12.589844 L 92.683594 12.589844 L 92.683594 8.03125 L 93.585938 8.03125 L 94.640625 9.757812 L 95.691406 11.480469 L 95.691406 8.03125 L 96.390625 8.03125 L 96.390625 12.589844 L 95.539062 12.589844 L 94.453125 10.832031 L 93.363281 9.074219 L 93.363281 12.589844 Z M 89.234375 8.714844 L 87.804688 8.714844 L 87.804688 12.589844 L 87.058594 12.589844 L 87.058594 8.714844 L 85.644531 8.714844 L 85.644531 8.03125 L 89.234375 8.03125 Z M 83.539062 11.910156 L 85.78125 11.910156 L 85.78125 12.589844 L 82.808594 12.589844 L 82.808594 8.03125 L 83.539062 8.03125 Z M 69.324219 12.589844 L 68.628906 12.589844 L 68.628906 8.03125 L 69.53125 8.03125 L 70.585938 9.757812 L 71.636719 11.480469 L 71.636719 8.03125 L 72.335938 8.03125 L 72.335938 12.589844 L 71.484375 12.589844 L 70.398438 10.832031 L 69.308594 9.074219 Z M 65.195312 12.011719 C 64.734375 12.011719 64.328125 11.824219 64.039062 11.515625 C 63.75 11.207031 63.5625 10.78125 63.5625 10.320312 C 63.5625 9.84375 63.75 9.414062 64.039062 9.125 C 64.328125 8.816406 64.753906 8.628906 65.195312 8.628906 C 65.652344 8.628906 66.0625 8.816406 66.367188 9.125 C 66.65625 9.433594 66.84375 9.859375 66.84375 10.320312 C 66.84375 10.796875 66.65625 11.226562 66.367188 11.515625 C 66.0625 11.824219 65.652344 12.011719 65.195312 12.011719 Z M 78.507812 4.6875 C 79.167969 4.6875 79.765625 4.414062 80.207031 3.988281 C 80.632812 3.558594 80.902344 2.960938 80.902344 2.3125 C 80.902344 1.664062 80.632812 1.066406 80.207031 0.625 C 79.78125 0.195312 79.1875 -0.078125 78.507812 -0.078125 C 77.84375 -0.078125 77.246094 0.195312 76.824219 0.625 C 76.398438 1.050781 76.125 1.648438 76.125 2.3125 C 76.125 2.960938 76.398438 3.558594 76.824219 3.988281 C 77.246094 4.429688 77.84375 4.6875 78.507812 4.6875 Z M 69.769531 4.6875 C 70.277344 4.6875 70.667969 4.550781 70.941406 4.292969 C 71.214844 4.039062 71.367188 3.695312 71.367188 3.304688 C 71.367188 2.875 71.195312 2.585938 70.941406 2.398438 C 70.6875 2.210938 70.347656 2.089844 69.988281 1.972656 C 69.699219 1.886719 69.445312 1.816406 69.273438 1.699219 C 69.105469 1.597656 69.003906 1.460938 69.003906 1.238281 C 69.003906 1.050781 69.070312 0.894531 69.191406 0.777344 C 69.324219 0.65625 69.511719 0.589844 69.785156 0.589844 C 69.953125 0.589844 70.125 0.625 70.296875 0.675781 C 70.464844 0.726562 70.636719 0.8125 70.804688 0.929688 L 71.179688 0.351562 C 70.992188 0.214844 70.789062 0.109375 70.566406 0.0429688 C 70.328125 -0.0273438 70.089844 -0.078125 69.820312 -0.078125 C 69.34375 -0.078125 68.953125 0.0585938 68.695312 0.296875 C 68.441406 0.539062 68.289062 0.878906 68.289062 1.273438 C 68.289062 1.714844 68.460938 1.988281 68.714844 2.175781 C 68.96875 2.363281 69.308594 2.484375 69.664062 2.585938 C 69.953125 2.671875 70.210938 2.757812 70.378906 2.859375 C 70.550781 2.960938 70.652344 3.097656 70.652344 3.320312 C 70.652344 3.507812 70.585938 3.679688 70.429688 3.796875 C 70.296875 3.917969 70.074219 3.988281 69.785156 3.988281 C 69.546875 3.988281 69.34375 3.933594 69.140625 3.867188 C 68.933594 3.78125 68.730469 3.679688 68.542969 3.558594 L 68.355469 3.851562 L 68.171875 4.140625 C 68.355469 4.277344 68.578125 4.414062 68.851562 4.515625 C 69.105469 4.636719 69.410156 4.6875 69.769531 4.6875 Z M 65.058594 4.6875 C 65.722656 4.6875 66.316406 4.414062 66.757812 3.988281 C 67.183594 3.558594 67.457031 2.960938 67.457031 2.3125 C 67.457031 1.664062 67.183594 1.066406 66.757812 0.625 C 66.335938 0.195312 65.738281 -0.078125 65.058594 -0.078125 C 64.394531 -0.078125 63.800781 0.195312 63.375 0.625 C 62.949219 1.050781 62.679688 1.648438 62.679688 2.3125 C 62.679688 2.960938 62.949219 3.558594 63.375 3.988281 C 63.800781 4.429688 64.394531 4.6875 65.058594 4.6875 Z M 82.839844 0.0429688 L 83.894531 1.765625 L 84.949219 3.492188 L 84.949219 0.0429688 L 85.644531 0.0429688 L 85.644531 4.601562 L 84.796875 4.601562 L 83.707031 2.84375 L 82.621094 1.085938 L 82.621094 4.617188 L 81.941406 4.617188 L 81.941406 0.0585938 Z M 75.667969 0.0429688 L 75.667969 0.726562 L 74.238281 0.726562 L 74.238281 4.601562 L 73.492188 4.601562 L 73.492188 0.726562 L 72.078125 0.726562 L 72.078125 0.0429688 Z M 60.265625 0.0429688 C 60.671875 0.0429688 61.011719 0.179688 61.269531 0.382812 C 61.523438 0.605469 61.675781 0.914062 61.675781 1.253906 C 61.675781 1.460938 61.625 1.628906 61.539062 1.785156 C 61.4375 1.9375 61.320312 2.074219 61.148438 2.160156 C 61.371094 2.261719 61.558594 2.414062 61.675781 2.605469 C 61.796875 2.792969 61.863281 3.011719 61.863281 3.253906 C 61.863281 3.628906 61.710938 3.953125 61.453125 4.191406 C 61.199219 4.429688 60.84375 4.566406 60.417969 4.566406 L 58.480469 4.566406 L 58.480469 0.0078125 Z M 78.507812 4.003906 C 78.046875 4.003906 77.640625 3.816406 77.351562 3.507812 C 77.0625 3.203125 76.875 2.773438 76.875 2.3125 C 76.875 1.851562 77.0625 1.410156 77.351562 1.117188 C 77.640625 0.8125 78.0625 0.625 78.507812 0.625 C 78.964844 0.625 79.371094 0.8125 79.679688 1.117188 C 79.96875 1.425781 80.15625 1.851562 80.15625 2.3125 C 80.15625 2.792969 79.96875 3.21875 79.679688 3.507812 C 79.371094 3.832031 78.964844 4.003906 78.507812 4.003906 Z M 65.058594 4.003906 C 64.601562 4.003906 64.191406 3.816406 63.902344 3.507812 C 63.613281 3.203125 63.425781 2.773438 63.425781 2.3125 C 63.425781 1.851562 63.613281 1.410156 63.902344 1.117188 C 64.191406 0.8125 64.617188 0.625 65.058594 0.625 C 65.519531 0.625 65.925781 0.8125 66.230469 1.117188 C 66.519531 1.425781 66.707031 1.851562 66.707031 2.3125 C 66.707031 2.792969 66.519531 3.21875 66.230469 3.507812 C 65.925781 3.832031 65.519531 4.003906 65.058594 4.003906 Z M 60.382812 3.933594 C 60.589844 3.933594 60.757812 3.867188 60.894531 3.730469 C 61.011719 3.609375 61.097656 3.441406 61.097656 3.253906 C 61.097656 3.066406 61.03125 2.894531 60.894531 2.773438 C 60.757812 2.65625 60.589844 2.585938 60.382812 2.585938 L 59.210938 2.585938 L 59.210938 3.917969 Z M 60.265625 1.972656 C 60.453125 1.972656 60.621094 1.902344 60.742188 1.785156 C 60.859375 1.664062 60.929688 1.511719 60.929688 1.324219 C 60.929688 1.136719 60.859375 0.980469 60.742188 0.863281 C 60.621094 0.742188 60.453125 0.675781 60.265625 0.675781 L 59.210938 0.675781 L 59.210938 1.953125 Z M 60.265625 1.972656 "/>
</g>
</svg>
