<?xml version="1.0" encoding="UTF-8"?>
<svg xmlns="http://www.w3.org/2000/svg" xmlns:xlink="http://www.w3.org/1999/xlink" width="100px" height="px" viewBox="0 0 100 99" version="1.1">
<g id="surface1">
<path style=" stroke:none;fill-rule:nonzero;fill:rgb(82.745098%,7.058824%,27.058824%);fill-opacity:1;" d="M 0 0 L 99.53125 0 L 99.53125 99.316406 L 0 99.316406 Z M 0 0 "/>
<path style=" stroke:none;fill-rule:nonzero;fill:rgb(100%,100%,100%);fill-opacity:1;" d="M 5.796875 87.867188 L 9.796875 87.867188 C 11.238281 87.867188 13.828125 87.441406 13.828125 84.566406 C 13.828125 83.160156 12.761719 82.113281 11.207031 81.964844 L 11.207031 81.933594 C 12.566406 81.6875 13.484375 80.738281 13.484375 79.382812 C 13.484375 76.882812 11.273438 76.457031 9.796875 76.457031 L 5.796875 76.457031 Z M 8.09375 78.253906 L 8.976562 78.253906 C 10.027344 78.253906 11.1875 78.351562 11.1875 79.675781 C 11.1875 80.851562 9.992188 81.070312 9.027344 81.070312 L 8.09375 81.070312 Z M 8.09375 82.765625 L 9.171875 82.765625 C 10.320312 82.765625 11.53125 82.996094 11.53125 84.484375 C 11.53125 85.808594 10.238281 86.070312 9.171875 86.070312 L 8.09375 86.070312 Z M 8.09375 82.765625 "/>
<path style=" stroke:none;fill-rule:nonzero;fill:rgb(100%,100%,100%);fill-opacity:1;" d="M 15.5625 79.449219 L 17.515625 79.449219 L 17.515625 81.359375 L 17.546875 81.359375 C 17.644531 80.578125 18.546875 79.25 19.855469 79.25 C 20.070312 79.25 20.296875 79.25 20.53125 79.316406 L 20.53125 81.523438 C 20.332031 81.410156 19.9375 81.34375 19.546875 81.34375 C 17.757812 81.34375 17.757812 83.566406 17.757812 84.777344 L 17.757812 87.867188 L 15.5625 87.867188 Z M 15.5625 79.449219 "/>
<path style=" stroke:none;fill-rule:nonzero;fill:rgb(100%,100%,100%);fill-opacity:1;" d="M 21.839844 87.867188 L 24.035156 87.867188 L 24.035156 79.449219 L 21.839844 79.449219 Z M 21.839844 87.867188 "/>
<path style=" stroke:none;fill-rule:nonzero;fill:rgb(100%,100%,100%);fill-opacity:1;" d="M 31.867188 87.867188 L 33.996094 87.867188 L 33.996094 75.605469 L 31.800781 75.605469 L 31.800781 80.429688 L 31.765625 80.429688 C 31.113281 79.628906 30.34375 79.25 29.242188 79.25 C 26.65625 79.25 25.707031 81.3125 25.707031 83.632812 C 25.707031 85.941406 26.65625 88.066406 29.242188 88.066406 C 30.277344 88.066406 31.175781 87.738281 31.832031 86.917969 L 31.867188 86.917969 Z M 27.996094 83.632812 C 27.996094 82.503906 28.390625 80.953125 29.816406 80.953125 C 31.226562 80.953125 31.78125 82.457031 31.78125 83.632812 C 31.78125 84.824219 31.308594 86.363281 29.851562 86.363281 C 28.40625 86.363281 27.996094 84.792969 27.996094 83.632812 "/>
<path style=" stroke:none;fill-rule:nonzero;fill:rgb(100%,100%,100%);fill-opacity:1;" d="M 41.808594 79.449219 L 41.808594 80.59375 L 41.777344 80.59375 C 41.171875 79.628906 40.304688 79.25 39.1875 79.25 C 36.664062 79.25 35.617188 81.589844 35.617188 83.617188 C 35.617188 85.875 36.566406 87.867188 39.058594 87.867188 C 40.285156 87.867188 41.269531 87.246094 41.679688 86.527344 L 41.710938 86.527344 C 41.710938 87.980469 41.597656 89.796875 39.171875 89.796875 C 38.484375 89.796875 37.386719 89.421875 36.714844 89.0625 L 36.535156 90.925781 C 37.585938 91.367188 38.582031 91.5 39.449219 91.5 C 42.988281 91.5 43.90625 89.335938 43.90625 87.050781 L 43.90625 79.449219 Z M 39.777344 86.167969 C 38.515625 86.167969 37.910156 84.761719 37.910156 83.617188 C 37.910156 82.324219 38.386719 80.953125 39.878906 80.953125 C 41.15625 80.953125 41.710938 82.128906 41.710938 83.566406 C 41.710938 84.972656 41.15625 86.167969 39.777344 86.167969 "/>
<path style=" stroke:none;fill-rule:nonzero;fill:rgb(100%,100%,100%);fill-opacity:1;" d="M 52.835938 85.609375 C 52.019531 86.070312 51.101562 86.460938 50.035156 86.460938 C 48.675781 86.460938 47.722656 85.691406 47.625 84.335938 L 53.460938 84.335938 C 53.460938 81.390625 52.574219 79.25 49.445312 79.25 C 46.824219 79.25 45.527344 81.261719 45.527344 83.695312 C 45.527344 86.460938 47.152344 88.0625 49.9375 88.0625 C 51.117188 88.0625 52.03125 87.832031 52.835938 87.394531 Z M 47.625 82.832031 C 47.722656 81.703125 48.347656 80.851562 49.574219 80.851562 C 50.804688 80.851562 51.296875 81.769531 51.359375 82.832031 Z M 47.625 82.832031 "/>
<path style=" stroke:none;fill-rule:nonzero;fill:rgb(100%,100%,100%);fill-opacity:1;" d="M 55.082031 91.300781 L 57.277344 91.300781 L 57.277344 86.902344 L 57.308594 86.902344 C 58.078125 87.835938 58.847656 88.0625 59.78125 88.0625 C 62.421875 88.0625 63.371094 85.941406 63.371094 83.632812 C 63.371094 81.3125 62.421875 79.25 59.832031 79.25 C 58.539062 79.25 57.703125 79.824219 57.207031 80.640625 L 57.179688 80.640625 L 57.179688 79.449219 L 55.082031 79.449219 Z M 59.257812 80.953125 C 60.683594 80.953125 61.078125 82.507812 61.078125 83.632812 C 61.078125 84.792969 60.667969 86.363281 59.222656 86.363281 C 57.769531 86.363281 57.292969 84.828125 57.292969 83.632812 C 57.292969 82.457031 57.847656 80.953125 59.257812 80.953125 "/>
<path style=" stroke:none;fill-rule:nonzero;fill:rgb(100%,100%,100%);fill-opacity:1;" d="M 64.453125 83.714844 C 64.453125 86.132812 66.074219 88.0625 68.859375 88.0625 C 71.660156 88.0625 73.28125 86.132812 73.28125 83.714844 C 73.28125 80.933594 71.367188 79.25 68.859375 79.25 C 66.367188 79.25 64.453125 80.933594 64.453125 83.714844 M 66.746094 83.453125 C 66.746094 82.191406 67.433594 80.953125 68.859375 80.953125 C 70.300781 80.953125 70.988281 82.160156 70.988281 83.453125 C 70.988281 84.859375 70.546875 86.363281 68.859375 86.363281 C 67.1875 86.363281 66.746094 84.84375 66.746094 83.453125 "/>
<path style=" stroke:none;fill-rule:nonzero;fill:rgb(100%,100%,100%);fill-opacity:1;" d="M 74.953125 87.867188 L 77.148438 87.867188 L 77.148438 79.449219 L 74.953125 79.449219 Z M 74.953125 87.867188 "/>
<path style=" stroke:none;fill-rule:nonzero;fill:rgb(100%,100%,100%);fill-opacity:1;" d="M 79.363281 79.449219 L 81.441406 79.449219 L 81.441406 80.59375 L 81.476562 80.59375 C 82.164062 79.628906 83.097656 79.25 84.242188 79.25 C 86.242188 79.25 87.109375 80.65625 87.109375 82.554688 L 87.109375 87.867188 L 84.914062 87.867188 L 84.914062 83.371094 C 84.914062 82.34375 84.898438 80.953125 83.492188 80.953125 C 81.902344 80.953125 81.558594 82.667969 81.558594 83.746094 L 81.558594 87.867188 L 79.363281 87.867188 Z M 79.363281 79.449219 "/>
<path style=" stroke:none;fill-rule:nonzero;fill:rgb(100%,100%,100%);fill-opacity:1;" d="M 89.992188 81.050781 L 88.371094 81.050781 L 88.371094 79.449219 L 89.992188 79.449219 L 89.992188 77.765625 L 92.1875 77.0625 L 92.1875 79.449219 L 94.140625 79.449219 L 94.140625 81.050781 L 92.1875 81.050781 L 92.1875 84.972656 C 92.1875 85.691406 92.386719 86.363281 93.222656 86.363281 C 93.617188 86.363281 93.992188 86.28125 94.21875 86.136719 L 94.285156 87.867188 C 93.824219 87.996094 93.320312 88.0625 92.664062 88.0625 C 90.945312 88.0625 89.992188 87 89.992188 85.332031 Z M 89.992188 81.050781 "/>
</g>
</svg>
