<?xml version="1.0" encoding="UTF-8"?>
<svg xmlns="http://www.w3.org/2000/svg" xmlns:xlink="http://www.w3.org/1999/xlink" width="100px" height="px" viewBox="0 0 100 88" version="1.1">
<g id="surface1">
<path style=" stroke:none;fill-rule:nonzero;fill:rgb(0%,0%,0%);fill-opacity:1;" d="M 73.136719 65.390625 C 72.382812 65.742188 71.121094 65.742188 70.332031 65.742188 C 67.226562 65.707031 66.859375 65.335938 66.773438 63.28125 C 66.753906 62.980469 66.753906 62.46875 66.753906 61.90625 C 66.753906 60.746094 66.773438 59.269531 66.773438 58.582031 L 66.773438 57.140625 L 62.792969 57.140625 L 62.792969 58.582031 C 62.792969 61.378906 62.792969 63.773438 62.632812 65.039062 C 62.511719 65.917969 62.351562 66.535156 61.828125 66.640625 C 61.546875 66.691406 61.195312 66.761719 60.757812 66.761719 C 60.390625 66.761719 60.195312 66.867188 60.179688 67.097656 C 60.179688 67.394531 60.476562 67.484375 60.878906 67.484375 C 62.089844 67.484375 64 67.394531 64.703125 67.394531 C 66.492188 67.394531 68.507812 67.570312 73.085938 67.570312 C 73.191406 67.570312 73.277344 67.570312 73.382812 67.570312 C 74.277344 67.570312 74.628906 67.464844 74.804688 66.710938 C 74.960938 66.09375 75.207031 64.035156 75.207031 63.316406 C 75.207031 63.15625 75.207031 63.015625 75.171875 62.910156 C 75.136719 62.785156 75.03125 62.679688 74.871094 62.699219 C 74.609375 62.699219 74.503906 62.890625 74.453125 63.226562 C 74.242188 64.441406 73.890625 65.039062 73.136719 65.390625 M 23.375 67.132812 C 24.6875 67.710938 26.074219 67.941406 27.828125 67.941406 C 29.441406 67.941406 31.160156 67.660156 32.683594 66.675781 C 34.894531 65.230469 35.578125 63.105469 35.578125 61.328125 C 35.578125 58.40625 34.226562 56.347656 30.582031 53.515625 L 29.738281 52.882812 C 27.230469 50.964844 26.566406 49.945312 26.566406 48.574219 C 26.566406 46.796875 27.878906 45.546875 30.089844 45.53125 C 32.035156 45.53125 32.878906 46.410156 33.316406 46.992188 C 33.929688 47.765625 34.085938 48.695312 34.085938 48.941406 C 34.085938 49.3125 34.191406 49.578125 34.472656 49.578125 C 34.804688 49.558594 34.894531 49.242188 34.894531 48.574219 C 34.894531 46.214844 35.015625 45.335938 35.015625 44.933594 C 35.015625 44.667969 34.804688 44.546875 34.527344 44.492188 C 33.738281 44.28125 32.457031 43.964844 30.476562 43.964844 C 26.230469 43.964844 23.410156 46.390625 23.390625 49.789062 C 23.390625 52.269531 24.566406 54.429688 27.898438 57.050781 L 29.28125 58.144531 C 31.789062 60.078125 32.210938 61.46875 32.210938 62.925781 C 32.210938 64.492188 30.914062 66.304688 28.25 66.304688 C 26.390625 66.304688 24.652344 65.496094 24.003906 63.296875 C 23.847656 62.785156 23.722656 62.152344 23.722656 61.765625 C 23.722656 61.539062 23.6875 61.167969 23.339844 61.167969 C 22.988281 61.1875 22.917969 61.589844 22.882812 62.03125 C 22.847656 62.523438 22.726562 64.335938 22.726562 66.007812 C 22.742188 66.675781 22.882812 66.921875 23.375 67.132812 M 41.558594 67.132812 C 42.871094 67.710938 44.257812 67.921875 46.011719 67.921875 C 47.625 67.921875 49.34375 67.640625 50.867188 66.65625 C 53.078125 65.214844 53.761719 63.085938 53.761719 61.308594 C 53.761719 58.390625 52.394531 56.332031 48.765625 53.5 L 47.921875 52.867188 C 45.414062 50.949219 44.75 49.929688 44.75 48.554688 C 44.75 46.78125 46.0625 45.53125 48.273438 45.511719 C 50.21875 45.511719 51.0625 46.390625 51.5 46.972656 C 52.113281 47.746094 52.269531 48.679688 52.269531 48.925781 C 52.269531 49.292969 52.375 49.558594 52.65625 49.558594 C 52.988281 49.542969 53.078125 49.222656 53.078125 48.554688 C 53.078125 46.199219 53.199219 45.320312 53.199219 44.914062 C 53.199219 44.652344 52.988281 44.527344 52.710938 44.476562 C 51.921875 44.265625 50.640625 43.945312 48.660156 43.945312 C 44.414062 43.945312 41.59375 46.375 41.574219 49.769531 C 41.574219 52.25 42.75 54.414062 46.097656 57.035156 L 47.484375 58.125 C 49.992188 60.058594 50.410156 61.449219 50.410156 62.910156 C 50.410156 64.476562 49.113281 66.289062 46.433594 66.289062 C 44.589844 66.289062 42.835938 65.476562 42.1875 63.28125 C 42.03125 62.769531 41.90625 62.136719 41.90625 61.75 C 41.90625 61.519531 41.871094 61.152344 41.523438 61.152344 C 41.171875 61.167969 41.101562 61.574219 41.066406 62.011719 C 41.03125 62.503906 40.910156 64.316406 40.910156 66.007812 C 40.925781 66.675781 41.066406 66.921875 41.558594 67.132812 M 16.253906 65.40625 C 15.5 65.757812 14.238281 65.757812 13.449219 65.757812 C 10.34375 65.722656 9.996094 65.355469 9.90625 63.296875 C 9.890625 62.996094 9.890625 62.503906 9.890625 61.925781 C 9.890625 60.765625 9.90625 59.285156 9.90625 58.601562 L 9.90625 57.140625 L 5.910156 57.140625 L 5.910156 58.601562 C 5.910156 61.398438 5.910156 63.789062 5.75 65.054688 C 5.628906 65.9375 5.472656 66.550781 4.945312 66.65625 C 4.683594 66.710938 4.3125 66.78125 3.875 66.78125 C 3.507812 66.78125 3.3125 66.886719 3.3125 67.113281 C 3.3125 67.414062 3.613281 67.5 3.996094 67.5 C 5.207031 67.5 7.117188 67.414062 7.820312 67.414062 C 9.589844 67.414062 11.625 67.589844 16.203125 67.589844 C 16.308594 67.589844 16.394531 67.589844 16.5 67.589844 C 17.394531 67.589844 17.726562 67.484375 17.921875 66.726562 C 18.078125 66.113281 18.304688 64.054688 18.324219 63.332031 C 18.324219 63.175781 18.324219 63.03125 18.289062 62.925781 C 18.253906 62.804688 18.148438 62.699219 17.992188 62.699219 C 17.726562 62.699219 17.621094 62.890625 17.570312 63.226562 C 17.359375 64.457031 17.007812 65.054688 16.253906 65.40625 M 16.167969 54.027344 L 9.890625 54.027344 L 9.890625 46.375 C 9.90625 46.164062 9.925781 46.164062 10.011719 46.164062 C 10.609375 46.164062 13.800781 46.214844 14.308594 46.285156 C 15.816406 46.480469 16.0625 46.796875 16.273438 47.324219 C 16.414062 47.675781 16.449219 48.1875 16.449219 48.378906 C 16.449219 48.644531 16.535156 48.890625 16.796875 48.890625 C 17.078125 48.890625 17.167969 48.644531 17.183594 48.484375 C 17.238281 48.097656 17.308594 46.78125 17.339844 46.480469 C 17.429688 45.089844 17.585938 44.738281 17.585938 44.492188 C 17.585938 44.351562 17.535156 44.140625 17.324219 44.140625 C 17.148438 44.140625 16.957031 44.246094 16.816406 44.265625 C 16.585938 44.316406 16.097656 44.386719 15.519531 44.441406 C 14.957031 44.476562 8.925781 44.476562 7.960938 44.476562 C 7.117188 44.476562 5.207031 44.386719 3.59375 44.386719 C 3.15625 44.386719 2.859375 44.441406 2.839844 44.738281 C 2.839844 45.019531 3.121094 45.089844 3.4375 45.089844 C 3.859375 45.089844 4.367188 45.125 4.59375 45.179688 C 5.574219 45.390625 5.75 45.8125 5.839844 46.832031 C 5.890625 47.800781 5.890625 48.644531 5.890625 53.269531 L 5.890625 54.042969 L 0 54.042969 L 0 55.769531 L 16.148438 55.769531 Z M 57.074219 55.714844 L 73.050781 55.714844 L 73.050781 53.992188 L 66.773438 53.992188 L 66.773438 46.320312 C 66.789062 46.109375 66.789062 46.109375 66.894531 46.109375 C 67.492188 46.109375 70.683594 46.179688 71.171875 46.234375 C 72.679688 46.425781 72.925781 46.746094 73.136719 47.273438 C 73.277344 47.605469 73.3125 48.132812 73.3125 48.328125 C 73.3125 48.609375 73.398438 48.835938 73.679688 48.835938 C 73.960938 48.835938 74.046875 48.589844 74.066406 48.433594 C 74.136719 48.046875 74.1875 46.707031 74.222656 46.425781 C 74.3125 45.019531 74.46875 44.6875 74.46875 44.441406 C 74.46875 44.300781 74.417969 44.070312 74.207031 44.070312 C 74.015625 44.070312 73.839844 44.175781 73.699219 44.195312 C 73.453125 44.246094 72.980469 44.316406 72.402344 44.371094 C 71.839844 44.40625 65.808594 44.40625 64.84375 44.40625 C 64 44.40625 62.089844 44.316406 60.476562 44.316406 C 60.039062 44.316406 59.742188 44.371094 59.722656 44.667969 C 59.722656 44.949219 59.984375 45.019531 60.320312 45.019531 C 60.738281 45.019531 61.25 45.054688 61.476562 45.109375 C 62.441406 45.320312 62.632812 45.722656 62.703125 46.761719 C 62.773438 47.730469 62.773438 48.574219 62.773438 53.199219 L 62.773438 53.972656 L 56.863281 53.972656 L 56.863281 55.714844 Z M 82.570312 64.582031 L 82.625 64.511719 L 82.570312 64.582031 C 85.339844 66.992188 88.847656 67.90625 93.019531 67.90625 C 94.96875 67.90625 97.265625 67.695312 98.507812 67.203125 C 99.035156 66.992188 99.195312 66.796875 99.351562 66.269531 C 99.667969 65.214844 100.015625 62.59375 100.015625 62.207031 C 100.015625 61.960938 99.949219 61.660156 99.667969 61.660156 C 99.367188 61.660156 99.261719 61.871094 99.195312 62.328125 C 99.070312 62.855469 98.808594 63.542969 98.175781 64.300781 C 97.140625 65.566406 94.898438 65.953125 93.460938 65.953125 C 93.390625 65.953125 93.320312 65.953125 93.25 65.953125 C 87.902344 65.8125 83.273438 62.207031 83.253906 55.257812 L 83.253906 55.222656 C 83.253906 52.304688 83.832031 49.453125 86.007812 47.449219 C 87.324219 46.25 89.023438 45.582031 91.636719 45.582031 C 94.40625 45.582031 96.757812 46.410156 97.71875 47.449219 C 98.457031 48.222656 98.84375 49.257812 98.878906 50.191406 C 98.878906 50.613281 98.929688 50.929688 99.261719 50.949219 C 99.613281 50.949219 99.683594 50.613281 99.71875 50.175781 C 99.789062 49.558594 99.753906 47.886719 99.808594 46.902344 C 99.859375 45.847656 99.964844 45.496094 99.964844 45.230469 C 99.964844 45.003906 99.789062 44.808594 99.4375 44.773438 C 98.542969 44.6875 97.5625 44.40625 96.40625 44.265625 C 95.019531 44.089844 93.878906 43.964844 92.003906 43.964844 C 87.480469 43.964844 84.570312 45.195312 82.378906 47.203125 C 79.449219 49.894531 78.800781 53.5 78.800781 55.59375 C 78.78125 58.511719 79.589844 61.941406 82.570312 64.582031 M 3.296875 87.976562 L 100 87.976562 L 100 86.128906 L 3.296875 86.128906 Z M 74.242188 73.550781 C 74.242188 73.65625 74.347656 73.691406 74.398438 73.691406 C 74.46875 73.691406 74.644531 73.710938 74.699219 73.710938 C 74.996094 73.78125 75.011719 73.851562 75.046875 74.1875 C 75.066406 74.484375 75.066406 74.75 75.066406 76.242188 L 75.066406 76.417969 L 71.101562 76.417969 L 71.101562 76.242188 C 71.101562 74.75 71.101562 74.484375 71.121094 74.1875 C 71.15625 73.851562 71.191406 73.761719 71.402344 73.710938 C 71.523438 73.691406 71.558594 73.675781 71.628906 73.691406 C 71.679688 73.691406 71.785156 73.65625 71.785156 73.550781 C 71.785156 73.429688 71.648438 73.394531 71.558594 73.394531 C 71.277344 73.394531 70.664062 73.429688 70.628906 73.429688 C 70.59375 73.429688 69.980469 73.394531 69.558594 73.394531 C 69.472656 73.394531 69.332031 73.429688 69.332031 73.550781 C 69.332031 73.65625 69.4375 73.691406 69.488281 73.691406 C 69.558594 73.691406 69.734375 73.710938 69.789062 73.710938 C 70.070312 73.78125 70.101562 73.851562 70.136719 74.1875 C 70.15625 74.484375 70.15625 74.75 70.15625 76.242188 L 70.15625 77.914062 C 70.15625 78.828125 70.15625 79.585938 70.101562 79.972656 C 70.070312 80.253906 70.015625 80.414062 69.894531 80.429688 C 69.804688 80.449219 69.699219 80.464844 69.628906 80.464844 C 69.542969 80.464844 69.472656 80.535156 69.472656 80.605469 C 69.472656 80.730469 69.613281 80.765625 69.699219 80.765625 C 69.980469 80.765625 70.59375 80.730469 70.628906 80.730469 C 70.664062 80.730469 71.277344 80.765625 71.785156 80.765625 C 71.890625 80.765625 72.015625 80.730469 72.015625 80.605469 C 72.015625 80.535156 71.945312 80.464844 71.855469 80.464844 C 71.769531 80.464844 71.558594 80.449219 71.4375 80.429688 C 71.207031 80.394531 71.171875 80.253906 71.136719 79.972656 C 71.085938 79.585938 71.085938 78.828125 71.085938 77.914062 L 71.085938 76.949219 L 75.046875 76.949219 L 75.046875 77.914062 C 75.046875 78.828125 75.046875 79.585938 74.996094 79.972656 C 74.960938 80.253906 74.90625 80.414062 74.785156 80.429688 C 74.699219 80.449219 74.59375 80.464844 74.523438 80.464844 C 74.433594 80.464844 74.363281 80.535156 74.363281 80.605469 C 74.363281 80.730469 74.503906 80.765625 74.609375 80.765625 C 74.890625 80.765625 75.503906 80.730469 75.539062 80.730469 C 75.574219 80.730469 76.1875 80.765625 76.714844 80.765625 C 76.820312 80.765625 76.941406 80.730469 76.941406 80.605469 C 76.941406 80.535156 76.871094 80.464844 76.785156 80.464844 C 76.714844 80.464844 76.503906 80.449219 76.363281 80.429688 C 76.136719 80.394531 76.101562 80.253906 76.066406 79.972656 C 76.011719 79.585938 76.011719 78.828125 76.011719 77.914062 L 76.011719 76.242188 C 76.011719 74.75 76.011719 74.484375 76.03125 74.1875 C 76.066406 73.851562 76.101562 73.761719 76.3125 73.710938 C 76.414062 73.691406 76.46875 73.675781 76.539062 73.691406 C 76.589844 73.691406 76.695312 73.65625 76.695312 73.550781 C 76.695312 73.429688 76.554688 73.394531 76.46875 73.394531 C 76.1875 73.394531 75.574219 73.429688 75.539062 73.429688 C 75.503906 73.429688 74.890625 73.394531 74.46875 73.394531 C 74.363281 73.375 74.242188 73.410156 74.242188 73.550781 M 86.65625 77.054688 C 86.65625 78.792969 87.761719 80.871094 90.410156 80.871094 C 92.742188 80.871094 94.265625 79.058594 94.285156 76.894531 C 94.285156 74.644531 92.636719 73.253906 90.480469 73.253906 C 87.8125 73.253906 86.65625 75.488281 86.65625 77.054688 M 93.214844 77.160156 C 93.214844 79.886719 91.496094 80.324219 90.671875 80.34375 C 89.003906 80.34375 87.726562 78.96875 87.726562 76.773438 C 87.726562 74.714844 88.867188 73.726562 90.410156 73.726562 C 91.863281 73.746094 93.214844 74.925781 93.214844 77.160156 M 81.710938 80.871094 C 84.042969 80.871094 85.570312 79.058594 85.585938 76.894531 C 85.585938 74.644531 83.9375 73.253906 81.78125 73.253906 C 79.117188 73.253906 77.976562 75.488281 77.957031 77.054688 C 77.957031 78.792969 79.0625 80.871094 81.710938 80.871094 M 81.695312 73.746094 C 83.148438 73.746094 84.480469 74.925781 84.5 77.175781 C 84.5 79.902344 82.796875 80.34375 81.957031 80.359375 C 80.308594 80.359375 79.011719 78.988281 79.011719 76.789062 C 79.027344 74.730469 80.152344 73.746094 81.695312 73.746094 M 96.125 79.957031 C 96.089844 80.238281 96.039062 80.394531 95.914062 80.414062 C 95.828125 80.429688 95.722656 80.449219 95.652344 80.449219 C 95.5625 80.449219 95.492188 80.519531 95.492188 80.589844 C 95.492188 80.710938 95.632812 80.746094 95.722656 80.746094 C 95.863281 80.746094 96.070312 80.730469 96.265625 80.730469 C 96.457031 80.730469 96.617188 80.710938 96.652344 80.710938 C 96.929688 80.710938 97.210938 80.730469 97.617188 80.746094 C 98.019531 80.765625 98.507812 80.78125 99.195312 80.78125 C 99.226562 80.78125 99.28125 80.78125 99.316406 80.78125 C 99.703125 80.78125 99.824219 80.675781 99.859375 80.464844 C 99.949219 80.167969 100 79.605469 100 79.5 C 100 79.445312 100 79.410156 99.984375 79.355469 C 99.964844 79.304688 99.914062 79.269531 99.859375 79.269531 C 99.738281 79.269531 99.703125 79.390625 99.703125 79.464844 C 99.683594 79.621094 99.578125 79.851562 99.472656 79.992188 C 99.28125 80.21875 98.894531 80.253906 98.386719 80.238281 C 97.648438 80.238281 97.421875 80.167969 97.300781 80.042969 C 97.175781 79.9375 97.105469 79.320312 97.105469 77.914062 L 97.105469 76.226562 C 97.105469 74.730469 97.105469 74.46875 97.125 74.167969 C 97.160156 73.832031 97.195312 73.746094 97.421875 73.691406 C 97.527344 73.675781 97.667969 73.65625 97.71875 73.675781 C 97.773438 73.675781 97.878906 73.640625 97.878906 73.535156 C 97.878906 73.410156 97.738281 73.375 97.648438 73.375 C 97.371094 73.375 96.667969 73.410156 96.617188 73.410156 C 96.582031 73.410156 95.96875 73.375 95.546875 73.375 C 95.441406 73.375 95.316406 73.410156 95.316406 73.535156 C 95.316406 73.640625 95.421875 73.675781 95.476562 73.675781 C 95.546875 73.675781 95.722656 73.691406 95.773438 73.691406 C 96.054688 73.761719 96.089844 73.832031 96.125 74.167969 C 96.140625 74.46875 96.140625 74.730469 96.140625 76.226562 L 96.140625 77.898438 C 96.160156 78.8125 96.160156 79.570312 96.125 79.957031 M 65.351562 73.78125 C 66.175781 73.78125 66.894531 74.046875 67.191406 74.308594 C 67.421875 74.484375 67.5625 74.871094 67.5625 75.207031 C 67.5625 75.277344 67.5625 75.328125 67.578125 75.382812 C 67.597656 75.433594 67.648438 75.503906 67.71875 75.488281 C 67.859375 75.46875 67.875 75.347656 67.875 75.207031 C 67.894531 75.046875 67.894531 74.539062 67.910156 74.222656 C 67.929688 73.886719 67.964844 73.78125 67.964844 73.675781 C 67.964844 73.585938 67.875 73.480469 67.769531 73.480469 C 67.472656 73.464844 67.175781 73.410156 66.808594 73.339844 C 66.332031 73.253906 65.808594 73.234375 65.421875 73.234375 C 63.949219 73.234375 63.054688 73.691406 62.476562 74.273438 C 61.617188 75.136719 61.390625 76.277344 61.390625 76.929688 C 61.390625 77.84375 61.617188 78.953125 62.5625 79.816406 C 63.316406 80.5 64.316406 80.871094 65.738281 80.871094 C 66.351562 80.871094 67.070312 80.800781 67.472656 80.640625 C 67.648438 80.570312 67.71875 80.5 67.769531 80.308594 C 67.875 79.972656 67.980469 79.164062 67.980469 79.058594 C 67.980469 78.988281 67.980469 78.847656 67.824219 78.828125 C 67.71875 78.828125 67.667969 78.953125 67.648438 79.039062 C 67.613281 79.199219 67.492188 79.621094 67.316406 79.796875 C 66.964844 80.167969 66.421875 80.253906 65.71875 80.253906 C 63.738281 80.253906 62.386719 78.636719 62.386719 76.859375 C 62.386719 75.890625 62.546875 75.082031 63.210938 74.433594 C 63.546875 74.152344 64.105469 73.78125 65.351562 73.78125 M 18.027344 75.046875 C 18.027344 75.714844 18.269531 76.347656 19.289062 77.175781 L 19.707031 77.527344 C 20.515625 78.214844 20.761719 78.546875 20.761719 79.179688 C 20.761719 79.746094 20.359375 80.359375 19.480469 80.359375 C 18.867188 80.359375 18.289062 80.113281 18.164062 79.464844 C 18.128906 79.339844 18.128906 79.214844 18.128906 79.128906 C 18.128906 79.09375 18.128906 79.058594 18.113281 79.003906 C 18.097656 78.953125 18.027344 78.933594 17.992188 78.933594 C 17.851562 78.953125 17.832031 79.074219 17.832031 79.164062 C 17.816406 79.320312 17.78125 79.710938 17.78125 80.183594 C 17.761719 80.429688 17.816406 80.554688 17.972656 80.625 C 18.375 80.816406 18.832031 80.886719 19.289062 80.886719 C 19.8125 80.886719 20.339844 80.765625 20.761719 80.464844 C 21.445312 79.972656 21.601562 79.214844 21.601562 78.8125 C 21.601562 78.019531 21.304688 77.40625 20.183594 76.507812 L 19.917969 76.296875 C 19.007812 75.574219 18.796875 75.277344 18.796875 74.765625 C 18.796875 74.117188 19.253906 73.746094 19.882812 73.746094 C 20.726562 73.746094 20.9375 74.117188 20.988281 74.203125 C 21.042969 74.292969 21.09375 74.554688 21.113281 74.644531 C 21.113281 74.695312 21.128906 74.835938 21.269531 74.835938 C 21.425781 74.800781 21.410156 74.679688 21.410156 74.539062 C 21.410156 73.886719 21.445312 73.585938 21.445312 73.535156 C 21.445312 73.5 21.445312 73.445312 21.390625 73.410156 C 21.339844 73.375 21.304688 73.375 21.269531 73.375 C 21.199219 73.375 21.128906 73.359375 20.953125 73.339844 C 20.707031 73.289062 20.429688 73.234375 20.058594 73.234375 C 18.832031 73.253906 18.027344 73.992188 18.027344 75.046875 M 23.933594 79.957031 C 23.898438 80.238281 23.847656 80.394531 23.722656 80.414062 C 23.636719 80.429688 23.53125 80.449219 23.460938 80.449219 C 23.375 80.449219 23.304688 80.519531 23.304688 80.589844 C 23.304688 80.710938 23.445312 80.746094 23.53125 80.746094 C 23.8125 80.746094 24.425781 80.710938 24.460938 80.710938 C 24.496094 80.710938 25.109375 80.746094 25.636719 80.746094 C 25.742188 80.746094 25.863281 80.710938 25.863281 80.589844 C 25.863281 80.519531 25.792969 80.449219 25.707031 80.449219 C 25.636719 80.449219 25.425781 80.429688 25.285156 80.414062 C 25.058594 80.378906 25.023438 80.238281 24.988281 79.957031 C 24.933594 79.570312 24.933594 78.8125 24.933594 77.898438 L 24.933594 76.226562 C 24.933594 74.730469 24.933594 74.46875 24.953125 74.167969 C 24.988281 73.832031 25.023438 73.746094 25.230469 73.691406 C 25.335938 73.675781 25.390625 73.65625 25.460938 73.675781 C 25.511719 73.675781 25.617188 73.640625 25.617188 73.535156 C 25.617188 73.410156 25.476562 73.375 25.390625 73.375 C 25.109375 73.375 24.496094 73.410156 24.460938 73.410156 C 24.425781 73.410156 23.8125 73.375 23.496094 73.375 C 23.390625 73.375 23.269531 73.410156 23.269531 73.535156 C 23.269531 73.640625 23.375 73.675781 23.425781 73.675781 C 23.496094 73.675781 23.601562 73.691406 23.707031 73.710938 C 23.882812 73.746094 23.953125 73.851562 23.96875 74.167969 C 23.988281 74.46875 23.988281 74.730469 23.988281 76.226562 L 23.988281 77.898438 C 23.988281 78.8125 23.988281 79.570312 23.933594 79.957031 M 10.941406 80.183594 C 11.644531 80.851562 12.625 80.886719 12.957031 80.886719 C 13.519531 80.886719 14.253906 80.78125 14.957031 80.167969 C 15.746094 79.464844 15.851562 78.300781 15.851562 77.265625 L 15.851562 76.242188 C 15.851562 74.75 15.851562 74.484375 15.867188 74.1875 C 15.902344 73.851562 15.9375 73.78125 16.148438 73.710938 C 16.253906 73.691406 16.308594 73.675781 16.359375 73.675781 C 16.414062 73.675781 16.519531 73.640625 16.519531 73.535156 C 16.519531 73.410156 16.378906 73.375 16.289062 73.375 C 16.007812 73.375 15.554688 73.410156 15.5 73.410156 C 15.449219 73.410156 14.921875 73.375 14.5 73.375 C 14.394531 73.375 14.273438 73.410156 14.273438 73.535156 C 14.273438 73.640625 14.378906 73.675781 14.429688 73.675781 C 14.5 73.675781 14.675781 73.691406 14.730469 73.710938 C 15.007812 73.78125 15.042969 73.851562 15.078125 74.1875 C 15.097656 74.484375 15.097656 74.75 15.097656 76.242188 L 15.097656 77.441406 C 15.097656 78.40625 14.972656 79.199219 14.570312 79.710938 C 14.238281 80.097656 13.695312 80.359375 13.152344 80.359375 C 12.605469 80.359375 12.222656 80.273438 11.785156 79.851562 C 11.398438 79.480469 11.097656 78.917969 11.097656 77.5625 L 11.097656 76.242188 C 11.097656 74.75 11.097656 74.484375 11.117188 74.1875 C 11.152344 73.851562 11.1875 73.761719 11.398438 73.710938 C 11.519531 73.691406 11.574219 73.675781 11.625 73.675781 C 11.679688 73.675781 11.785156 73.640625 11.785156 73.535156 C 11.785156 73.410156 11.644531 73.375 11.554688 73.375 C 11.273438 73.375 10.695312 73.410156 10.625 73.410156 C 10.539062 73.410156 9.960938 73.375 9.539062 73.375 C 9.433594 73.375 9.3125 73.410156 9.3125 73.535156 C 9.3125 73.640625 9.417969 73.675781 9.46875 73.675781 C 9.539062 73.675781 9.714844 73.691406 9.765625 73.710938 C 10.046875 73.78125 10.082031 73.851562 10.117188 74.1875 C 10.136719 74.484375 10.136719 74.75 10.136719 76.242188 L 10.136719 77.632812 C 10.082031 79.023438 10.449219 79.726562 10.941406 80.183594 M 28.617188 79.355469 L 28.492188 75.03125 C 28.914062 75.503906 29.863281 76.542969 30.824219 77.582031 C 31.84375 78.671875 33.191406 80.0625 33.316406 80.167969 C 33.824219 80.660156 33.910156 80.78125 34.070312 80.800781 L 34.085938 80.800781 C 34.15625 80.800781 34.226562 80.710938 34.226562 80.625 C 34.246094 80.519531 34.246094 80.359375 34.246094 80.042969 L 34.261719 74.46875 C 34.261719 73.886719 34.296875 73.761719 34.542969 73.691406 C 34.648438 73.65625 34.699219 73.675781 34.753906 73.675781 C 34.839844 73.675781 34.945312 73.621094 34.945312 73.515625 C 34.929688 73.359375 34.789062 73.359375 34.699219 73.359375 C 34.316406 73.359375 33.980469 73.394531 33.894531 73.394531 C 33.808594 73.394531 33.332031 73.359375 32.914062 73.359375 C 32.808594 73.359375 32.667969 73.339844 32.632812 73.515625 C 32.632812 73.535156 32.632812 73.585938 32.667969 73.621094 C 32.703125 73.65625 32.753906 73.675781 32.789062 73.675781 C 32.859375 73.675781 33.070312 73.691406 33.226562 73.726562 C 33.472656 73.796875 33.527344 73.921875 33.527344 74.554688 L 33.632812 79.164062 C 33.226562 78.722656 32.316406 77.722656 31.507812 76.84375 C 30.054688 75.277344 28.632812 73.746094 28.492188 73.585938 C 28.386719 73.5 28.265625 73.289062 28.089844 73.253906 C 28.003906 73.253906 27.933594 73.339844 27.933594 73.410156 C 27.914062 73.5 27.898438 73.621094 27.898438 73.816406 L 27.898438 79.269531 C 27.898438 80.148438 27.828125 80.378906 27.667969 80.394531 C 27.546875 80.449219 27.371094 80.449219 27.300781 80.449219 C 27.230469 80.449219 27.144531 80.5 27.144531 80.589844 C 27.144531 80.730469 27.300781 80.746094 27.371094 80.746094 C 27.792969 80.746094 28.214844 80.710938 28.285156 80.710938 C 28.351562 80.710938 28.757812 80.746094 29.28125 80.746094 C 29.386719 80.746094 29.527344 80.730469 29.546875 80.589844 C 29.546875 80.5 29.457031 80.449219 29.386719 80.449219 C 29.300781 80.449219 29.109375 80.429688 28.933594 80.394531 C 28.722656 80.34375 28.632812 80.148438 28.617188 79.355469 M 3.4375 73.675781 C 3.507812 73.675781 3.683594 73.691406 3.734375 73.710938 C 4.015625 73.78125 4.050781 73.851562 4.085938 74.1875 C 4.101562 74.484375 4.101562 74.75 4.101562 76.242188 L 4.101562 77.914062 C 4.101562 78.828125 4.101562 79.585938 4.050781 79.972656 C 4.015625 80.253906 3.960938 80.414062 3.839844 80.429688 C 3.753906 80.449219 3.648438 80.464844 3.578125 80.464844 C 3.488281 80.464844 3.417969 80.535156 3.417969 80.605469 C 3.417969 80.730469 3.558594 80.765625 3.648438 80.765625 C 3.789062 80.765625 4.015625 80.746094 4.191406 80.746094 C 4.382812 80.730469 4.558594 80.730469 4.578125 80.730469 C 4.613281 80.730469 4.875 80.746094 5.15625 80.765625 C 5.4375 80.78125 5.734375 80.800781 5.839844 80.800781 C 7.503906 80.800781 8.328125 79.710938 8.328125 78.652344 C 8.328125 77.546875 7.453125 76.878906 6.75 76.613281 C 7.171875 76.171875 7.574219 75.699219 7.574219 74.941406 C 7.574219 74.433594 7.1875 73.429688 5.59375 73.429688 C 5.15625 73.429688 4.785156 73.464844 4.558594 73.464844 C 4.523438 73.464844 3.910156 73.429688 3.488281 73.429688 C 3.382812 73.429688 3.261719 73.464844 3.261719 73.585938 C 3.296875 73.65625 3.382812 73.675781 3.4375 73.675781 M 7.347656 79.039062 C 7.347656 80.0625 6.574219 80.308594 6.085938 80.308594 C 5.925781 80.308594 5.523438 80.289062 5.296875 80.167969 C 5.03125 80.027344 5.050781 79.972656 5.015625 79.5 C 4.996094 79.375 4.996094 78.179688 4.996094 77.457031 L 4.996094 76.929688 C 5.15625 76.929688 5.59375 76.929688 5.699219 76.949219 C 5.925781 76.984375 6.136719 77 6.453125 77.210938 C 7.171875 77.6875 7.347656 78.476562 7.347656 79.039062 M 5.015625 76.4375 L 5.015625 73.886719 C 5.015625 73.886719 5.03125 73.867188 5.066406 73.867188 C 5.207031 73.832031 5.402344 73.816406 5.507812 73.816406 C 6.363281 73.816406 6.699219 74.589844 6.699219 75.363281 C 6.699219 75.734375 6.558594 76.050781 6.382812 76.261719 C 6.191406 76.472656 6.121094 76.472656 5.574219 76.472656 C 5.226562 76.472656 5.066406 76.4375 5.015625 76.4375 Z M 36.542969 73.691406 C 36.628906 73.691406 36.789062 73.710938 36.839844 73.710938 C 37.121094 73.78125 37.15625 73.851562 37.191406 74.1875 C 37.207031 74.484375 37.207031 74.75 37.207031 76.242188 L 37.207031 77.914062 C 37.207031 78.828125 37.207031 79.585938 37.15625 79.972656 C 37.121094 80.253906 37.066406 80.414062 36.945312 80.429688 C 36.859375 80.449219 36.753906 80.464844 36.683594 80.464844 C 36.59375 80.464844 36.523438 80.535156 36.523438 80.605469 C 36.523438 80.730469 36.664062 80.765625 36.753906 80.765625 C 36.910156 80.765625 37.121094 80.746094 37.296875 80.746094 C 37.488281 80.730469 37.664062 80.730469 37.683594 80.730469 C 37.820312 80.730469 38.050781 80.746094 38.417969 80.765625 C 38.785156 80.78125 39.3125 80.800781 40.03125 80.800781 C 40.066406 80.800781 40.121094 80.800781 40.15625 80.800781 C 40.417969 80.800781 40.574219 80.730469 40.628906 80.484375 C 40.679688 80.273438 40.75 79.640625 40.75 79.535156 C 40.75 79.5 40.75 79.464844 40.734375 79.410156 C 40.734375 79.375 40.679688 79.304688 40.609375 79.304688 C 40.488281 79.304688 40.453125 79.429688 40.433594 79.515625 C 40.363281 79.902344 40.277344 80.042969 40.050781 80.132812 C 39.839844 80.21875 39.417969 80.238281 39.171875 80.238281 C 38.242188 80.203125 38.207031 80.167969 38.15625 79.535156 C 38.15625 79.464844 38.15625 79.304688 38.15625 79.09375 C 38.15625 78.6875 38.15625 78.125 38.15625 77.898438 L 38.15625 77.070312 C 38.347656 77.070312 39.242188 77.089844 39.488281 77.125 C 39.839844 77.160156 39.875 77.28125 39.910156 77.40625 C 39.945312 77.511719 39.945312 77.597656 39.945312 77.703125 C 39.945312 77.773438 39.996094 77.863281 40.085938 77.863281 C 40.171875 77.863281 40.222656 77.773438 40.222656 77.738281 C 40.242188 77.6875 40.242188 77.632812 40.242188 77.597656 C 40.242188 77.546875 40.257812 77.195312 40.277344 77 C 40.292969 76.683594 40.347656 76.542969 40.347656 76.453125 C 40.347656 76.417969 40.347656 76.382812 40.3125 76.347656 C 40.292969 76.3125 40.242188 76.296875 40.207031 76.296875 C 40.101562 76.3125 40.066406 76.382812 39.996094 76.453125 C 39.945312 76.523438 39.839844 76.542969 39.609375 76.558594 C 39.417969 76.578125 38.347656 76.578125 38.136719 76.578125 L 38.136719 73.921875 C 38.332031 73.921875 39.261719 73.9375 39.398438 73.957031 C 39.910156 74.027344 39.945312 74.097656 40.015625 74.238281 C 40.050781 74.328125 40.066406 74.484375 40.066406 74.554688 C 40.066406 74.625 40.101562 74.765625 40.222656 74.765625 C 40.347656 74.75 40.347656 74.644531 40.363281 74.589844 C 40.382812 74.46875 40.398438 74.046875 40.417969 73.957031 C 40.453125 73.691406 40.488281 73.605469 40.488281 73.5 C 40.488281 73.445312 40.488281 73.359375 40.363281 73.324219 C 40.277344 73.324219 40.222656 73.375 40.222656 73.375 C 40.15625 73.394531 39.996094 73.410156 39.820312 73.429688 C 39.609375 73.445312 37.71875 73.445312 37.648438 73.445312 L 37.261719 73.429688 C 37.050781 73.410156 36.789062 73.410156 36.578125 73.410156 C 36.488281 73.410156 36.347656 73.445312 36.347656 73.570312 C 36.382812 73.65625 36.472656 73.675781 36.542969 73.691406 "/>
<path style=" stroke:none;fill-rule:nonzero;fill:rgb(0%,0%,0%);fill-opacity:1;" d="M 18.027344 75.046875 C 18.027344 75.714844 18.269531 76.347656 19.289062 77.175781 L 19.707031 77.527344 C 20.515625 78.214844 20.761719 78.546875 20.777344 79.179688 C 20.777344 79.746094 20.375 80.359375 19.5 80.359375 C 18.886719 80.359375 18.304688 80.113281 18.183594 79.464844 C 18.148438 79.339844 18.148438 79.214844 18.148438 79.128906 C 18.148438 79.09375 18.148438 79.058594 18.128906 79.003906 C 18.113281 78.953125 18.042969 78.933594 18.007812 78.933594 C 17.886719 78.953125 17.867188 79.074219 17.851562 79.164062 C 17.832031 79.320312 17.796875 79.710938 17.796875 80.183594 C 17.78125 80.429688 17.832031 80.554688 17.992188 80.625 C 18.394531 80.816406 18.851562 80.886719 19.304688 80.886719 C 19.832031 80.886719 20.359375 80.765625 20.777344 80.464844 C 21.460938 79.972656 21.621094 79.214844 21.621094 78.8125 C 21.621094 78.019531 21.320312 77.40625 20.199219 76.507812 L 19.9375 76.296875 C 19.023438 75.574219 18.816406 75.277344 18.816406 74.765625 C 18.816406 74.117188 19.269531 73.746094 19.902344 73.746094 C 20.742188 73.746094 20.972656 74.117188 21.023438 74.203125 C 21.078125 74.292969 21.128906 74.554688 21.148438 74.644531 C 21.148438 74.695312 21.164062 74.835938 21.304688 74.835938 C 21.460938 74.800781 21.445312 74.679688 21.445312 74.539062 C 21.445312 73.886719 21.480469 73.585938 21.480469 73.535156 C 21.480469 73.5 21.480469 73.445312 21.425781 73.410156 C 21.390625 73.375 21.339844 73.375 21.304688 73.375 C 21.234375 73.375 21.164062 73.359375 20.988281 73.339844 C 20.742188 73.289062 20.464844 73.234375 20.09375 73.234375 C 18.832031 73.253906 18.027344 73.992188 18.027344 75.046875 "/>
<path style=" stroke:none;fill-rule:nonzero;fill:rgb(0%,0%,0%);fill-opacity:1;" d="M 47.941406 75.046875 C 47.941406 75.714844 48.183594 76.347656 49.203125 77.175781 L 49.621094 77.527344 C 50.429688 78.214844 50.675781 78.546875 50.691406 79.179688 C 50.691406 79.746094 50.289062 80.359375 49.414062 80.359375 C 48.800781 80.359375 48.21875 80.113281 48.097656 79.464844 C 48.0625 79.339844 48.0625 79.214844 48.0625 79.128906 C 48.0625 79.09375 48.0625 79.058594 48.042969 79.003906 C 48.027344 78.953125 47.957031 78.933594 47.921875 78.933594 C 47.800781 78.953125 47.78125 79.074219 47.765625 79.164062 C 47.746094 79.320312 47.710938 79.710938 47.710938 80.183594 C 47.695312 80.429688 47.746094 80.554688 47.90625 80.625 C 48.308594 80.816406 48.765625 80.886719 49.21875 80.886719 C 49.746094 80.886719 50.273438 80.765625 50.691406 80.464844 C 51.375 79.972656 51.535156 79.214844 51.535156 78.8125 C 51.535156 78.019531 51.234375 77.40625 50.113281 76.507812 L 49.851562 76.296875 C 48.9375 75.574219 48.730469 75.277344 48.730469 74.765625 C 48.730469 74.117188 49.183594 73.746094 49.816406 73.746094 C 50.65625 73.746094 50.867188 74.117188 50.9375 74.203125 C 50.992188 74.292969 51.042969 74.554688 51.042969 74.644531 C 51.042969 74.695312 51.0625 74.835938 51.199219 74.835938 C 51.359375 74.800781 51.339844 74.679688 51.359375 74.539062 C 51.359375 73.886719 51.394531 73.585938 51.394531 73.535156 C 51.394531 73.5 51.394531 73.445312 51.339844 73.410156 C 51.289062 73.375 51.253906 73.375 51.21875 73.375 C 51.148438 73.375 51.078125 73.359375 50.902344 73.339844 C 50.65625 73.289062 50.378906 73.234375 50.007812 73.234375 C 48.746094 73.253906 47.941406 73.992188 47.941406 75.046875 "/>
<path style=" stroke:none;fill-rule:nonzero;fill:rgb(0%,0%,0%);fill-opacity:1;" d="M 56.496094 75.046875 C 56.496094 75.714844 56.742188 76.347656 57.757812 77.175781 L 58.179688 77.527344 C 58.988281 78.214844 59.230469 78.546875 59.25 79.179688 C 59.25 79.746094 58.847656 80.359375 57.96875 80.359375 C 57.355469 80.359375 56.777344 80.113281 56.65625 79.464844 C 56.621094 79.339844 56.621094 79.214844 56.621094 79.128906 C 56.621094 79.09375 56.621094 79.058594 56.601562 79.003906 C 56.585938 78.953125 56.515625 78.933594 56.480469 78.933594 C 56.339844 78.953125 56.320312 79.074219 56.320312 79.164062 C 56.320312 79.320312 56.269531 79.710938 56.269531 80.183594 C 56.25 80.429688 56.304688 80.554688 56.460938 80.625 C 56.863281 80.816406 57.320312 80.886719 57.777344 80.886719 C 58.300781 80.886719 58.828125 80.765625 59.25 80.464844 C 59.933594 79.972656 60.089844 79.214844 60.089844 78.8125 C 60.089844 78.019531 59.8125 77.40625 58.671875 76.507812 L 58.40625 76.296875 C 57.496094 75.574219 57.285156 75.277344 57.285156 74.765625 C 57.285156 74.117188 57.742188 73.746094 58.371094 73.746094 C 59.214844 73.746094 59.425781 74.117188 59.476562 74.203125 C 59.53125 74.292969 59.582031 74.554688 59.601562 74.644531 C 59.601562 74.695312 59.617188 74.835938 59.757812 74.835938 C 59.914062 74.800781 59.898438 74.679688 59.898438 74.539062 C 59.898438 73.886719 59.933594 73.585938 59.933594 73.535156 C 59.933594 73.5 59.914062 73.445312 59.878906 73.410156 C 59.84375 73.375 59.792969 73.375 59.757812 73.375 C 59.6875 73.375 59.617188 73.359375 59.441406 73.339844 C 59.195312 73.289062 58.917969 73.234375 58.546875 73.234375 C 57.304688 73.253906 56.496094 73.992188 56.496094 75.046875 "/>
<path style=" stroke:none;fill-rule:nonzero;fill:rgb(0%,0%,0%);fill-opacity:1;" d="M 42.503906 75.046875 C 42.503906 75.714844 42.75 76.347656 43.765625 77.175781 L 44.1875 77.527344 C 44.992188 78.214844 45.238281 78.546875 45.257812 79.179688 C 45.257812 79.746094 44.855469 80.359375 43.976562 80.359375 C 43.363281 80.359375 42.785156 80.113281 42.660156 79.464844 C 42.625 79.339844 42.625 79.214844 42.625 79.128906 C 42.625 79.09375 42.625 79.058594 42.609375 79.003906 C 42.589844 78.953125 42.519531 78.933594 42.488281 78.933594 C 42.347656 78.953125 42.328125 79.074219 42.328125 79.164062 C 42.328125 79.320312 42.277344 79.710938 42.277344 80.183594 C 42.257812 80.429688 42.3125 80.554688 42.46875 80.625 C 42.871094 80.816406 43.328125 80.886719 43.785156 80.886719 C 44.308594 80.886719 44.835938 80.765625 45.257812 80.464844 C 45.941406 79.972656 46.097656 79.214844 46.097656 78.8125 C 46.097656 78.019531 45.800781 77.40625 44.679688 76.507812 L 44.414062 76.296875 C 43.503906 75.574219 43.292969 75.277344 43.292969 74.765625 C 43.292969 74.117188 43.75 73.746094 44.378906 73.746094 C 45.222656 73.746094 45.433594 74.117188 45.484375 74.203125 C 45.539062 74.292969 45.589844 74.554688 45.609375 74.644531 C 45.609375 74.695312 45.625 74.835938 45.765625 74.835938 C 45.921875 74.800781 45.90625 74.679688 45.90625 74.539062 C 45.90625 73.886719 45.941406 73.585938 45.941406 73.535156 C 45.941406 73.5 45.921875 73.445312 45.886719 73.410156 C 45.835938 73.375 45.800781 73.375 45.765625 73.375 C 45.695312 73.375 45.625 73.359375 45.449219 73.339844 C 45.203125 73.289062 44.921875 73.234375 44.554688 73.234375 C 43.308594 73.253906 42.503906 73.992188 42.503906 75.046875 "/>
<path style=" stroke:none;fill-rule:nonzero;fill:rgb(0%,0%,0%);fill-opacity:1;" d="M 63.722656 27.976562 L 63.722656 15.378906 L 48.027344 15.378906 L 51.199219 16.503906 L 51.199219 17.667969 C 51.199219 18.210938 51.183594 19.390625 51.183594 20.324219 C 51.183594 20.78125 51.183594 21.183594 51.199219 21.429688 C 51.269531 23.085938 51.550781 23.367188 54.023438 23.402344 C 54.65625 23.402344 55.65625 23.402344 56.269531 23.121094 C 56.863281 22.839844 57.144531 22.363281 57.320312 21.378906 C 57.355469 21.113281 57.445312 20.957031 57.652344 20.957031 C 57.777344 20.957031 57.863281 21.042969 57.882812 21.132812 C 57.917969 21.21875 57.917969 21.34375 57.917969 21.464844 C 57.917969 22.027344 57.722656 23.664062 57.601562 24.175781 C 57.460938 24.773438 57.179688 24.859375 56.460938 24.859375 L 56.214844 24.859375 C 52.570312 24.859375 50.957031 24.71875 49.535156 24.71875 C 48.992188 24.71875 47.464844 24.789062 46.484375 24.789062 C 46.167969 24.789062 45.941406 24.71875 45.941406 24.472656 C 45.941406 24.296875 46.097656 24.210938 46.398438 24.210938 C 46.746094 24.210938 47.046875 24.15625 47.253906 24.121094 C 47.675781 24.035156 47.800781 23.558594 47.90625 22.855469 C 48.027344 21.851562 48.027344 19.9375 48.027344 17.703125 L 48.027344 15.433594 L 39.574219 15.433594 L 39.574219 28.027344 C 39.574219 28.378906 39.679688 28.589844 39.910156 28.75 L 51.148438 35.433594 C 51.515625 35.660156 51.761719 35.660156 52.128906 35.433594 L 63.371094 28.75 C 63.632812 28.554688 63.722656 28.328125 63.722656 27.976562 "/>
<path style=" stroke:none;fill-rule:nonzero;fill:rgb(0%,0%,0%);fill-opacity:1;" d="M 63.300781 0.0234375 L 39.996094 0.0234375 C 39.769531 0.0234375 39.574219 0.214844 39.574219 0.445312 L 39.574219 14.023438 L 48.027344 14.023438 L 48.027344 13.410156 C 48.027344 9.734375 48.027344 9.046875 47.976562 8.289062 C 47.921875 7.464844 47.765625 7.148438 46.992188 6.972656 C 46.816406 6.917969 46.398438 6.902344 46.0625 6.902344 C 45.800781 6.902344 45.589844 6.847656 45.589844 6.621094 C 45.609375 6.375 45.835938 6.339844 46.1875 6.339844 C 47.464844 6.339844 48.992188 6.410156 49.65625 6.410156 C 50.429688 6.410156 55.234375 6.410156 55.691406 6.390625 C 56.144531 6.339844 56.53125 6.304688 56.722656 6.25 C 56.828125 6.234375 56.96875 6.164062 57.128906 6.144531 C 57.304688 6.144531 57.339844 6.320312 57.339844 6.425781 C 57.339844 6.621094 57.214844 6.882812 57.144531 8.007812 C 57.109375 8.253906 57.074219 9.3125 57.023438 9.609375 C 57.003906 9.734375 56.933594 9.925781 56.707031 9.925781 C 56.496094 9.925781 56.425781 9.734375 56.425781 9.523438 C 56.425781 9.363281 56.410156 8.960938 56.285156 8.679688 C 56.109375 8.253906 55.933594 8.007812 54.726562 7.851562 C 54.324219 7.796875 51.78125 7.761719 51.304688 7.761719 C 51.21875 7.78125 51.21875 7.78125 51.199219 7.9375 L 51.199219 14.042969 L 63.722656 14.042969 L 63.722656 0.425781 C 63.722656 0.199219 63.527344 0.0234375 63.300781 0.0234375 "/>
</g>
</svg>
