<?xml version="1.0" encoding="UTF-8"?>
<svg xmlns="http://www.w3.org/2000/svg" xmlns:xlink="http://www.w3.org/1999/xlink" width="100px" height="px" viewBox="0 0 100 100" version="1.1">
<g id="surface1">
<rect x="0" y="0" width="100" height="100" style="fill:rgb(45.098039%,60%,77.647059%);fill-opacity:1;stroke:none;"/>
<path style=" stroke:none;fill-rule:evenodd;fill:rgb(100%,100%,100%);fill-opacity:1;" d="M 88.8125 22.945312 L 85.296875 22.945312 L 85.296875 10.003906 L 88.609375 10.003906 L 88.609375 11.453125 C 89.023438 10.582031 90.054688 9.8125 91.402344 9.714844 C 93.679688 9.617188 95.230469 10.875 95.230469 13.578125 L 95.230469 22.945312 L 91.609375 22.945312 L 91.609375 13.191406 C 91.609375 12.03125 91.609375 11.066406 90.78125 10.875 C 90.46875 10.777344 89.953125 10.875 89.539062 11.164062 C 89.023438 11.648438 88.8125 12.226562 88.8125 13.191406 Z M 27.652344 16.472656 C 27.652344 18.886719 27.652344 20.820312 27.238281 21.785156 C 26.929688 22.265625 26.617188 22.558594 25.890625 22.558594 C 25.273438 22.558594 24.859375 22.265625 24.652344 21.785156 C 24.132812 20.820312 24.132812 18.886719 24.132812 16.472656 C 24.132812 14.15625 24.132812 12.128906 24.648438 11.164062 C 24.859375 10.679688 25.273438 10.390625 25.890625 10.390625 C 26.617188 10.390625 26.929688 10.679688 27.238281 11.164062 C 27.757812 12.128906 27.652344 14.15625 27.652344 16.476562 M 28.996094 10.875 C 28.167969 10.195312 27.132812 9.714844 25.890625 9.714844 C 24.652344 9.714844 23.71875 10.199219 22.789062 10.875 C 21.339844 12.03125 20.40625 14.15625 20.40625 16.472656 C 20.40625 18.886719 21.339844 20.914062 22.789062 22.074219 C 23.71875 22.75 24.652344 23.234375 25.890625 23.234375 C 27.132812 23.234375 28.171875 22.75 29 22.074219 C 30.550781 20.914062 31.378906 18.886719 31.378906 16.472656 C 31.378906 14.15625 30.550781 12.03125 29 10.875 M 65.117188 27.867188 L 65.117188 31.34375 L 64.390625 31.34375 C 63.976562 29.894531 63.355469 28.640625 61.699219 28.542969 C 60.664062 28.449219 59.734375 29.027344 59.632812 29.894531 C 59.527344 30.765625 59.835938 31.535156 61.699219 32.503906 C 64.082031 33.757812 65.945312 34.335938 65.945312 36.945312 C 65.945312 39.746094 63.355469 41.097656 61.183594 41.097656 L 57.042969 41.097656 L 57.042969 36.269531 L 57.765625 36.269531 C 58.285156 38.78125 59.113281 40.324219 61.078125 40.421875 C 62.320312 40.421875 63.25 39.746094 63.25 38.492188 C 63.25 37.234375 62.425781 36.460938 60.460938 35.398438 C 58.285156 34.144531 56.941406 33.371094 56.941406 31.632812 C 56.941406 29.316406 58.699219 27.867188 61.492188 27.867188 Z M 69.667969 22.945312 L 69.667969 13.578125 C 69.667969 10.875 68.117188 9.617188 65.839844 9.714844 C 64.289062 9.8125 63.355469 10.777344 62.941406 11.546875 C 62.425781 10.195312 61.285156 9.617188 59.628906 9.714844 C 58.285156 9.8125 57.25 10.582031 56.835938 11.453125 L 56.835938 10.003906 L 53.628906 10.003906 L 53.628906 22.941406 L 57.148438 22.941406 L 57.148438 13.191406 C 57.148438 12.226562 57.25 11.648438 57.871094 11.164062 C 58.285156 10.875 58.699219 10.777344 59.007812 10.875 C 59.835938 11.066406 59.835938 12.035156 59.835938 13.191406 L 59.835938 22.945312 L 63.355469 22.945312 L 63.355469 13.09375 C 63.355469 12.222656 63.5625 11.644531 64.082031 11.160156 C 64.496094 10.871094 64.910156 10.773438 65.21875 10.871094 C 66.046875 11.0625 66.148438 12.03125 66.148438 13.1875 L 66.148438 22.941406 L 69.667969 22.941406 Z M 33.757812 22.945312 L 37.378906 22.945312 L 37.378906 7.300781 L 33.757812 7.300781 Z M 45.96875 11.066406 C 46.695312 12.03125 46.695312 14.347656 46.695312 16.183594 C 46.695312 18.117188 46.796875 20.625 45.96875 21.6875 C 45.660156 22.074219 45.347656 22.265625 44.832031 22.265625 C 44.109375 22.265625 43.695312 21.496094 43.488281 20.238281 C 43.382812 19.082031 43.382812 17.632812 43.382812 16.085938 C 43.382812 13.480469 43.589844 10.582031 44.9375 10.582031 C 45.453125 10.582031 45.660156 10.777344 45.96875 11.066406 Z M 50.214844 22.945312 L 50.214844 7.300781 L 46.589844 7.300781 L 46.589844 10.96875 C 46.28125 10.292969 45.554688 9.8125 44.523438 9.8125 C 41.933594 9.8125 39.867188 12.320312 39.761719 16.183594 C 39.65625 18.792969 40.589844 23.136719 44.210938 23.136719 C 45.660156 23.136719 46.488281 22.363281 46.796875 21.6875 L 46.796875 22.945312 Z M 78.363281 15.21875 L 77.222656 15.894531 C 76.085938 16.570312 75.878906 17.441406 75.773438 18.40625 C 75.671875 19.179688 75.671875 19.851562 75.773438 21.011719 C 75.878906 22.074219 76.601562 22.265625 77.222656 22.074219 C 77.949219 21.785156 78.363281 20.53125 78.363281 19.179688 Z M 80.429688 10.390625 C 81.363281 10.875 81.984375 11.644531 81.984375 13.382812 L 81.984375 22.945312 L 78.570312 22.945312 L 78.570312 21.496094 C 78.15625 22.558594 77.015625 23.234375 75.464844 23.234375 C 74.222656 23.234375 72.050781 22.65625 72.050781 19.660156 C 72.050781 16.859375 74.015625 16.28125 76.191406 15.410156 C 78.15625 14.640625 78.363281 14.542969 78.363281 13.769531 L 78.363281 11.644531 C 78.363281 10.777344 77.84375 10.390625 76.808594 10.390625 C 76.398438 10.488281 75.671875 10.679688 75.671875 11.164062 C 75.566406 11.742188 76.292969 11.742188 76.398438 12.609375 C 76.5 13.964844 75.359375 14.445312 74.328125 14.351562 C 73.601562 14.351562 72.773438 13.964844 72.671875 12.902344 C 72.566406 11.164062 74.636719 9.714844 77.535156 9.714844 C 78.878906 9.714844 79.707031 10.003906 80.429688 10.390625 Z M 27.132812 33.273438 L 25.996094 33.953125 C 24.859375 34.628906 24.652344 35.496094 24.546875 36.460938 C 24.445312 37.234375 24.445312 38.007812 24.546875 39.070312 C 24.546875 40.226562 25.273438 40.421875 25.890625 40.132812 C 26.71875 39.84375 27.132812 38.683594 27.132812 37.234375 Z M 29.203125 28.445312 C 30.136719 29.027344 30.652344 29.703125 30.652344 31.441406 L 30.652344 41.097656 L 27.34375 41.097656 L 27.34375 39.648438 C 26.929688 40.613281 25.792969 41.289062 24.238281 41.289062 C 22.894531 41.289062 20.824219 40.808594 20.824219 37.8125 C 20.824219 35.015625 22.789062 34.433594 24.859375 33.5625 C 26.929688 32.695312 27.136719 32.601562 27.136719 31.921875 L 27.136719 29.796875 C 27.136719 28.835938 26.617188 28.449219 25.585938 28.542969 C 25.171875 28.542969 24.445312 28.738281 24.445312 29.21875 C 24.34375 29.898438 25.066406 29.898438 25.171875 30.765625 C 25.273438 32.019531 24.136719 32.503906 23.101562 32.503906 C 22.375 32.40625 21.546875 32.019531 21.445312 30.957031 C 21.339844 29.316406 23.410156 27.867188 26.308594 27.867188 C 27.65625 27.867188 28.480469 28.0625 29.207031 28.449219 Z M 54.25 31.730469 C 54.25 29.027344 52.695312 27.675781 50.421875 27.867188 C 49.28125 27.964844 48.351562 28.445312 47.832031 29.125 L 47.832031 25.359375 L 44.3125 25.359375 L 44.3125 34.242188 C 44.3125 37.523438 41.828125 40.613281 39.34375 40.515625 C 37.585938 40.515625 37.171875 39.261719 36.964844 37.910156 C 36.65625 35.980469 36.65625 33.757812 36.859375 31.34375 C 37.070312 29.800781 37.484375 28.542969 38.726562 28.542969 C 39.65625 28.542969 39.757812 29.125 39.34375 29.507812 C 38.929688 29.992188 38.3125 30.476562 38.621094 31.539062 C 38.929688 32.695312 40.898438 32.890625 41.828125 32.023438 C 42.554688 31.25 42.449219 29.992188 41.933594 29.21875 C 41.3125 28.253906 40.277344 27.867188 38.726562 27.867188 C 36.757812 27.867188 33.03125 29.507812 33.03125 34.722656 C 33.03125 40.324219 36.859375 41.289062 39.035156 41.289062 C 41.519531 41.289062 43.691406 39.261719 44.3125 37.621094 L 44.3125 41.097656 L 47.832031 41.097656 L 47.832031 31.34375 C 47.832031 30.378906 48.039062 29.800781 48.554688 29.316406 C 48.96875 29.027344 49.488281 28.929688 49.796875 29.027344 C 50.625 29.21875 50.625 30.1875 50.625 31.34375 L 50.625 41.097656 L 54.25 41.097656 Z M 18.027344 7.011719 L 18.027344 12.515625 L 17.304688 12.515625 C 16.683594 9.8125 15.335938 7.78125 13.476562 7.6875 C 12.234375 7.589844 11.507812 8.265625 10.886719 9.230469 C 10.265625 10.390625 9.957031 12.804688 9.957031 15.699219 C 9.957031 18.40625 10.058594 20.433594 10.371094 21.882812 C 10.578125 22.558594 11.09375 23.617188 12.4375 23.617188 C 13.164062 23.617188 13.679688 23.425781 13.992188 23.039062 C 14.507812 22.460938 14.613281 21.300781 14.613281 20.53125 L 14.613281 17.921875 C 14.613281 16.957031 14.304688 16.378906 13.785156 16.085938 C 13.371094 15.894531 12.75 15.894531 12.441406 15.796875 L 12.441406 15.121094 L 18.234375 15.121094 L 18.234375 28.929688 L 17.511719 28.929688 C 17.199219 27.867188 16.992188 27.09375 16.476562 26.226562 C 15.960938 25.359375 15.027344 24.390625 13.476562 24.390625 C 11.820312 24.296875 10.578125 25.261719 10.578125 26.710938 C 10.578125 28.640625 11.820312 29.125 14.09375 30.28125 C 16.269531 31.441406 19.0625 32.40625 19.0625 35.785156 C 19.0625 39.070312 16.0625 41.097656 12.648438 41.097656 L 7.164062 41.097656 L 7.164062 34.433594 L 7.886719 34.433594 C 8.816406 39.457031 11.09375 40.324219 12.648438 40.324219 C 14.613281 40.324219 15.542969 39.164062 15.542969 37.523438 C 15.441406 35.398438 13.886719 34.628906 11.714844 33.566406 C 8.609375 31.925781 7.164062 31.152344 7.164062 28.449219 C 7.265625 26.128906 9.230469 24.683594 11.40625 24.101562 C 6.851562 23.617188 5.507812 19.757812 5.609375 15.605469 C 5.609375 11.453125 8.195312 7.011719 13.265625 7.011719 Z M 18.027344 7.011719 "/>
</g>
</svg>
