<?xml version="1.0" encoding="UTF-8" standalone="no"?>
<!-- Created with Inkscape (http://www.inkscape.org/) by Marsupilami -->
<svg
   xmlns:svg="http://www.w3.org/2000/svg"
   xmlns="http://www.w3.org/2000/svg"
   version="1.0"
   width="1024"
   height="371"
   viewBox="0 0 130.91338 47.437645"
   id="svg4031">
  <defs
     id="defs4033" />
  <g
     transform="translate(-309.54331,-508.64336)"
     id="layer1">
    <path
       d="M 89.375,0 C 84.0825,0 80.86,2.51 79.09375,4.625 C 76.997503,7.1349998 75.75,10.56875 75.75,13.8125 C 75.75,16.8175 76.8625,19.64125 78.875,21.71875 C 80.987496,23.897499 83.97375,25.09375 87.28125,25.09375 C 91.433748,25.09375 94.95625,23.61625 97.46875,20.8125 C 99.771248,18.244999 101.03125,14.735 101.03125,10.9375 C 101.03125,4.6062495 96.13,0 89.375,0 z M 0,0.375 L 0,1 L 0.1875,1 C 1.435,1.0325 1.84375,1.1 1.84375,2.78125 L 1.84375,22.40625 C 1.84375,23.54125 1.6625,24.09375 0.1875,24.09375 L 0,24.09375 L 0,24.71875 L 17.5625,24.71875 L 17.5625,18.5625 L 16.96875,18.5625 L 16.9375,18.75 C 16.775,21.918749 16.11375,23.53125 12.9375,23.53125 L 9.40625,23.53125 C 6.1562501,23.53125 5,22.53875 5,19.78125 L 5,2.96875 C 5,2.225 4.9925,1.6275 5.3125,1.3125 C 5.5462498,1.08375 5.97625,0.98875 6.625,1 L 6.8125,1 L 6.8125,0.375 L 6.625,0.375 L 0,0.375 z M 105.625,0.375 L 105.625,1 L 105.8125,1 C 106.8075,1.03 107.375,1.045 107.375,2.96875 L 107.375,22.03125 C 107.375,23.811249 107.18625,24.03375 105.8125,24.09375 L 105.625,24.09375 L 105.625,24.71875 L 112.21875,24.71875 L 112.21875,24.09375 L 112.03125,24.09375 C 111.02625,24.06375 110.53125,24.04375 110.53125,22.21875 L 110.53125,13.25 L 112.25,13.25 C 112.71625,13.25 113.305,13.24625 113.5,13.21875 C 113.57625,13.21625 114.1225,13.19375 114.28125,13.1875 C 114.39625,13.365 116.6875,16.96875 116.6875,16.96875 C 116.9225,17.316249 119.0575,20.42375 120.78125,22.53125 C 122.5475,24.68625 124.38875,24.9375 125.625,24.9375 C 127.02625,24.9375 128.29,24.6575 128.9375,24.40625 C 129.64374,24.1225 130.11125,23.84625 130.8125,23.3125 L 130.90625,23.21875 L 130.75,22.75 L 130.3125,23 C 130.095,23.12625 129.795,23.28 129.4375,23.4375 C 129.10875,23.58625 128.73125,23.78125 127.875,23.78125 C 126.17375,23.78125 124.64,22.4575 124,21.6875 C 122.16875,19.59375 119.33,15.47 119,14.875 C 118.99375,14.86625 117.67625,12.7975 117.28125,12.1875 C 119.2225,11.0775 121.375,8.8225 121.375,5.875 C 121.375,3.3412498 120.10375,1.5375 117.78125,0.8125 C 116.38625,0.37124999 115.2075,0.375 112.625,0.375 L 105.625,0.375 z M 110.53125,1.4375 L 112.28125,1.4375 C 114.40125,1.4375 115.6875,1.8425 116.6875,2.84375 C 117.79875,3.9824999 118.46875,5.68125 118.46875,7.375 C 118.46875,10.1225 116.67125,11.2975 116.125,11.59375 C 115.39,11.99125 113.72625,12.1875 112.8125,12.1875 L 110.53125,12.1875 L 110.53125,1.4375 z M 87.125,1.65625 C 92.0175,1.6562499 99.125,6.39625 99.125,13.84375 C 99.125,18.94 94.50625,23.4375 89.25,23.4375 C 83.3375,23.4375 77.96875,17.40625 77.96875,10.8125 C 77.968751,5.3287502 82.69875,1.65625 87.125,1.65625 z"
       transform="translate(309.54331,508.64336)"
       id="path2490"
       style="fill:#21457a;fill-opacity:1;fill-rule:nonzero;stroke:none" />
    <path
       d="M 14,0.34375 L 14,1 C 16.33375,0.9375 17.658751,2.8224999 18.125,3.5625 L 30.5625,22.65625 L 30.75,22.9375 L 24.1875,31.65625 C 18.8,38.43125 16.4525,40.62 13.25,42.9375 C 11.25875,44.3775 7.6412499,46.415001 4,46.65625 C 3.5525,46.68625 2.33625,46.670001 1.625,46.5625 L 1.75,47.1875 C 2.59875,47.3475 3.2162501,47.42125 3.6875,47.4375 C 6.79875,47.5375 9.2900001,46.647501 11.5625,45.5625 C 13.84125,44.47625 15.546251,43.111251 16.5625,42.28125 C 17.87625,41.21875 21.17125,38.446252 25.8125,32.40625 C 25.8125,32.40625 35.468749,19.90625 35.46875,19.90625 L 48,3.5 C 48.141077,3.2980666 48.271606,3.1380787 48.40625,2.96875 C 49.150254,3.9502273 59.53125,17.9375 59.53125,17.9375 L 47.15625,33.96875 C 47.1025,34.0675 46.67625,34.533751 46.5625,34.625 C 46.13125,34.9725 45.4975,35.267501 44.375,35.21875 L 44.34375,35.84375 L 50.53125,35.84375 L 50.53125,35.21875 C 49.41,35.2675 49.330001,34.958751 49.3125,34.8125 C 49.25625,34.33875 49.74625,33.74375 49.9375,33.46875 L 60.71875,19.5 L 71.03125,33.28125 C 71.33125,33.705 71.500004,34.05625 71.5,34.5 C 71.5,35.1425 70.96125,35.267501 70.375,35.21875 L 70.375,35.84375 L 79.9375,35.84375 L 79.9375,35.21875 C 78.9225,35.2675 77.841248,35.4175 75.28125,31.8125 C 75.17375,31.665 63.437501,15.9375 63.4375,15.9375 C 63.4375,15.9375 73.531251,2.855 73.5625,2.8125 C 73.67,2.66625 74.057496,2.2450001 74.125,2.15625 C 75.01125,1.00625 76.208748,0.99250003 76.9375,1 L 76.9375,0.34375 L 70.6875,0.34375 L 70.6875,1 C 71.275,1 71.849999,0.95750005 71.8125,1.625 C 71.79625,1.92125 71.752502,2.0912499 71.21875,2.78125 C 71.16625,2.88125 62.312498,14.40625 62.3125,14.40625 L 54.21875,3.5625 C 54.16625,3.5125 53.25,2.4262499 53.25,1.6875 C 53.25,0.79875 54.305001,1 54.625,1 L 54.625,0.34375 L 52.28125,0.34375 L 45.125,0.34375 L 45.125,0.6875 L 45.125,1 L 45.34375,1 C 45.6925,1.01 46.656252,0.795 46.65625,1.78125 C 46.65625,2.33875 46.011248,3.1287501 45.8125,3.4375 L 34.21875,18.4375 L 33.5625,19.28125 L 23.375,3.6875 C 23.2275,3.43375 22.59375,2.4 22.59375,1.90625 C 22.59375,0.8575 23.65375,1 24.1875,1 L 24.1875,0.34375 L 14,0.34375 z M 86.53125,32.25 C 85.95625,32.25 85.375001,32.5525 85.375,33.28125 C 85.375,34.4275 86.812496,34.474998 86.8125,35.0625 C 86.8125,35.39 86.51125,35.468749 86.28125,35.46875 C 85.9775,35.46875 85.687497,35.376251 85.40625,35.25 L 85.40625,35.96875 C 85.64625,36.01375 85.985001,36.062501 86.40625,36.0625 C 87.57375,36.0625 87.749998,35.335 87.75,34.96875 C 87.75,33.78125 86.250002,33.70375 86.25,33.15625 C 86.25,32.92 86.483747,32.84375 86.65625,32.84375 C 86.94,32.84375 87.233747,32.957499 87.5,33.0625 L 87.5,32.375 C 87.17875,32.31 86.857501,32.250001 86.53125,32.25 z M 89,32.25 C 88.425,32.25 87.843749,32.5525 87.84375,33.28125 C 87.84375,34.4275 89.281254,34.474998 89.28125,35.0625 C 89.28125,35.39 88.981249,35.468749 88.75,35.46875 C 88.44625,35.46875 88.123753,35.376251 87.84375,35.25 L 87.84375,35.96875 C 88.0825,36.01375 88.453751,36.062501 88.875,36.0625 C 90.0425,36.0625 90.218748,35.335 90.21875,34.96875 C 90.21875,33.78125 88.71875,33.70375 88.71875,33.15625 C 88.71875,32.92 88.952497,32.84375 89.125,32.84375 C 89.41,32.84375 89.701253,32.957499 89.96875,33.0625 L 89.96875,32.375 C 89.64625,32.31 89.324999,32.250001 89,32.25 z M 113.03125,32.25 C 111.9675,32.25 111.28125,32.950001 111.28125,34.15625 C 111.28125,35.36375 111.9675,36.062501 113.03125,36.0625 C 113.48375,36.0625 113.86,36.026251 114.21875,35.90625 L 114.21875,34.28125 L 113.34375,34.28125 L 113.34375,35.46875 C 112.58375,35.46875 112.1875,34.939999 112.1875,34.125 C 112.1875,33.47125 112.45875,32.84375 113.25,32.84375 C 113.585,32.84375 113.90625,32.932498 114.21875,33.0625 L 114.21875,32.375 C 113.86125,32.29 113.465,32.250001 113.03125,32.25 z M 83.21875,32.34375 L 81.96875,35.96875 L 82.5625,35.96875 L 82.875,35.0625 L 84.15625,35.0625 L 84.46875,35.96875 L 85.34375,35.96875 L 84.09375,32.34375 L 83.21875,32.34375 z M 90.46875,32.34375 L 90.46875,35.96875 L 92.8125,35.96875 L 92.8125,35.375 L 91.34375,35.375 L 91.34375,34.375 L 92.46875,34.375 L 92.46875,33.84375 L 91.34375,33.84375 L 91.34375,32.9375 L 92.71875,32.9375 L 92.71875,32.34375 L 90.46875,32.34375 z M 92.84375,32.34375 L 92.84375,32.9375 L 94.03125,32.9375 L 94.03125,35.96875 L 94.90625,35.96875 L 94.90625,32.9375 L 96.09375,32.9375 L 96.09375,32.34375 L 92.84375,32.34375 z M 97.59375,32.34375 L 97.59375,35.96875 L 98.25,35.96875 L 98.25,33.375 L 98.28125,33.375 L 98.96875,35.75 L 99.59375,35.75 L 100.28125,33.4375 L 100.3125,33.4375 L 100.3125,35.96875 L 101.09375,35.96875 L 101.09375,32.34375 L 100.125,32.34375 L 99.40625,34.65625 L 98.71875,32.34375 L 97.59375,32.34375 z M 102.5625,32.34375 L 101.3125,35.96875 L 101.90625,35.96875 L 102.21875,35.0625 L 103.5,35.0625 L 103.8125,35.96875 L 104.6875,35.96875 L 103.4375,32.34375 L 102.5625,32.34375 z M 104.90625,32.34375 L 104.90625,35.96875 L 105.5625,35.96875 L 105.5625,33.8125 L 106.96875,35.96875 L 107.6875,35.96875 L 107.6875,32.34375 L 107.03125,32.34375 L 107.03125,34.53125 L 105.625,32.34375 L 104.90625,32.34375 z M 109.15625,32.34375 L 107.90625,35.96875 L 108.46875,35.96875 L 108.8125,35.0625 L 110.09375,35.0625 L 110.40625,35.96875 L 111.28125,35.96875 L 110.03125,32.34375 L 109.15625,32.34375 z M 114.6875,32.34375 L 114.6875,35.96875 L 117.03125,35.96875 L 117.03125,35.375 L 115.5625,35.375 L 115.5625,34.375 L 116.6875,34.375 L 116.6875,33.84375 L 115.5625,33.84375 L 115.5625,32.9375 L 116.9375,32.9375 L 116.9375,32.34375 L 114.6875,32.34375 z M 117.375,32.34375 L 117.375,35.96875 L 118.03125,35.96875 L 118.03125,33.375 L 118.0625,33.375 L 118.75,35.75 L 119.375,35.75 L 120.09375,33.4375 L 120.09375,35.96875 L 120.875,35.96875 L 120.875,32.34375 L 119.90625,32.34375 L 119.21875,34.65625 L 119.1875,34.65625 L 118.53125,32.34375 L 117.375,32.34375 z M 121.40625,32.34375 L 121.40625,35.96875 L 123.75,35.96875 L 123.75,35.375 L 122.28125,35.375 L 122.28125,34.375 L 123.40625,34.375 L 123.40625,33.84375 L 122.28125,33.84375 L 122.28125,32.9375 L 123.65625,32.9375 L 123.65625,32.34375 L 121.40625,32.34375 z M 124.125,32.34375 L 124.125,35.96875 L 124.78125,35.96875 L 124.78125,33.8125 L 126.15625,35.96875 L 126.90625,35.96875 L 126.90625,32.34375 L 126.25,32.34375 L 126.25,34.53125 L 126.21875,34.53125 L 124.84375,32.34375 L 124.125,32.34375 z M 127.09375,32.34375 L 127.09375,32.9375 L 128.28125,32.9375 L 128.28125,35.96875 L 129.15625,35.96875 L 129.15625,32.9375 L 130.34375,32.9375 L 130.34375,32.34375 L 127.09375,32.34375 z M 83.5,33.1875 L 83.96875,34.46875 L 83.0625,34.46875 L 83.5,33.1875 z M 102.84375,33.1875 L 103.28125,34.46875 L 102.40625,34.46875 L 102.84375,33.1875 z M 109.4375,33.1875 L 109.875,34.46875 L 109,34.46875 L 109.4375,33.1875 z"
       transform="translate(309.54331,508.64336)"
       id="path2494"
       style="fill:#439abe;fill-opacity:1;fill-rule:nonzero;stroke:none" />
    <path
       d="M 310.49856,548.86374 L 322.90106,548.86374 M 332.28731,548.86374 L 439.71981,548.86374 M 310.64231,548.85874 L 323.04481,548.85874 M 332.43106,548.85874 L 439.86481,548.85874"
       id="path2586"
       style="fill:none;stroke:#439abe;stroke-width:1.00625002;stroke-linecap:butt;stroke-linejoin:miter;stroke-miterlimit:4;stroke-dasharray:none;stroke-opacity:1" />
  </g>
</svg>
