<?xml version="1.0" encoding="UTF-8"?>
<svg xmlns="http://www.w3.org/2000/svg" xmlns:xlink="http://www.w3.org/1999/xlink" width="100px" height="px" viewBox="0 0 100 43" version="1.1">
<defs>
<clipPath id="clip1">
  <path d="M 58.3125 0.371094 L 88.199219 0.371094 L 88.199219 42.402344 L 58.3125 42.402344 Z M 58.3125 0.371094 "/>
</clipPath>
<clipPath id="clip2">
  <path d="M 58.3125 0.371094 L 58.3125 42.402344 L 76.839844 42.402344 C 83.113281 42.402344 88.199219 37.273438 88.199219 30.949219 C 88.199219 24.859375 83.488281 19.882812 77.539062 19.519531 C 80.253906 17.621094 82.03125 14.457031 82.03125 10.878906 C 82.03125 5.074219 77.367188 0.371094 71.613281 0.371094 Z M 58.3125 0.371094 "/>
</clipPath>
<linearGradient id="linear0" gradientUnits="userSpaceOnUse" x1="0" y1="0" x2="1" y2="0" gradientTransform="matrix(29.888822,0,0,-30.136178,58.311574,21.385534)">
<stop offset="0" style="stop-color:rgb(47.45098%,49.803922%,51.764706%);stop-opacity:1;"/>
<stop offset="0.140391" style="stop-color:rgb(47.45098%,49.803922%,51.764706%);stop-opacity:1;"/>
<stop offset="0.24" style="stop-color:rgb(96.078431%,98.823529%,99.607843%);stop-opacity:1;"/>
<stop offset="0.75897" style="stop-color:rgb(31.764706%,32.941176%,34.509804%);stop-opacity:1;"/>
<stop offset="1" style="stop-color:rgb(31.764706%,32.941176%,34.509804%);stop-opacity:1;"/>
</linearGradient>
</defs>
<g id="surface9">
<path style=" stroke:none;fill-rule:nonzero;fill:rgb(100%,100%,100%);fill-opacity:1;" d="M 58.328125 42.359375 L 58.328125 19.515625 L 77.511719 19.558594 C 83.464844 19.925781 88.132812 24.925781 88.132812 30.949219 C 88.132812 37.238281 83.054688 42.359375 76.816406 42.359375 Z M 58.328125 42.359375 "/>
<path style=" stroke:none;fill-rule:nonzero;fill:rgb(100%,100%,100%);fill-opacity:1;" d="M 58.328125 0.410156 L 71.585938 0.410156 C 77.308594 0.414062 81.960938 5.109375 81.960938 10.878906 C 81.960938 14.304688 80.292969 17.515625 77.5 19.476562 L 58.328125 20.023438 Z M 58.328125 0.410156 "/>
<g clip-path="url(#clip1)" clip-rule="nonzero">
<g clip-path="url(#clip2)" clip-rule="nonzero">
<path style=" stroke:none;fill-rule:nonzero;fill:url(#linear0);" d="M 58.3125 0.371094 L 58.3125 42.402344 L 76.839844 42.402344 C 83.113281 42.402344 88.199219 37.273438 88.199219 30.949219 C 88.199219 24.859375 83.488281 19.882812 77.539062 19.519531 C 80.253906 17.621094 82.03125 14.457031 82.03125 10.878906 C 82.03125 5.074219 77.367188 0.371094 71.613281 0.371094 Z M 58.3125 0.371094 "/>
</g>
</g>
<path style=" stroke:none;fill-rule:nonzero;fill:rgb(0%,0%,0%);fill-opacity:1;" d="M 35.734375 15.5 L 36.441406 15.5 L 36.441406 8.566406 L 35.734375 8.566406 Z M 35.734375 15.5 "/>
<path style=" stroke:none;fill-rule:nonzero;fill:rgb(0%,0%,0%);fill-opacity:1;" d="M 32.652344 15.582031 C 32 15.582031 30.476562 15.339844 30.476562 13.09375 C 30.476562 10.859375 32 10.617188 32.652344 10.617188 C 33.304688 10.617188 34.824219 10.859375 34.824219 13.09375 C 34.824219 15.339844 33.304688 15.582031 32.652344 15.582031 M 32.652344 11.230469 C 32.109375 11.230469 31.191406 11.472656 31.191406 13.09375 C 31.191406 13.953125 31.449219 14.980469 32.671875 14.980469 C 33.207031 14.980469 34.105469 14.734375 34.105469 13.09375 C 34.105469 12.242188 33.855469 11.230469 32.652344 11.230469 "/>
<path style=" stroke:none;fill-rule:nonzero;fill:rgb(0%,0%,0%);fill-opacity:1;" d="M 29.207031 15.5 L 27.664062 12.542969 L 25.796875 12.542969 L 25.796875 15.5 L 25.0625 15.5 L 25.0625 9.21875 C 25.0625 8.808594 25.324219 8.566406 25.761719 8.566406 L 27.832031 8.566406 C 28.757812 8.566406 29.757812 9.175781 29.757812 10.523438 C 29.757812 11.433594 29.257812 12.140625 28.421875 12.414062 L 30.027344 15.5 Z M 27.683594 11.847656 C 28.484375 11.847656 29.023438 11.316406 29.023438 10.523438 C 29.023438 9.734375 28.535156 9.242188 27.746094 9.242188 L 25.796875 9.242188 L 25.796875 11.847656 Z M 27.683594 11.847656 "/>
<path style=" stroke:none;fill-rule:nonzero;fill:rgb(0%,0%,0%);fill-opacity:1;" d="M 45.40625 15.5 L 45.40625 12.683594 C 45.40625 11.523438 44.699219 11.367188 44.007812 11.367188 L 43.882812 11.367188 C 43.203125 11.367188 43.125 11.457031 43.082031 11.503906 C 43.007812 11.585938 43 11.699219 43 11.796875 L 43 15.5 L 42.292969 15.5 L 42.292969 11.59375 C 42.292969 11.265625 42.425781 11.019531 42.691406 10.855469 C 42.960938 10.691406 43.519531 10.691406 43.789062 10.691406 L 44.148438 10.695312 C 45.496094 10.734375 46.121094 11.367188 46.121094 12.683594 L 46.121094 15.496094 Z M 45.40625 15.5 "/>
<path style=" stroke:none;fill-rule:nonzero;fill:rgb(0%,0%,0%);fill-opacity:1;" d="M 39.25 15.5 C 37.941406 15.5 37.304688 15.019531 37.304688 14.035156 C 37.304688 13.046875 38.136719 12.605469 38.964844 12.605469 C 39.953125 12.605469 40.511719 13.011719 40.515625 13.015625 L 40.519531 13.015625 L 40.519531 12.339844 C 40.519531 11.445312 39.960938 11.324219 39.363281 11.324219 C 38.554688 11.324219 37.980469 11.613281 37.769531 11.738281 L 37.707031 11.777344 L 37.460938 11.15625 L 37.503906 11.128906 C 37.6875 11.007812 38.367188 10.617188 39.378906 10.617188 C 40.585938 10.617188 41.199219 11.167969 41.199219 12.253906 L 41.199219 14.648438 C 41.199219 14.925781 41.09375 15.109375 40.824219 15.304688 C 40.5625 15.496094 40.042969 15.496094 39.796875 15.496094 Z M 38.964844 13.253906 C 38.382812 13.253906 38.019531 13.554688 38.019531 14.046875 C 38.019531 14.617188 38.386719 14.859375 39.25 14.859375 C 39.25 14.859375 39.511719 14.859375 39.65625 14.859375 C 39.960938 14.859375 40.359375 14.804688 40.441406 14.722656 C 40.511719 14.652344 40.519531 14.558594 40.519531 14.476562 L 40.519531 13.683594 L 40.515625 13.679688 C 40.496094 13.664062 39.945312 13.253906 38.964844 13.253906 "/>
<path style=" stroke:none;fill-rule:nonzero;fill:rgb(0%,0%,0%);fill-opacity:1;" d="M 49.292969 15.5 C 48.613281 15.5 47.03125 15.257812 47.03125 13.011719 C 47.03125 11.53125 47.746094 10.644531 48.941406 10.644531 C 49.820312 10.644531 50.414062 11.289062 50.4375 11.316406 L 50.441406 11.320312 L 50.441406 8.566406 L 51.132812 8.566406 L 51.132812 14.542969 C 51.132812 14.835938 50.992188 15.089844 50.734375 15.277344 C 50.605469 15.371094 50.335938 15.484375 49.753906 15.5 Z M 48.933594 11.332031 C 48.492188 11.332031 47.75 11.550781 47.75 13.011719 C 47.75 14.167969 48.3125 14.832031 49.292969 14.832031 L 49.585938 14.832031 C 50.035156 14.832031 50.308594 14.746094 50.363281 14.6875 C 50.441406 14.601562 50.441406 14.472656 50.441406 14.417969 L 50.441406 12.058594 C 50.414062 12.027344 49.773438 11.332031 48.933594 11.332031 "/>
<path style=" stroke:none;fill-rule:nonzero;fill:rgb(0%,0%,0%);fill-opacity:1;" d="M 51.363281 19.515625 L 50.558594 19.515625 C 48.144531 19.515625 46.273438 20.421875 46.273438 23.554688 L 46.273438 29.257812 L 47.734375 29.257812 L 47.734375 23.554688 C 47.734375 21.460938 48.855469 20.929688 50.558594 20.929688 L 51.363281 20.929688 Z M 51.363281 19.515625 "/>
<path style=" stroke:none;fill-rule:nonzero;fill:rgb(0%,0%,0%);fill-opacity:1;" d="M 44.738281 24.082031 C 44.738281 20.949219 42.945312 19.363281 40.550781 19.363281 C 38.433594 19.363281 36.207031 20.871094 36.207031 24.386719 C 36.207031 27.992188 38.453125 29.410156 40.941406 29.410156 C 43.226562 29.410156 44.664062 28.292969 44.664062 28.292969 L 44.160156 27.011719 C 44.160156 27.011719 42.871094 27.972656 41.035156 27.972656 C 39.613281 27.972656 37.835938 27.351562 37.648438 24.988281 L 44.738281 24.988281 Z M 37.667969 23.722656 C 37.835938 21.421875 39.257812 20.667969 40.566406 20.667969 C 41.859375 20.667969 43.261719 21.476562 43.261719 23.722656 Z M 37.667969 23.722656 "/>
<path style=" stroke:none;fill-rule:nonzero;fill:rgb(0%,0%,0%);fill-opacity:1;" d="M 26.40625 19.515625 L 25.601562 19.515625 C 23.1875 19.515625 21.316406 20.421875 21.316406 23.554688 L 21.316406 29.257812 L 22.773438 29.257812 L 22.773438 23.554688 C 22.773438 21.460938 23.898438 20.929688 25.601562 20.929688 L 26.40625 20.929688 Z M 26.40625 19.515625 "/>
<path style=" stroke:none;fill-rule:nonzero;fill:rgb(0%,0%,0%);fill-opacity:1;" d="M 19.78125 24.082031 C 19.78125 20.949219 17.984375 19.363281 15.589844 19.363281 C 13.476562 19.363281 11.25 20.871094 11.25 24.386719 C 11.25 27.992188 13.496094 29.410156 15.984375 29.410156 C 18.265625 29.410156 19.707031 28.292969 19.707031 28.292969 L 19.203125 27.011719 C 19.203125 27.011719 17.910156 27.972656 16.078125 27.972656 C 14.65625 27.972656 12.878906 27.351562 12.691406 24.988281 L 19.78125 24.988281 Z M 12.710938 23.722656 C 12.878906 21.421875 14.300781 20.667969 15.609375 20.667969 C 16.902344 20.667969 18.304688 21.476562 18.304688 23.722656 Z M 12.710938 23.722656 "/>
<path style=" stroke:none;fill-rule:nonzero;fill:rgb(0%,0%,0%);fill-opacity:1;" d="M 7.804688 21.894531 C 7.804688 21.894531 9.5625 21.101562 9.5625 18.820312 C 9.5625 16.273438 7.804688 15.21875 5.730469 15.21875 L 1.789062 15.21875 C 0.890625 15.21875 0.367188 15.707031 0.367188 16.539062 L 0.367188 27.925781 C 0.367188 28.757812 0.890625 29.246094 1.789062 29.246094 L 6.121094 29.246094 C 8.101562 29.246094 10.027344 27.925781 10.027344 25.324219 C 10.027344 22.574219 7.804688 21.894531 7.804688 21.894531 M 1.84375 16.574219 L 5.46875 16.574219 C 7 16.574219 8.085938 17.21875 8.085938 18.855469 C 8.085938 20.5 6.925781 21.382812 5.429688 21.382812 L 1.84375 21.382812 Z M 5.953125 27.851562 L 1.84375 27.851562 L 1.84375 22.78125 L 5.824219 22.78125 C 7.320312 22.78125 8.535156 23.609375 8.535156 25.34375 C 8.535156 27.039062 7.410156 27.851562 5.953125 27.851562 "/>
<path style=" stroke:none;fill-rule:nonzero;fill:rgb(0%,0%,0%);fill-opacity:1;" d="M 31.164062 19.414062 L 31.125 19.414062 C 28.777344 19.441406 26.59375 21.09375 26.59375 24.421875 C 26.59375 27.671875 28.40625 28.957031 30.390625 28.957031 C 32.296875 28.957031 33.515625 27.636719 33.515625 27.636719 L 33.507812 28.929688 C 33.507812 31.421875 31.625 32.1875 29.378906 32.1875 L 28.609375 32.1875 L 28.609375 33.511719 L 29.492188 33.511719 C 32.355469 33.511719 34.898438 32.246094 34.898438 28.960938 L 34.898438 23.292969 C 34.898438 20.304688 33.308594 19.421875 31.164062 19.414062 M 33.496094 26.128906 C 33.496094 26.128906 32.167969 27.558594 30.484375 27.558594 C 29.210938 27.558594 28.050781 26.800781 28.050781 24.421875 C 28.050781 21.933594 29.46875 20.789062 31.132812 20.773438 C 32.636719 20.773438 33.496094 21.289062 33.496094 23.292969 Z M 33.496094 26.128906 "/>
<path style="fill:none;stroke-width:0.3;stroke-linecap:butt;stroke-linejoin:miter;stroke:rgb(100%,100%,100%);stroke-opacity:1;stroke-miterlimit:4;" d="M -0.00185521 0.000926527 L -0.00185521 -42.519059 " transform="matrix(0.980392,0,0,-0.988506,99.822131,0.379822)"/>
</g>
</svg>
