<?xml version="1.0" encoding="UTF-8"?>
<svg xmlns="http://www.w3.org/2000/svg" xmlns:xlink="http://www.w3.org/1999/xlink" width="100px" height="px" viewBox="0 0 100 100" version="1.1">
<g id="surface1">
<path style=" stroke:none;fill-rule:nonzero;fill:rgb(0%,8.627451%,33.333333%);fill-opacity:1;" d="M 10.722656 48.421875 L 13.664062 46.105469 L 13.621094 45.507812 L 15.722656 43.878906 L 15.644531 44.9375 L 16.703125 45.167969 L 14.617188 46.765625 L 14.019531 46.578125 L 10.367188 49.433594 L 11.871094 50.597656 L 14.847656 52.945312 L 14.984375 52.269531 L 16.195312 54.386719 L 13.863281 53.695312 L 14.480469 53.390625 L 10.707031 50.429688 L 11.042969 51.121094 L 11.042969 51.136719 L 12.792969 54.753906 L 13.222656 54.203125 L 13.375 56.640625 L 11.578125 55 L 12.269531 55 L 10.183594 50.691406 L 10.183594 55.460938 L 10.796875 55.152344 L 9.90625 57.40625 L 9.019531 55.152344 L 9.632812 55.460938 L 9.632812 50.691406 L 7.546875 55 L 8.234375 55 L 6.441406 56.640625 L 6.59375 54.203125 L 7.023438 54.753906 L 8.773438 51.136719 L 8.773438 51.121094 L 9.109375 50.429688 L 5.335938 53.390625 L 5.949219 53.695312 L 3.621094 54.386719 L 4.832031 52.269531 L 4.96875 52.945312 L 7.945312 50.597656 L 9.433594 49.433594 L 5.796875 46.578125 L 5.199219 46.765625 L 3.113281 45.167969 L 4.171875 44.9375 L 4.09375 43.878906 L 6.195312 45.507812 L 6.136719 46.105469 L 9.09375 48.4375 L 7.453125 45.0625 L 6.839844 44.96875 L 5.675781 42.605469 L 6.71875 42.882812 L 7.117188 41.886719 L 8.28125 44.265625 L 7.976562 44.800781 L 9.617188 48.207031 L 9.632812 47.285156 L 9.617188 45.734375 L 9.617188 44.402344 L 9.109375 44.0625 L 9.09375 41.425781 L 9.90625 42.132812 L 10.722656 41.425781 L 10.707031 44.0625 L 10.199219 44.402344 L 10.183594 45.734375 L 10.183594 48.191406 L 11.839844 44.800781 L 11.535156 44.265625 L 12.699219 41.886719 L 13.097656 42.882812 L 14.140625 42.605469 L 12.976562 44.96875 L 12.363281 45.0625 Z M 10.722656 48.421875 "/>
<path style=" stroke:none;fill-rule:nonzero;fill:rgb(0%,8.627451%,33.333333%);fill-opacity:1;" d="M 76.242188 45.277344 C 75.949219 45.277344 75.675781 45.320312 75.414062 45.414062 C 75.152344 45.507812 74.921875 45.628906 74.738281 45.796875 C 74.554688 45.964844 74.402344 46.179688 74.277344 46.410156 C 74.171875 46.65625 74.109375 46.933594 74.109375 47.238281 C 74.109375 47.421875 74.125 47.59375 74.171875 47.730469 C 74.21875 47.882812 74.265625 48.019531 74.339844 48.144531 C 74.417969 48.28125 74.507812 48.40625 74.601562 48.542969 C 74.707031 48.664062 74.816406 48.804688 74.953125 48.941406 L 74.984375 48.988281 L 74.9375 49.019531 C 74.523438 49.277344 74.171875 49.585938 73.925781 49.921875 C 73.679688 50.261719 73.542969 50.691406 73.542969 51.164062 C 73.542969 51.535156 73.621094 51.871094 73.757812 52.164062 C 73.894531 52.453125 74.078125 52.699219 74.324219 52.914062 C 74.554688 53.113281 74.832031 53.265625 75.152344 53.390625 C 75.476562 53.496094 75.796875 53.558594 76.148438 53.558594 C 76.550781 53.558594 76.949219 53.496094 77.332031 53.359375 C 77.714844 53.222656 78.066406 53.019531 78.375 52.746094 L 78.40625 52.714844 L 78.988281 53.359375 L 80.566406 53.359375 L 79.140625 51.808594 L 79.15625 51.777344 C 79.324219 51.519531 79.449219 51.242188 79.507812 50.9375 C 79.570312 50.628906 79.617188 50.320312 79.632812 50.015625 L 79.632812 49.96875 L 80.550781 49.96875 L 80.550781 48.925781 L 78.589844 48.925781 L 78.589844 49.324219 C 78.589844 49.492188 78.574219 49.679688 78.574219 49.863281 C 78.558594 50.046875 78.542969 50.230469 78.511719 50.398438 C 78.480469 50.566406 78.4375 50.722656 78.375 50.859375 L 78.34375 50.921875 L 76.886719 49.324219 L 76.933594 49.292969 C 77.148438 49.171875 77.347656 49.035156 77.53125 48.894531 C 77.714844 48.757812 77.867188 48.605469 78.007812 48.4375 C 78.144531 48.265625 78.234375 48.082031 78.3125 47.882812 C 78.390625 47.683594 78.421875 47.453125 78.421875 47.191406 C 78.421875 46.886719 78.359375 46.609375 78.25 46.378906 C 78.128906 46.148438 77.976562 45.9375 77.777344 45.78125 C 77.578125 45.613281 77.347656 45.492188 77.085938 45.414062 C 76.808594 45.320312 76.535156 45.277344 76.242188 45.277344 M 76.226562 52.40625 C 76.042969 52.40625 75.84375 52.378906 75.675781 52.332031 C 75.492188 52.269531 75.335938 52.191406 75.199219 52.085938 C 75.0625 51.980469 74.953125 51.839844 74.878906 51.671875 C 74.800781 51.503906 74.753906 51.320312 74.753906 51.105469 C 74.753906 50.9375 74.785156 50.78125 74.832031 50.660156 C 74.878906 50.535156 74.953125 50.414062 75.046875 50.320312 C 75.136719 50.214844 75.230469 50.136719 75.351562 50.0625 C 75.460938 49.984375 75.597656 49.90625 75.722656 49.832031 L 75.75 49.816406 L 77.621094 51.886719 L 77.59375 51.917969 C 77.40625 52.117188 77.191406 52.253906 76.949219 52.332031 C 76.703125 52.363281 76.457031 52.40625 76.226562 52.40625 M 76.105469 48.496094 L 75.828125 48.222656 C 75.734375 48.128906 75.660156 48.035156 75.582031 47.929688 C 75.507812 47.820312 75.445312 47.714844 75.398438 47.605469 C 75.351562 47.484375 75.320312 47.363281 75.320312 47.222656 C 75.320312 46.933594 75.414062 46.71875 75.613281 46.5625 C 75.796875 46.425781 76.011719 46.351562 76.257812 46.351562 C 76.519531 46.351562 76.75 46.425781 76.917969 46.578125 C 77.101562 46.734375 77.179688 46.964844 77.179688 47.253906 C 77.179688 47.421875 77.148438 47.578125 77.085938 47.699219 C 77.023438 47.820312 76.949219 47.929688 76.839844 48.019531 C 76.75 48.113281 76.625 48.191406 76.503906 48.265625 C 76.378906 48.34375 76.257812 48.40625 76.136719 48.480469 Z M 76.105469 48.496094 "/>
<path style=" stroke:none;fill-rule:nonzero;fill:rgb(0%,8.627451%,33.333333%);fill-opacity:1;" d="M 92.4375 47.4375 C 91.992188 47.4375 91.59375 47.53125 91.242188 47.699219 C 90.890625 47.882812 90.613281 48.082031 90.414062 48.328125 C 90.199219 48.605469 90.03125 48.910156 89.90625 49.234375 C 89.785156 49.554688 89.722656 49.984375 89.722656 50.476562 C 89.722656 50.964844 89.785156 51.378906 89.90625 51.703125 C 90.03125 52.039062 90.199219 52.332031 90.414062 52.605469 C 90.613281 52.851562 90.890625 53.066406 91.242188 53.234375 C 91.59375 53.421875 91.992188 53.496094 92.4375 53.496094 C 92.882812 53.496094 93.28125 53.40625 93.636719 53.234375 C 93.988281 53.050781 94.265625 52.851562 94.464844 52.605469 C 94.679688 52.332031 94.847656 52.023438 94.96875 51.703125 C 95.09375 51.378906 95.152344 50.949219 95.152344 50.476562 C 95.152344 49.984375 95.09375 49.570312 94.96875 49.234375 C 94.847656 48.910156 94.679688 48.605469 94.464844 48.328125 C 94.265625 48.082031 93.988281 47.867188 93.636719 47.699219 C 93.28125 47.53125 92.867188 47.4375 92.4375 47.4375 M 92.4375 52.378906 C 92.238281 52.378906 92.054688 52.347656 91.902344 52.269531 C 91.75 52.191406 91.609375 52.101562 91.519531 51.992188 C 91.335938 51.792969 91.226562 51.5625 91.164062 51.304688 C 91.121094 51.042969 91.089844 50.765625 91.089844 50.492188 C 91.089844 50.214844 91.121094 49.9375 91.164062 49.679688 C 91.226562 49.417969 91.335938 49.171875 91.519531 48.988281 C 91.625 48.878906 91.75 48.789062 91.902344 48.710938 C 92.054688 48.636719 92.238281 48.605469 92.4375 48.605469 C 92.636719 48.605469 92.820312 48.636719 92.976562 48.710938 C 93.128906 48.789062 93.265625 48.878906 93.359375 48.988281 C 93.542969 49.1875 93.648438 49.417969 93.710938 49.679688 C 93.757812 49.9375 93.789062 50.214844 93.789062 50.492188 C 93.789062 50.765625 93.757812 51.042969 93.710938 51.304688 C 93.648438 51.5625 93.542969 51.808594 93.359375 51.992188 C 93.25 52.101562 93.128906 52.191406 92.976562 52.269531 C 92.820312 52.347656 92.636719 52.378906 92.4375 52.378906 "/>
<path style=" stroke:none;fill-rule:nonzero;fill:rgb(0%,8.627451%,33.333333%);fill-opacity:1;" d="M 86.011719 45.277344 C 85.582031 45.277344 85.183594 45.351562 84.785156 45.492188 C 84.402344 45.628906 84.050781 45.859375 83.742188 46.164062 C 83.527344 46.378906 83.34375 46.609375 83.222656 46.855469 C 83.082031 47.101562 82.992188 47.347656 82.929688 47.621094 C 82.867188 47.898438 82.820312 48.175781 82.792969 48.480469 C 82.777344 48.789062 82.761719 49.09375 82.761719 49.417969 C 82.761719 49.753906 82.777344 50.0625 82.792969 50.367188 C 82.808594 50.660156 82.851562 50.949219 82.929688 51.226562 C 82.992188 51.488281 83.097656 51.75 83.222656 51.992188 C 83.359375 52.238281 83.527344 52.46875 83.742188 52.683594 C 84.050781 52.992188 84.402344 53.222656 84.785156 53.359375 C 85.167969 53.496094 85.582031 53.574219 86.011719 53.574219 C 86.441406 53.574219 86.855469 53.496094 87.253906 53.328125 C 87.652344 53.175781 88.007812 52.929688 88.296875 52.621094 C 88.527344 52.378906 88.710938 52.117188 88.820312 51.808594 C 88.925781 51.519531 89.003906 51.226562 89.050781 50.9375 L 87.636719 50.9375 C 87.605469 51.257812 87.46875 51.550781 87.269531 51.808594 C 87.132812 51.980469 86.964844 52.117188 86.734375 52.207031 C 86.519531 52.300781 86.273438 52.347656 86.011719 52.347656 C 85.765625 52.347656 85.535156 52.300781 85.320312 52.207031 C 85.105469 52.117188 84.90625 51.980469 84.738281 51.792969 C 84.601562 51.640625 84.492188 51.472656 84.417969 51.273438 C 84.339844 51.089844 84.277344 50.875 84.25 50.660156 C 84.21875 50.445312 84.1875 50.230469 84.1875 50.015625 C 84.171875 49.800781 84.171875 49.601562 84.171875 49.417969 C 84.171875 49.234375 84.171875 49.035156 84.1875 48.820312 C 84.203125 48.605469 84.21875 48.390625 84.25 48.175781 C 84.277344 47.960938 84.339844 47.761719 84.417969 47.5625 C 84.492188 47.363281 84.601562 47.191406 84.738281 47.039062 C 84.90625 46.855469 85.09375 46.71875 85.320312 46.625 C 85.535156 46.535156 85.78125 46.488281 86.011719 46.488281 C 86.273438 46.488281 86.503906 46.535156 86.734375 46.609375 C 86.964844 46.703125 87.132812 46.824219 87.269531 46.992188 C 87.378906 47.132812 87.46875 47.253906 87.53125 47.394531 C 87.59375 47.515625 87.621094 47.667969 87.636719 47.820312 L 89.050781 47.820312 C 89.003906 47.53125 88.925781 47.238281 88.820312 46.949219 C 88.695312 46.65625 88.527344 46.378906 88.296875 46.136719 C 88.007812 45.828125 87.652344 45.597656 87.253906 45.445312 C 86.855469 45.351562 86.425781 45.277344 86.011719 45.277344 "/>
<path style=" stroke:none;fill-rule:nonzero;fill:rgb(0%,8.627451%,33.333333%);fill-opacity:1;" d="M 61.980469 46.824219 L 61.980469 45.382812 L 60.628906 46.195312 L 60.628906 46.824219 Z M 61.980469 46.824219 "/>
<path style=" stroke:none;fill-rule:nonzero;fill:rgb(0%,8.627451%,33.333333%);fill-opacity:1;" d="M 23.789062 53.4375 L 25.308594 53.4375 L 23.820312 50.105469 L 23.863281 50.09375 C 24.308594 49.921875 24.664062 49.648438 24.9375 49.25 C 25.199219 48.851562 25.335938 48.375 25.335938 47.835938 C 25.335938 47.515625 25.277344 47.191406 25.167969 46.902344 C 25.0625 46.609375 24.894531 46.335938 24.664062 46.105469 C 24.433594 45.875 24.140625 45.691406 23.789062 45.550781 C 23.4375 45.414062 23.019531 45.335938 22.546875 45.335938 L 19.601562 45.335938 L 19.601562 53.421875 L 21.011719 53.421875 L 21.011719 50.335938 L 22.4375 50.335938 Z M 22.5625 49.109375 L 20.996094 49.109375 L 20.996094 46.578125 L 22.546875 46.578125 C 22.761719 46.578125 22.960938 46.609375 23.128906 46.6875 C 23.296875 46.75 23.449219 46.855469 23.574219 46.964844 C 23.695312 47.085938 23.789062 47.222656 23.851562 47.378906 C 23.910156 47.53125 23.941406 47.699219 23.941406 47.867188 C 23.941406 48.265625 23.820312 48.589844 23.574219 48.804688 C 23.34375 48.988281 22.992188 49.109375 22.5625 49.109375 "/>
<path style=" stroke:none;fill-rule:nonzero;fill:rgb(0%,8.627451%,33.333333%);fill-opacity:1;" d="M 28.636719 47.40625 C 28.191406 47.40625 27.777344 47.5 27.421875 47.683594 C 27.070312 47.867188 26.777344 48.082031 26.578125 48.328125 C 26.363281 48.605469 26.195312 48.910156 26.074219 49.25 C 25.949219 49.585938 25.890625 50 25.890625 50.507812 C 25.890625 51.011719 25.949219 51.425781 26.074219 51.765625 C 26.195312 52.101562 26.363281 52.40625 26.578125 52.683594 C 26.777344 52.929688 27.070312 53.144531 27.421875 53.328125 C 27.777344 53.511719 28.191406 53.605469 28.636719 53.605469 C 29.078125 53.605469 29.492188 53.511719 29.847656 53.328125 C 30.199219 53.144531 30.492188 52.929688 30.691406 52.683594 C 30.90625 52.40625 31.074219 52.101562 31.195312 51.765625 C 31.320312 51.425781 31.378906 51.011719 31.378906 50.507812 C 31.378906 50 31.320312 49.585938 31.195312 49.25 C 31.074219 48.910156 30.90625 48.605469 30.691406 48.328125 C 30.492188 48.082031 30.199219 47.867188 29.847656 47.683594 C 29.492188 47.5 29.078125 47.40625 28.636719 47.40625 M 28.636719 52.453125 C 28.4375 52.453125 28.234375 52.40625 28.082031 52.347656 C 27.929688 52.269531 27.792969 52.179688 27.683594 52.070312 C 27.5 51.871094 27.378906 51.640625 27.332031 51.363281 C 27.269531 51.105469 27.253906 50.8125 27.253906 50.535156 C 27.253906 50.246094 27.285156 49.96875 27.332031 49.707031 C 27.394531 49.433594 27.5 49.203125 27.683594 49.003906 C 27.792969 48.894531 27.914062 48.804688 28.082031 48.726562 C 28.234375 48.648438 28.421875 48.621094 28.636719 48.621094 C 28.835938 48.621094 29.019531 48.664062 29.1875 48.726562 C 29.339844 48.804688 29.480469 48.894531 29.585938 49.003906 C 29.769531 49.203125 29.894531 49.433594 29.9375 49.707031 C 30 49.96875 30.015625 50.261719 30.015625 50.535156 C 30.015625 50.828125 29.984375 51.105469 29.9375 51.363281 C 29.878906 51.640625 29.769531 51.871094 29.585938 52.070312 C 29.480469 52.179688 29.355469 52.269531 29.1875 52.347656 C 29.019531 52.40625 28.835938 52.453125 28.636719 52.453125 "/>
<path style=" stroke:none;fill-rule:nonzero;fill:rgb(0%,8.627451%,33.333333%);fill-opacity:1;" d="M 31.871094 48.664062 L 32.960938 48.664062 L 32.960938 51.75 C 32.960938 52.316406 33.113281 52.761719 33.40625 53.066406 C 33.695312 53.390625 34.140625 53.542969 34.722656 53.542969 C 35.105469 53.542969 35.507812 53.496094 35.90625 53.390625 L 35.90625 52.269531 C 35.722656 52.285156 35.566406 52.300781 35.460938 52.316406 C 35.320312 52.332031 35.183594 52.332031 35.03125 52.332031 C 34.785156 52.332031 34.601562 52.269531 34.492188 52.164062 C 34.371094 52.054688 34.324219 51.871094 34.324219 51.625 L 34.324219 48.664062 L 35.828125 48.664062 L 35.828125 47.578125 L 34.324219 47.578125 L 34.324219 45.382812 L 32.976562 46.195312 L 32.976562 47.5625 L 31.886719 47.5625 L 31.886719 48.664062 Z M 31.871094 48.664062 "/>
<path style=" stroke:none;fill-rule:nonzero;fill:rgb(0%,8.627451%,33.333333%);fill-opacity:1;" d="M 40.519531 53.464844 L 41.871094 53.464844 L 41.871094 49.507812 C 41.871094 49.203125 41.824219 48.925781 41.734375 48.664062 C 41.640625 48.40625 41.519531 48.191406 41.351562 48.007812 C 41.179688 47.820312 40.980469 47.667969 40.734375 47.5625 C 40.492188 47.453125 40.214844 47.40625 39.894531 47.40625 C 39.585938 47.40625 39.277344 47.46875 38.988281 47.605469 C 38.695312 47.746094 38.464844 47.929688 38.296875 48.175781 L 38.207031 48.296875 L 38.207031 45.367188 L 36.855469 45.367188 L 36.855469 53.464844 L 38.207031 53.464844 L 38.207031 50.351562 C 38.207031 50.167969 38.234375 49.96875 38.28125 49.769531 C 38.328125 49.570312 38.40625 49.386719 38.511719 49.21875 C 38.621094 49.050781 38.742188 48.910156 38.910156 48.804688 C 39.078125 48.695312 39.277344 48.636719 39.492188 48.636719 C 39.894531 48.636719 40.167969 48.742188 40.320312 48.957031 C 40.460938 49.15625 40.535156 49.449219 40.535156 49.800781 L 40.535156 53.464844 Z M 40.519531 53.464844 "/>
<path style=" stroke:none;fill-rule:nonzero;fill:rgb(0%,8.627451%,33.333333%);fill-opacity:1;" d="M 42.714844 51.625 C 42.714844 51.886719 42.777344 52.132812 42.898438 52.347656 C 43.019531 52.578125 43.160156 52.777344 43.34375 52.945312 C 43.589844 53.175781 43.863281 53.34375 44.1875 53.464844 C 44.507812 53.574219 44.863281 53.636719 45.246094 53.636719 C 45.660156 53.636719 46.042969 53.589844 46.378906 53.480469 C 46.71875 53.375 47.023438 53.207031 47.253906 52.960938 C 47.40625 52.808594 47.53125 52.621094 47.621094 52.421875 C 47.714844 52.207031 47.761719 51.964844 47.761719 51.6875 C 47.761719 51.226562 47.605469 50.84375 47.316406 50.566406 C 47.007812 50.292969 46.625 50.105469 46.164062 50.03125 C 46.027344 50.015625 45.90625 49.984375 45.796875 49.96875 C 45.691406 49.953125 45.597656 49.9375 45.507812 49.921875 L 45.230469 49.894531 C 45.136719 49.878906 45.03125 49.863281 44.878906 49.847656 C 44.707031 49.816406 44.539062 49.769531 44.386719 49.679688 C 44.21875 49.585938 44.140625 49.433594 44.140625 49.1875 C 44.140625 49.019531 44.1875 48.878906 44.277344 48.773438 C 44.371094 48.664062 44.492188 48.574219 44.632812 48.511719 C 44.738281 48.464844 44.847656 48.4375 44.953125 48.4375 C 45.0625 48.421875 45.167969 48.421875 45.277344 48.421875 C 45.429688 48.421875 45.582031 48.449219 45.734375 48.496094 C 45.890625 48.542969 46.011719 48.621094 46.089844 48.710938 C 46.164062 48.789062 46.226562 48.878906 46.273438 48.972656 C 46.320312 49.0625 46.335938 49.15625 46.351562 49.265625 L 47.621094 49.265625 C 47.621094 49.0625 47.578125 48.863281 47.484375 48.679688 C 47.394531 48.480469 47.269531 48.28125 47.101562 48.113281 C 46.886719 47.882812 46.609375 47.714844 46.289062 47.59375 C 45.964844 47.484375 45.613281 47.421875 45.261719 47.421875 C 44.894531 47.421875 44.554688 47.46875 44.25 47.578125 C 43.941406 47.683594 43.679688 47.820312 43.464844 48.007812 C 43.296875 48.160156 43.144531 48.34375 43.035156 48.558594 C 42.929688 48.773438 42.867188 49.035156 42.867188 49.324219 C 42.867188 49.507812 42.898438 49.691406 42.960938 49.863281 C 43.019531 50.03125 43.113281 50.183594 43.234375 50.320312 C 43.359375 50.460938 43.496094 50.582031 43.648438 50.675781 C 43.804688 50.765625 43.988281 50.84375 44.203125 50.890625 C 44.464844 50.949219 44.738281 50.996094 45.03125 51.027344 C 45.308594 51.058594 45.597656 51.089844 45.859375 51.121094 C 46.058594 51.148438 46.210938 51.226562 46.320312 51.335938 C 46.441406 51.457031 46.488281 51.609375 46.488281 51.792969 C 46.488281 51.964844 46.441406 52.101562 46.351562 52.207031 C 46.257812 52.316406 46.148438 52.394531 46.027344 52.453125 C 45.90625 52.515625 45.765625 52.546875 45.613281 52.5625 C 45.230469 52.605469 44.90625 52.59375 44.679688 52.53125 C 44.523438 52.484375 44.402344 52.421875 44.277344 52.316406 C 44.1875 52.238281 44.09375 52.132812 44.035156 51.992188 C 43.972656 51.871094 43.941406 51.75 43.941406 51.625 Z M 42.714844 51.625 "/>
<path style=" stroke:none;fill-rule:nonzero;fill:rgb(0%,8.627451%,33.333333%);fill-opacity:1;" d="M 51.105469 47.40625 C 50.660156 47.40625 50.246094 47.5 49.894531 47.683594 C 49.539062 47.867188 49.265625 48.082031 49.050781 48.328125 C 48.835938 48.605469 48.664062 48.925781 48.558594 49.292969 C 48.449219 49.664062 48.40625 50.0625 48.40625 50.492188 C 48.40625 50.921875 48.464844 51.320312 48.558594 51.6875 C 48.664062 52.054688 48.835938 52.378906 49.050781 52.652344 C 49.25 52.898438 49.539062 53.113281 49.894531 53.296875 C 50.246094 53.480469 50.660156 53.574219 51.105469 53.574219 C 51.550781 53.574219 51.964844 53.480469 52.300781 53.296875 C 52.636719 53.113281 52.914062 52.898438 53.128906 52.636719 C 53.265625 52.46875 53.375 52.269531 53.449219 52.039062 C 53.527344 51.839844 53.558594 51.625 53.589844 51.410156 L 52.269531 51.410156 C 52.253906 51.503906 52.238281 51.59375 52.207031 51.671875 C 52.179688 51.765625 52.132812 51.855469 52.085938 51.933594 C 51.992188 52.070312 51.871094 52.179688 51.71875 52.269531 C 51.5625 52.363281 51.363281 52.40625 51.136719 52.40625 C 50.9375 52.40625 50.75 52.363281 50.597656 52.300781 C 50.445312 52.222656 50.320312 52.132812 50.214844 52.023438 C 50.03125 51.824219 49.921875 51.59375 49.863281 51.320312 C 49.816406 51.058594 49.785156 50.765625 49.785156 50.492188 C 49.785156 50.199219 49.816406 49.921875 49.863281 49.648438 C 49.90625 49.371094 50.03125 49.125 50.214844 48.925781 C 50.320312 48.820312 50.445312 48.726562 50.597656 48.648438 C 50.75 48.574219 50.921875 48.542969 51.136719 48.542969 C 51.363281 48.542969 51.5625 48.589844 51.71875 48.679688 C 51.871094 48.773438 52.007812 48.878906 52.085938 49.019531 C 52.132812 49.09375 52.179688 49.1875 52.207031 49.277344 C 52.238281 49.355469 52.253906 49.449219 52.269531 49.539062 L 53.589844 49.539062 C 53.574219 49.324219 53.527344 49.109375 53.449219 48.910156 C 53.375 48.695312 53.265625 48.496094 53.128906 48.3125 C 52.929688 48.050781 52.652344 47.835938 52.300781 47.652344 C 51.964844 47.5 51.5625 47.40625 51.105469 47.40625 "/>
<path style=" stroke:none;fill-rule:nonzero;fill:rgb(0%,8.627451%,33.333333%);fill-opacity:1;" d="M 58.097656 53.464844 L 59.449219 53.464844 L 59.449219 49.507812 C 59.449219 49.203125 59.402344 48.925781 59.308594 48.664062 C 59.21875 48.40625 59.09375 48.191406 58.925781 48.007812 C 58.757812 47.820312 58.558594 47.667969 58.3125 47.5625 C 58.066406 47.453125 57.792969 47.40625 57.46875 47.40625 C 57.164062 47.40625 56.855469 47.46875 56.5625 47.605469 C 56.273438 47.746094 56.042969 47.929688 55.875 48.175781 L 55.796875 48.296875 L 55.796875 45.367188 L 54.449219 45.367188 L 54.449219 53.464844 L 55.796875 53.464844 L 55.796875 50.351562 C 55.796875 50.167969 55.828125 49.96875 55.875 49.769531 C 55.921875 49.570312 55.996094 49.386719 56.105469 49.21875 C 56.210938 49.050781 56.335938 48.910156 56.503906 48.804688 C 56.671875 48.695312 56.871094 48.636719 57.085938 48.636719 C 57.484375 48.636719 57.761719 48.742188 57.914062 48.957031 C 58.050781 49.15625 58.128906 49.449219 58.128906 49.800781 L 58.128906 53.464844 Z M 58.097656 53.464844 "/>
<path style=" stroke:none;fill-rule:nonzero;fill:rgb(0%,8.627451%,33.333333%);fill-opacity:1;" d="M 60.660156 47.515625 L 61.949219 47.515625 L 61.949219 53.464844 L 60.660156 53.464844 Z M 60.660156 47.515625 "/>
<path style=" stroke:none;fill-rule:nonzero;fill:rgb(0%,8.627451%,33.333333%);fill-opacity:1;" d="M 63.207031 45.367188 L 63.207031 51.964844 C 63.207031 52.515625 63.359375 52.914062 63.636719 53.160156 C 63.925781 53.40625 64.308594 53.527344 64.785156 53.527344 C 64.921875 53.527344 65.03125 53.527344 65.09375 53.511719 C 65.152344 53.496094 65.246094 53.480469 65.367188 53.449219 L 65.367188 52.332031 C 65.351562 52.332031 65.335938 52.332031 65.320312 52.332031 C 65.292969 52.332031 65.246094 52.332031 65.183594 52.332031 C 64.921875 52.332031 64.753906 52.269531 64.679688 52.164062 C 64.601562 52.054688 64.570312 51.902344 64.570312 51.71875 L 64.570312 45.351562 L 63.207031 45.351562 Z M 63.207031 45.367188 "/>
<path style=" stroke:none;fill-rule:nonzero;fill:rgb(0%,8.627451%,33.333333%);fill-opacity:1;" d="M 68.464844 47.40625 C 68.160156 47.40625 67.898438 47.453125 67.652344 47.53125 C 67.421875 47.605469 67.207031 47.730469 67.023438 47.882812 C 66.320312 48.464844 65.964844 49.355469 65.964844 50.519531 C 65.964844 51.089844 66.058594 51.578125 66.226562 52.023438 C 66.394531 52.453125 66.65625 52.820312 67.007812 53.113281 C 67.191406 53.265625 67.40625 53.390625 67.636719 53.480469 C 67.882812 53.574219 68.144531 53.621094 68.4375 53.621094 C 68.757812 53.621094 69.078125 53.558594 69.371094 53.4375 C 69.664062 53.3125 69.90625 53.113281 70.078125 52.851562 L 70.136719 52.746094 L 70.246094 53.480469 L 71.410156 53.480469 L 71.410156 45.382812 L 70.0625 45.382812 L 70.0625 48.066406 L 69.984375 47.976562 C 69.863281 47.820312 69.664062 47.699219 69.402344 47.59375 C 69.171875 47.46875 68.851562 47.40625 68.464844 47.40625 M 68.742188 52.484375 C 68.511719 52.484375 68.3125 52.4375 68.144531 52.347656 C 67.976562 52.253906 67.835938 52.132812 67.730469 51.992188 C 67.578125 51.792969 67.46875 51.550781 67.40625 51.289062 C 67.363281 51.027344 67.332031 50.765625 67.332031 50.507812 C 67.332031 50.246094 67.363281 49.984375 67.40625 49.722656 C 67.453125 49.464844 67.5625 49.234375 67.714844 49.019531 C 67.820312 48.878906 67.960938 48.773438 68.128906 48.664062 C 68.296875 48.574219 68.496094 48.527344 68.726562 48.527344 C 69.019531 48.527344 69.265625 48.589844 69.449219 48.710938 C 69.632812 48.835938 69.769531 49.003906 69.878906 49.1875 C 69.984375 49.386719 70.046875 49.601562 70.078125 49.832031 C 70.105469 50.0625 70.121094 50.292969 70.121094 50.507812 C 70.121094 50.722656 70.105469 50.949219 70.078125 51.179688 C 70.046875 51.410156 69.96875 51.625 69.878906 51.824219 C 69.769531 52.023438 69.632812 52.179688 69.449219 52.300781 C 69.277344 52.421875 69.035156 52.484375 68.742188 52.484375 "/>
</g>
</svg>
