<svg id="Calque_1" data-name="Calque 1" xmlns="http://www.w3.org/2000/svg" viewBox="0 0 595.28 334.1"><defs><style>.cls-1{fill:#fefefe;}.cls-2{fill:#010101;}.cls-3{fill:#050505;}.cls-4{fill:#030303;}.cls-5{fill:#040404;}.cls-6{fill:#0b0b0b;}.cls-7{fill:#080808;}.cls-8{fill:#0a0a0a;}.cls-9{fill:#020202;}.cls-10{fill:#070707;}.cls-11{fill:#060606;}.cls-12{fill:#090909;}.cls-13{fill:#0c0c0c;}.cls-14{fill:#161616;}.cls-15{fill:#121212;}.cls-16{fill:#101010;}.cls-17{fill:#8f8f8f;}.cls-18{fill:#929292;}.cls-19{fill:#f6f6f6;}.cls-20{fill:#f7f7f7;}.cls-21{fill:#f5f5f5;}.cls-22{fill:#242424;}.cls-23{fill:#f4f4f4;}.cls-24{fill:#ededed;}.cls-25{fill:#747474;}.cls-26{fill:#7c7c7c;}.cls-27{fill:#f9f9f9;}.cls-28{fill:#fbfbfb;}.cls-29{fill:#fcfcfc;}.cls-30{fill:#fdfdfd;}.cls-31{fill:#fafafa;}</style></defs><path class="cls-1" d="M297.64,334q-147.12,0-294.22.07c-2.79,0-3.42-.63-3.42-3.42Q.12,167,0,3.42C0,.63.63,0,3.42,0Q297.63.12,591.86,0c2.79,0,3.42.63,3.42,3.42q-.13,163.62,0,327.26c0,2.79-.63,3.42-3.42,3.42Q444.74,334,297.64,334Z" transform="translate(0)"/><path class="cls-2" d="M388.68,119.3c0,9.54-.11,19.07.07,28.61.05,3-1,3.9-3.83,3.71-3.08-.21-6.19-.12-9.29,0-1.94.06-2.52-.71-2.52-2.63q.08-29.72,0-59.44c0-2.13.8-2.83,2.84-2.76,3.22.11,6.45.16,9.66,0,2.49-.14,3.15.88,3.12,3.21C388.62,99.73,388.68,109.52,388.68,119.3Z" transform="translate(0)"/><path d="M84.51,119.45c0-9.78.09-19.56-.06-29.34,0-2.65.78-3.51,3.37-3.36a89.77,89.77,0,0,0,9.28,0c2.31-.11,2.93.82,2.92,3q-.1,29.34,0,58.68c0,2.43-.72,3.31-3.18,3.16a71.84,71.84,0,0,0-9.28,0c-2.55.17-3.12-.85-3.09-3.21C84.58,138.76,84.51,129.1,84.51,119.45Z" transform="translate(0)"/><path d="M270.21,150.7q-9.09-23.11-18.19-46.21c-1.86-4.72-3.67-9.46-5.69-14.11-1.12-2.57-1.11-3.63,2.26-3.65,11.82-.09,11.82-.2,16.18,10.67,4.18,10.44,8.29,20.91,12.55,31.32a8,8,0,0,1,0,6.71c-2.06,4.87-3.83,9.87-5.72,14.82C271.19,150.64,271.06,151.76,270.21,150.7Z" transform="translate(0)"/><path d="M238.93,151.52c-3.05-7.67-5.73-14.41-8.42-21.14-5.37-13.44-10.68-26.9-16.16-40.29-1.12-2.72-.58-3.54,2.27-3.33,3.94.29,8.56-1.37,11.66.66,2.95,1.93,3.24,6.7,4.67,10.22,4.21,10.31,8.25,20.68,12.49,31a8.32,8.32,0,0,1-.09,7.08C243.2,140.55,241.34,145.53,238.93,151.52Z" transform="translate(0)"/><path d="M109.5,126.61c6.64-.77,10.36-5,12.17-10.92a27.23,27.23,0,0,0-1.17-20.27,13.23,13.23,0,0,0-9.4-7.73c.84-2,2.37-.65,3.6-.73,5.49.37,10.79,1.43,15.53,4.42,11.51,7.26,11.17,24.92-.64,31.65-6.22,3.54-13,4.42-20.09,4.13l-.55-.27Z" transform="translate(0)"/><path d="M402.52,127.12l-1.44,0c-.42-.8.21-1,.72-1.24,12.67-5.39,11.74-27.31,5.05-34.07a14,14,0,0,0-6.5-4c.52-2,1.9-.88,3-.84a34.2,34.2,0,0,1,12.92,3c6.94,3.2,10.63,8.52,10.88,16.24.26,7.95-2.92,13.87-10.07,17.51a24.43,24.43,0,0,1-10.62,2.92C405.2,127.21,403.78,126.57,402.52,127.12Z" transform="translate(0)"/><path class="cls-3" d="M355.81,183.74c-2,5.66-3.58,10.39-5.26,15.11-.42,1.2-.27,3-2.06,3.12-1.95.16-1.85-1.74-2.27-2.89-2.14-5.79-4.18-11.62-6.16-17.47-.28-.81-1.62-2.09.3-2.65,1.5-.43,1.86.81,2.23,1.87l5.9,16.95c2-5.94,3.59-11,5.32-16.05.37-1.07.26-2.75,1.93-2.8,1.9-.06,1.78,1.77,2.18,2.95,1.71,5,3.33,10,5.29,15.88,2.14-6.13,3.92-11.22,5.69-16.31.44-1.26.71-3.15,2.52-2.38,1.65.71.23,2.19-.12,3.21-2,5.85-4.05,11.67-6.16,17.47-.35.95-.41,2.36-2,2.3s-1.54-1.42-1.89-2.41C359.54,194.67,357.85,189.7,355.81,183.74Z" transform="translate(0)"/><path class="cls-4" d="M122.48,243.12c-1.86-.33-2.18-1.19-1.48-2.9,2.39-5.84,4.64-11.74,6.93-17.62q8.22-21.07,16.47-42.16c.41-1,.25-3.12,2.46-2.33s.77,2.28.36,3.32q-11.44,29.59-23,59.13C123.81,241.49,123.87,242.88,122.48,243.12Z" transform="translate(0)"/><path class="cls-5" d="M183.62,88.52c-.13.36-.38,1.06-.64,1.75q-11.55,29.57-23.12,59.1c-.42,1-.4,3.11-2.59,2.09-1.86-.86-.63-2.1-.24-3.12q11.57-29.76,23.22-59.48c.35-.89.13-2.88,2.19-2.15C183.08,86.93,184,87.09,183.62,88.52Z" transform="translate(0)"/><path class="cls-5" d="M341.38,88.33c-.22.57-.44,1.15-.67,1.73q-11.52,29.57-23.1,59.11c-.4,1-.24,3.14-2.45,2.35s-.79-2.26-.38-3.33Q326.32,118.42,338,88.71c.34-.86.25-2.53,2-2.07C340.7,86.84,341.78,87,341.38,88.33Z" transform="translate(0)"/><path class="cls-3" d="M453.11,190c3.11,1.65,5.08,3.89,3.83,7.46s-4.18,4.16-7.44,4.35c-10.76.61-10.76.63-10.76-9.86,0-3.46.1-6.93,0-10.38-.09-2.14.74-2.85,2.79-2.74,2.34.12,4.7-.06,7,0,2.92.14,5.75.67,7.06,3.79S455.45,187.9,453.11,190Z" transform="translate(0)"/><path class="cls-6" d="M288.23,230.65c0-3,.08-5.94,0-8.91-.07-2,.74-2.61,2.63-2.57,4,.08,7.92,0,11.88,0,.91,0,2.25-.23,2.2,1.26s-1.37,1.15-2.29,1.16c-3.09.05-6.19.14-9.28,0-3.27-.16-2.36,2.17-2.33,3.8s-1.05,4,2.25,3.86c2.84-.11,5.69,0,8.54,0,.72,0,1.57,0,1.65,1,.1,1.22-.76,1.44-1.68,1.45-2.72,0-5.46.17-8.17,0-3.39-.23-2.67,2.12-2.61,3.94s-1,4.21,2.51,4c3.21-.19,6.43,0,9.65,0,.84,0,1.83-.07,1.89,1.2s-.9,1.27-1.77,1.28c-4.34,0-8.67,0-13,.07-1.74,0-2.08-.87-2.07-2.31,0-3.1,0-6.19,0-9.29Z" transform="translate(0)"/><path class="cls-3" d="M231.14,201.33c-1.87.92-2.91.46-3.82-.86-1.2-1.72-2.8-3.22-3.74-5.06-1.67-3.25-4.51-2.51-7.1-2.36-1.83.11-1,1.86-1.36,2.94-.56,1.89,1.52,5.38-1.41,5.43-2.17,0-.91-3.51-1-5.4-.21-4.81,0-9.64-.1-14.46-.06-2.16.76-2.84,2.8-2.72,3.08.18,6.18.06,9.24.34a6.2,6.2,0,0,1,6,5.22c.61,3.25-.48,6-3.68,7.29-2.23.9-1.74,1.75-.62,3.15C228,196.91,229.5,199.1,231.14,201.33Z" transform="translate(0)"/><path class="cls-3" d="M526.47,189.65c1.23.65,4.11-1.34,4.28,1.44.18,3,1.75,6.54-1.53,9-4.59,3.4-11.84,2.94-15.8-.89s-4.65-10.78-1.37-15.71a11.92,11.92,0,0,1,14.87-3.85c1.06.5,3.18.77,2.47,2.54-.83,2.07-2.24.37-3.34-.12-4.28-1.91-8.41-1.18-11.14,2a10.4,10.4,0,0,0-.32,12.44c2.46,3.22,6.91,4.15,11.12,2.71,3.14-1.08,2.69-3.46,2.53-5.75-.19-2.52-2.24-1.13-3.46-1.47a6.71,6.71,0,0,0-1.49,0c-.87,0-1.84,0-1.74-1.29.08-1,.93-1,1.65-1C524.19,189.63,525.18,189.65,526.47,189.65Z" transform="translate(0)"/><path class="cls-7" d="M237.42,189.49c.46-3-1.68-7.74.83-10.05,2.27-2.08,6.87-.59,10.44-.53,1.76,0,5.06-1.21,5,1.11,0,2.7-3.35,1-5.19,1.33a14.75,14.75,0,0,1-4.45,0c-3.07-.4-4,.74-4,3.86s.94,4.17,4,3.83a49.19,49.19,0,0,1,6.31,0c.94,0,2.25-.24,2.18,1.27s-1.39,1.12-2.3,1.14c-2.48.05-5,.13-7.44,0-3.36-.18-2.65,2.19-2.58,4s-.95,4.22,2.55,4c3.09-.19,6.2-.06,9.29,0,.91,0,2.22-.3,2.18,1.25,0,1.23-1.14,1.13-2,1.14-4.21,0-8.42,0-12.63,0-1.82,0-2.34-.8-2.29-2.49C237.48,196.31,237.42,193.21,237.42,189.49Z" transform="translate(0)"/><path class="cls-8" d="M479.17,189.73c-.17,1.71-1.39,1.77-2.7,1.75a58.63,58.63,0,0,1-5.93,0c-3.18-.37-4.24.66-4.24,4s.92,4.37,4.17,4a74,74,0,0,1,8.16-.05c.84,0,1.88,0,1.9,1.19s-1,1.22-1.87,1.22c-4.2,0-8.41,0-12.61,0-1.75,0-2.41-.7-2.4-2.44q.09-9.07,0-18.17c0-1.71.59-2.49,2.37-2.46,4.08.06,8.16,0,12.24,0,1,0,2.17-.06,2.05,1.41-.1,1.16-1.15,1.13-2,1.14a85,85,0,0,1-8.89,0c-3.53-.34-2.95,1.92-3,4s-.44,4,2.81,3.73,6.43,0,9.64,0C479.5,189.09,479.59,189.31,479.17,189.73Z" transform="translate(0)"/><path class="cls-7" d="M378,190.38c0-3,.08-5.93,0-8.9-.07-1.85.48-2.7,2.48-2.65,4,.1,7.92,0,11.88,0,.93,0,2.19-.25,2.22,1.24s-1.2,1.28-2.16,1.29c-3.09,0-6.18.07-9.27,0-3.55-.08-2.13,2.58-2.3,4.23s-.59,3.64,2.32,3.43a35.82,35.82,0,0,1,6.3,0c1.24.13,3.54-1.12,3.52,1.25,0,1.88-2.14,1-3.34,1.1a60.17,60.17,0,0,1-6.3,0c-3.79-.16-2.33,2.67-2.49,4.44s-.61,3.82,2.53,3.6,6.43-.05,9.64,0c.92,0,1.83.11,1.75,1.34-.07,1-.92,1-1.65,1-4.33,0-8.66,0-13,0-1.56,0-2.18-.65-2.14-2.23C378.08,196.57,378,193.47,378,190.38Z" transform="translate(0)"/><path class="cls-7" d="M189.78,190.27c0-3.09.05-6.18,0-9.27,0-1.58.58-2.21,2.17-2.19,4.08.07,8.16,0,12.24.06,1,0,2.18-.1,2.07,1.39-.08,1.15-1.12,1.13-2,1.14a75.81,75.81,0,0,1-8.53,0c-3.71-.41-3.1,2-3.23,4.17s.14,3.83,3.07,3.54a61.22,61.22,0,0,1,7,0c.94,0,2.19-.21,2.12,1.31-.06,1.25-1.15,1.07-2,1.09-2,0-4,0-5.94,0a4.7,4.7,0,0,0-4.12,7.16c.64,1.15,1.71.78,2.62.8,3.1.05,6.19,0,9.28,0,.85,0,1.88-.09,2,1.13s-1,1.26-1.81,1.27c-4.33,0-8.66,0-13,0-1.7,0-2.05-.87-2-2.34C189.83,196.45,189.78,193.36,189.78,190.27Z" transform="translate(0)"/><path class="cls-3" d="M227,233.1c1.66,2.2,3.27,4.21,4.73,6.33.49.71,1.93,1.54.94,2.42s-2.3.13-3.12-1a46.19,46.19,0,0,1-4-5.38c-1.76-3.29-4.66-2.09-7.22-2.18-1.27,0-1,1.15-1,2,0,1.74,0,3.47,0,5.21,0,.78-.09,1.53-1.11,1.56a1.22,1.22,0,0,1-1.38-1.36q0-10,0-20.07c0-1.41,1.14-1.41,2.16-1.41,2.6,0,5.2,0,7.81,0,3.42.06,6.37,1,7.78,4.54,1.52,3.88-1.1,6-3.52,8.11A13.06,13.06,0,0,1,227,233.1Z" transform="translate(0)"/><path class="cls-9" d="M263.58,224.79c0,4.79.05,9.59,0,14.38,0,1.05.76,2.84-1.27,2.82-1.73,0-1.14-1.63-1.15-2.61-.06-5.82-.05-11.65,0-17.47,0-.9-.48-2.11.84-2.54s2.09.39,2.81,1.31A173.23,173.23,0,0,0,278,236.23c0-4.12,0-8.25,0-12.37,0-1,0-2,0-3,0-.78.23-1.48,1.2-1.54s1.26.6,1.26,1.41q0,9.85,0,19.7c0,.62,0,1.31-.74,1.51-1.15.31-1.83-.41-2.47-1.22Q272,234,266.72,227.32c-.76-.95-1.56-1.87-2.34-2.8Z" transform="translate(0)"/><path class="cls-10" d="M320.69,233.62c-.86-.11-1.71-.2-2.56-.35-3.55-.62-4.91.72-4.48,4.39.16,1.41,1.15,4.18-1.25,4.24-2.58.07-1.27-2.65-1.31-4.07-.17-5.19.05-10.4-.12-15.59-.09-2.49.76-3.26,3.15-3.08,3.08.23,6.2,0,9.26.33a6.05,6.05,0,0,1,5.83,6.14c.13,3.23-1.14,5.82-4.73,6.52C323.29,232.84,322.63,234.89,320.69,233.62Z" transform="translate(0)"/><path class="cls-11" d="M208.82,241.1c.25,1-.56,1-1.32,1s-1.18-.63-1.62-1.26c-1.07-1.56-.81-4.42-3.09-4.67a64,64,0,0,0-10.72,0c-1.39.08-1.41,1.84-2.06,2.83-.8,1.22-.94,3.94-2.93,2.93s.2-2.75.73-4c2.41-5.67,5-11.25,7.59-16.85.45-1,.7-2.18,2.17-2.17s1.74,1.17,2.19,2.16q4.23,9.24,8.44,18.49C208.41,240,208.57,240.49,208.82,241.1Z" transform="translate(0)"/><path class="cls-9" d="M286.26,106.18c-2.5-6.26-4.6-11.66-6.82-17-.8-1.92-.11-2.43,1.7-2.41,3.45,0,6.91,0,10.37,0,1.41,0,2.5.13,1.7,2.06C291,94.29,288.82,99.77,286.26,106.18Z" transform="translate(0)"/><path class="cls-3" d="M497.21,194.89c-1.62-2.72-4.27-1.88-6.65-1.85-1.33,0-1.44,1.11-1.45,2.15,0,1.73,0,3.46,0,5.18a1.27,1.27,0,0,1-1.3,1.44c-1.09.09-1.22-.59-1.22-1.39,0-6.66,0-13.33,0-20,0-1.11.56-1.55,1.6-1.53,3.58.06,7.17-.35,10.72.32s5.59,2.54,5.73,6.2-1.41,5.9-5,6.61C498.17,192.48,499.35,195,497.21,194.89Z" transform="translate(0)"/><path class="cls-3" d="M324.33,200.68c.13,1.16-.67,1.14-1.43,1.09s-1-.5-1.39-1.06c-1-1.6-.84-4.47-3-4.75a50.82,50.82,0,0,0-10.75,0c-1.84.15-1.78,2.44-2.55,3.77-.62,1.09-1.07,2.67-2.56,2s-.13-2,.24-2.82c2.62-6,5.35-12,8.09-17.91.44-1,.63-2.17,2.12-2.26s1.8,1.11,2.24,2.07c2.83,6.18,5.62,12.38,8.42,18.58C324,199.77,324.14,200.22,324.33,200.68Z" transform="translate(0)"/><path class="cls-12" d="M177.33,179.26c4.19.53,6.33,2.41,6.76,5.94a7.17,7.17,0,0,1-5,8c-8,2.76-8,2.76-10.88,8.45-1.35-.76-1.13-2.06-1.13-3.27,0-5.3.11-10.6,0-15.89-.08-2.79,1-3.9,3.7-3.56C172.93,179.24,175.16,178.56,177.33,179.26Z" transform="translate(0)"/><path class="cls-7" d="M346,239.74c1.66-.85,2.83-2.09,2.56-4.08s-2-2.71-3.64-3.26c-2.1-.71-4.31-1.11-6.37-1.91a5.25,5.25,0,0,1-3.57-5.15,5.74,5.74,0,0,1,3.25-5.43c3.76-1.92,7.43-1.26,11,.7.6.34,1.4.74.92,1.69a1.33,1.33,0,0,1-2.12.6c-2.3-1.32-4.67-2.21-7.4-1.34a3.56,3.56,0,0,0-2.86,3.41,3.2,3.2,0,0,0,2.49,3.28c2.21.76,4.49,1.33,6.7,2.09s4.06,2,4.28,4.57-.2,5-2.93,6.18C347.16,241.28,346.13,241.3,346,239.74Z" transform="translate(0)"/><path class="cls-6" d="M246.4,219.21c2.35,0,4.71,0,7.06,0,.86,0,1.85,0,1.83,1.25,0,1-.8,1.05-1.56,1.17-1.91.3-4.64-1-5.55.72s-.37,4.32-.39,6.54c0,3.59,0,7.17,0,10.76,0,1,.4,2.48-1.41,2.4s-1.33-1.49-1.34-2.52c0-4.83-.17-9.66,0-14.48.12-2.8-.82-3.85-3.57-3.43a14.93,14.93,0,0,1-2.59,0c-.82,0-1.49-.26-1.46-1.24s.75-1.17,1.53-1.17C241.45,219.2,243.93,219.21,246.4,219.21Z" transform="translate(0)"/><path class="cls-13" d="M421.86,192.75l-7.77-9.25c0,5.85,0,10.61,0,15.37,0,1.08.66,2.84-1.3,2.88s-1.26-1.79-1.28-2.82c-.08-5.69-.07-11.38,0-17.07,0-1-.62-2.4.83-2.9,1.22-.43,2.08.43,2.79,1.36l8.29,10.89A1.48,1.48,0,0,1,421.86,192.75Z" transform="translate(0)"/><path class="cls-13" d="M281.3,190.48c0-3.09,0-6.17,0-9.25,0-.89-.4-2.18,1.12-2.29s1.66,1.09,1.66,2.26c0,5.05.12,10.12-.05,15.17-.08,2.48.81,3.23,3.18,3.07,2.58-.17,5.18-.05,7.77,0,.85,0,1.85-.06,1.85,1.21s-1,1.23-1.86,1.24c-3.82,0-7.65-.05-11.47,0-1.88,0-2.26-.94-2.22-2.54.06-3,0-5.92,0-8.88Z" transform="translate(0)"/><path class="cls-4" d="M260.33,190.87c0-3.72,0-6.81,0-9.9,0-.78-.3-1.87,1-2,1.56-.13,1.4,1.07,1.41,2,0,4.95.19,9.9,0,14.83-.15,3,1,3.89,3.79,3.63a66.12,66.12,0,0,1,7,0c.92,0,2.2-.28,2.14,1.28,0,1.25-1.13,1.05-1.95,1.12a14.62,14.62,0,0,1-1.48,0c-3.81-.09-8.75,1.23-11.13-.67C258.59,199.17,260.73,194,260.33,190.87Z" transform="translate(0)"/><path class="cls-5" d="M421.86,192.75l1.52-1.54,5.06,5.68c0-5.66,0-10.39,0-15.13,0-1-.67-2.87,1.39-2.72,1.68.13,1,1.75,1,2.7.08,5.8.06,11.6,0,17.4,0,.89.48,2.12-.81,2.55-1.13.38-1.8-.49-2.41-1.29Z" transform="translate(0)"/><path class="cls-14" d="M401,190.28c0-3.21,0-6.43,0-9.65,0-.82-.14-1.83,1.24-1.74,1.13.08,1.45.78,1.45,1.75,0,6.55,0,13.11,0,19.66a1.36,1.36,0,0,1-1.61,1.55c-1.38-.06-1.07-1.14-1.08-1.92C401,196.71,401,193.5,401,190.28Z" transform="translate(0)"/><path class="cls-11" d="M183.88,225.45c.19,4.82-2.18,7.51-7.24,8.24-2.27.84-4.71-.29-7,.64v0c-.69,1.39-.33,2.88-.38,4.33,0,.7-.37,1.19-1.11,1.17a.93.93,0,0,1-1-.87,45.8,45.8,0,0,1,.13-8.84c.16-1,1.23-1.05,2.13-1l1.1.11a12.92,12.92,0,0,0,6.39,0c2.78-.66,2.41-3.7,4-5.29C182.63,222.91,183.09,224.53,183.88,225.45Z" transform="translate(0)"/><path class="cls-11" d="M168.19,219.39c4.53,0,9.26-1.38,13.39,1.73.92,1.76-.59,2.09-1.6,2.71a3,3,0,0,1-1.79.16c-5.11-.64-5.15-.61-7,4.09a2.44,2.44,0,0,1-1.45,1.57c-1.22,0-2.45.08-2.5-1.76C167.16,225,166.51,222.07,168.19,219.39Z" transform="translate(0)"/><path class="cls-15" d="M346,239.74l2.27,1.35c-4.53,2.77-8.72,1.33-12.77-1.11-.57-.34-1.75-.8-1-1.95s1.43-.48,2.37.06A11.73,11.73,0,0,0,346,239.74Z" transform="translate(0)"/><path class="cls-12" d="M168.19,219.39c-.24,2.28-1,4.51-.64,6.83.19,1.3.13,2.78,2,2.93a1.43,1.43,0,0,1,.1,2.25c-.84-.68-1.85-1.33-2.05.39a22,22,0,0,0,.35,7.69c1.08-2.16.54-4,1.71-5.12,0,1.6.13,3.22,0,4.81-.1,1,.86,2.83-1.21,2.86-2.23,0-1.48-1.89-1.49-3.07q-.1-8.34,0-16.68C167,221.25,166.14,219.63,168.19,219.39Z" transform="translate(0)"/><path class="cls-16" d="M320.69,233.62l3.79-1.47c-1.23,1.06-.48,1.87.25,2.8a36.77,36.77,0,0,1,4.46,6.9C324.42,241.23,323.2,236.71,320.69,233.62Z" transform="translate(0)"/><path class="cls-16" d="M497.21,194.89c.79-.95,1.12-2.28,2.35-2.87-.95,2.14,1.14,3,1.94,4.34,1.05,1.74,2.38,3.32,4,5.5C500.09,201.78,499.54,197.33,497.21,194.89Z" transform="translate(0)"/><path class="cls-13" d="M177.33,179.26a29.17,29.17,0,0,1-3,.17c-7.32-.35-7,0-6.87,7.58.09,4.89-.78,9.84.7,14.67-1.55,0-1.3-1.16-1.3-2.09,0-6,.05-12,0-18,0-2.1.77-2.91,2.8-2.74C172.21,179,174.81,178.45,177.33,179.26Z" transform="translate(0)"/><path class="cls-17" d="M403.34,87c-1,.42-2.2-.19-3,.84a7.77,7.77,0,0,1-4.6-1.2C398.29,86.57,400.82,85.93,403.34,87Z" transform="translate(0)"/><path class="cls-12" d="M179.46,222.43a2.22,2.22,0,0,0,2.12-1.31,4.37,4.37,0,0,1,2.3,4.33c-.76-.36-1.43-1.1-2.4-.54C179.81,224.9,178.83,224.32,179.46,222.43Z" transform="translate(0)"/><path class="cls-18" d="M114.7,87c-1.17.4-2.52-.12-3.6.73L107,87A13,13,0,0,1,114.7,87Z" transform="translate(0)"/><path class="cls-19" d="M204.68,198.63c-2.3-1.43-1.31-2.79-1-4.08Z" transform="translate(0)"/><path class="cls-20" d="M331.79,228.94c.94.87,2,1.13,2.47,2.58C332.13,231.88,331.76,230.84,331.79,228.94Z" transform="translate(0)"/><path class="cls-12" d="M169.67,234.33c2.19-1.68,4.65-.31,7-.64C174.38,234.59,172,233.66,169.67,234.33Z" transform="translate(0)"/><path class="cls-19" d="M480.84,195.88a.76.76,0,0,1,.73,1c-.05.3-.3.74-.54.8-.54.14-.9-.28-1-.78S480.33,196,480.84,195.88Z" transform="translate(0)"/><path class="cls-20" d="M237,226.75a8.27,8.27,0,0,1-1.07-1.2c-.05-.07.35-.6.58-.64a.77.77,0,0,1,.94.84C237.42,226,237.17,226.32,237,226.75Z" transform="translate(0)"/><path class="cls-21" d="M231.22,196.13c.49.14.94.44.7,1-.15.35-.67.52-1,.77-.16-.28-.44-.55-.46-.84C230.38,196.52,230.58,196.09,231.22,196.13Z" transform="translate(0)"/><path class="cls-19" d="M252.21,110.78c-.33.15-.65.41-.93.38s-.41-.5-.38-.75.33-.49.51-.73Z" transform="translate(0)"/><path class="cls-21" d="M508.36,194.84c.21.18.45.29.46.43,0,.33.1.81-.09,1-.51.5-.48-.15-.5-.37A5.36,5.36,0,0,1,508.36,194.84Z" transform="translate(0)"/><path class="cls-22" d="M401.8,125.91l-.72,1.24-2.94,0-.55-.22.55-.23Z" transform="translate(0)"/><path class="cls-23" d="M419.19,194.33l.36.55c-.17.07-.4.26-.49.2s-.26-.33-.38-.51Z" transform="translate(0)"/><path class="cls-24" d="M270.21,150.7l1.36-.45c.15.51.69,1.17-.13,1.44C270.83,151.88,270.45,151.25,270.21,150.7Z" transform="translate(0)"/><path class="cls-19" d="M479.17,189.73a1.23,1.23,0,0,1-.27-.64l2.25-.44C480.7,189.88,479.83,189.57,479.17,189.73Z" transform="translate(0)"/><path class="cls-21" d="M420.47,183.29c-.19.07-.4.22-.57.19s-.23-.29-.34-.44c.2-.07.4-.23.58-.2S420.36,183.12,420.47,183.29Z" transform="translate(0)"/><path class="cls-21" d="M306.51,222l.46.33c-.17.14-.32.35-.51.39s-.29-.19-.44-.3Z" transform="translate(0)"/><path class="cls-25" d="M398.14,126.66a1.7,1.7,0,0,1,0,.45h-3.07A4.11,4.11,0,0,1,398.14,126.66Z" transform="translate(0)"/><path class="cls-26" d="M109.5,126.61a2,2,0,0,0,0,.55,3.84,3.84,0,0,1-2.72-.27A3.74,3.74,0,0,1,109.5,126.61Z" transform="translate(0)"/><path class="cls-21" d="M295.2,93.39l.27.22a3.59,3.59,0,0,1-.4.38s-.16-.13-.25-.2Z" transform="translate(0)"/><path class="cls-22" d="M402.52,127.12a5.65,5.65,0,0,1,3.93-.51A5.94,5.94,0,0,1,402.52,127.12Z" transform="translate(0)"/><path class="cls-21" d="M236.44,223.05c-.11.15-.24.44-.33.43a1.86,1.86,0,0,1-.59-.31c.11-.15.23-.43.32-.42A1.78,1.78,0,0,1,236.44,223.05Z" transform="translate(0)"/><path class="cls-10" d="M234.21,110.32a4.66,4.66,0,0,1,.89.81c.19.33.06.76-.36.75a1,1,0,0,1-.76-.55C233.88,111.12,234.09,110.77,234.21,110.32Z" transform="translate(0)"/><path class="cls-27" d="M446.35,199.57c-5.13-.07-4.94-.07-5.15-4.45-.15-2.93.79-4,3.72-3.71,2.06.21,4.16-.06,6.23.42s3.42,1.45,3.41,3.67-1.49,3.34-3.44,3.73A35.82,35.82,0,0,1,446.35,199.57Z" transform="translate(0)"/><path class="cls-28" d="M447,189.07c-5.62,0-6.91-1.75-5.67-6.3a2.21,2.21,0,0,1,.4-1c1.41-1.44,10.05-.28,11.1,1.46a3.79,3.79,0,0,1-2.5,5.51A15.06,15.06,0,0,1,447,189.07Z" transform="translate(0)"/><path class="cls-29" d="M220.08,190.63c-1.63-.38-4.09.75-4.53-.75-.69-2.37-.23-5.08-.25-7.65a.42.42,0,0,1,.21-.28c2.72-1.17,5.55-.5,8.32-.36a4.06,4.06,0,0,1,3.95,2.8,4.41,4.41,0,0,1-3.41,5.9A27.53,27.53,0,0,1,220.08,190.63Z" transform="translate(0)"/><path class="cls-30" d="M222.07,230.78c-1.34-.35-3.92.94-4.45-.77-.72-2.35-.33-5.11-.09-7.66.09-1,7.87-1,9.93-.19,2.7,1.05,2.82,3.25,2.34,5.49S227.09,230.74,222.07,230.78Z" transform="translate(0)"/><path class="cls-29" d="M318.7,230.9c-1.56-.57-4.06.95-4.65-1-.67-2.26-.16-4.87-.14-7.33,0-.19.23-.42.41-.57,1.65-1.33,10.33,0,11.53,1.77a4.41,4.41,0,0,1-2.73,6.73A27.82,27.82,0,0,1,318.7,230.9Z" transform="translate(0)"/><path class="cls-27" d="M197.56,222.09l5,11.41H192.49Z" transform="translate(0)"/><path class="cls-31" d="M494,190.65c-1.6-.39-3.86.74-4.51-.79-1-2.32-.5-5.05-.25-7.61a.39.39,0,0,1,.2-.3c3-1.1,6-.62,9-.25a3.85,3.85,0,0,1,3.46,3.38c.42,2.79-1.1,4.47-3.61,5.18A23.24,23.24,0,0,1,494,190.65Z" transform="translate(0)"/><path class="cls-27" d="M308.06,193.31c1.7-3.84,3.19-7.2,5.07-11.42l5.13,11.42Z" transform="translate(0)"/><path class="cls-30" d="M169.74,186.28c-.3-2.8-.66-5.3,3.75-5,5.55.4,8,1.57,8,4.92s-2.7,4.8-7.87,5.23C169.08,191.82,169.43,189.2,169.74,186.28Z" transform="translate(0)"/><path class="cls-29" d="M179.46,222.43l2,2.48c.49,3.12-1,5.16-3.62,6.55a22.55,22.55,0,0,1-8.19,0l0,0-.1-2.25.06-.36c.37-2.26-1.06-5.64.65-6.58C172.91,220.76,176.39,221.35,179.46,222.43Z" transform="translate(0)"/><path class="cls-12" d="M169.67,231.43l8.19,0A11.19,11.19,0,0,1,169.67,231.43Z" transform="translate(0)"/></svg>